  0
SECTION
  2
HEADER
  9
$ACADVER
  1
AC1009
  9
$DWGCODEPAGE
  3
ansi_1252
  9
$INSBASE
 10
0.0
 20
0.0
 30
0.0
  9
$EXTMIN
 10
0.8752
 20
0.8606
 30
0.0
  9
$EXTMAX
 10
12.68622362190552
 20
19.62044251945993
 30
0.0
  9
$LIMMIN
 10
0.0
 20
0.0
  9
$LIMMAX
 10
12.0
 20
9.0
  9
$ORTHOMODE
 70
     0
  9
$REGENMODE
 70
     1
  9
$FILLMODE
 70
     1
  9
$QTEXTMODE
 70
     0
  9
$MIRRTEXT
 70
     1
  9
$DRAGMODE
 70
     2
  9
$LTSCALE
 40
1.0
  9
$OSMODE
 70
    37
  9
$ATTMODE
 70
     1
  9
$TEXTSIZE
 40
0.2
  9
$TRACEWID
 40
0.05
  9
$TEXTSTYLE
  7
STANDARD
  9
$CLAYER
  8
0
  9
$CELTYPE
  6
BYLAYER
  9
$CECOLOR
 62
   256
  9
$DIMSCALE
 40
1.0
  9
$DIMASZ
 40
0.18
  9
$DIMEXO
 40
0.0625
  9
$DIMDLI
 40
0.38
  9
$DIMRND
 40
0.0
  9
$DIMDLE
 40
0.0
  9
$DIMEXE
 40
0.18
  9
$DIMTP
 40
0.0
  9
$DIMTM
 40
0.0
  9
$DIMTXT
 40
0.18
  9
$DIMCEN
 40
0.09
  9
$DIMTSZ
 40
0.0
  9
$DIMTOL
 70
     0
  9
$DIMLIM
 70
     0
  9
$DIMTIH
 70
     1
  9
$DIMTOH
 70
     1
  9
$DIMSE1
 70
     0
  9
$DIMSE2
 70
     0
  9
$DIMTAD
 70
     0
  9
$DIMZIN
 70
     0
  9
$DIMBLK
  1

  9
$DIMASO
 70
     1
  9
$DIMSHO
 70
     1
  9
$DIMPOST
  1

  9
$DIMAPOST
  1

  9
$DIMALT
 70
     0
  9
$DIMALTD
 70
     2
  9
$DIMALTF
 40
25.4
  9
$DIMLFAC
 40
1.0
  9
$DIMTOFL
 70
     0
  9
$DIMTVP
 40
0.0
  9
$DIMTIX
 70
     0
  9
$DIMSOXD
 70
     0
  9
$DIMSAH
 70
     0
  9
$DIMBLK1
  1

  9
$DIMBLK2
  1

  9
$DIMSTYLE
  2
STANDARD
  9
$DIMCLRD
 70
     0
  9
$DIMCLRE
 70
     0
  9
$DIMCLRT
 70
     0
  9
$DIMTFAC
 40
1.0
  9
$DIMGAP
 40
0.09
  9
$LUNITS
 70
     2
  9
$LUPREC
 70
     4
  9
$SKETCHINC
 40
0.1
  9
$FILLETRAD
 40
0.5
  9
$AUNITS
 70
     0
  9
$AUPREC
 70
     0
  9
$MENU
  1
.
  9
$ELEVATION
 40
0.0
  9
$PELEVATION
 40
0.0
  9
$THICKNESS
 40
0.0
  9
$LIMCHECK
 70
     0
  9
$CHAMFERA
 40
0.0
  9
$CHAMFERB
 40
0.0
  9
$SKPOLY
 70
     0
  9
$TDCREATE
 40
2454910.5
  9
$TDUPDATE
 40
2460165.808589085
  9
$TDINDWG
 40
0.0000000116
  9
$TDUSRTIMER
 40
0.0000000116
  9
$USRTIMER
 70
     1
  9
$ANGBASE
 50
0.0
  9
$ANGDIR
 70
     0
  9
$PDMODE
 70
     0
  9
$PDSIZE
 40
0.0
  9
$PLINEWID
 40
0.0
  9
$COORDS
 70
     1
  9
$SPLFRAME
 70
     0
  9
$SPLINETYPE
 70
     6
  9
$SPLINESEGS
 70
     8
  9
$ATTDIA
 70
     0
  9
$ATTREQ
 70
     1
  9
$HANDLING
 70
     1
  9
$HANDSEED
  5
799
  9
$SURFTAB1
 70
     6
  9
$SURFTAB2
 70
     6
  9
$SURFTYPE
 70
     6
  9
$SURFU
 70
     6
  9
$SURFV
 70
     6
  9
$UCSNAME
  2

  9
$UCSORG
 10
0.0
 20
0.0
 30
0.0
  9
$UCSXDIR
 10
1.0
 20
0.0
 30
0.0
  9
$UCSYDIR
 10
0.0
 20
1.0
 30
0.0
  9
$PUCSNAME
  2

  9
$PUCSORG
 10
0.0
 20
0.0
 30
0.0
  9
$PUCSXDIR
 10
1.0
 20
0.0
 30
0.0
  9
$PUCSYDIR
 10
0.0
 20
1.0
 30
0.0
  9
$USERI1
 70
     0
  9
$USERI2
 70
     0
  9
$USERI3
 70
     0
  9
$USERI4
 70
     0
  9
$USERI5
 70
     0
  9
$USERR1
 40
0.0
  9
$USERR2
 40
0.0
  9
$USERR3
 40
0.0
  9
$USERR4
 40
0.0
  9
$USERR5
 40
0.0
  9
$WORLDVIEW
 70
     1
  9
$SHADEDGE
 70
     3
  9
$SHADEDIF
 70
    70
  9
$TILEMODE
 70
     1
  9
$MAXACTVP
 70
    64
  9
$PLIMCHECK
 70
     0
  9
$PEXTMIN
 10
1.000000000000000E+20
 20
1.000000000000000E+20
 30
1.000000000000000E+20
  9
$PEXTMAX
 10
-1.000000000000000E+20
 20
-1.000000000000000E+20
 30
-1.000000000000000E+20
  9
$PLIMMIN
 10
0.0
 20
0.0
  9
$PLIMMAX
 10
12.0
 20
9.0
  9
$UNITMODE
 70
     0
  9
$VISRETAIN
 70
     1
  9
$PLINEGEN
 70
     0
  9
$PSLTSCALE
 70
     1
  0
ENDSEC
  0
SECTION
  2
TABLES
  0
TABLE
  2
VPORT
 70
     1
  0
VPORT
  2
*ACTIVE
 70
     0
 10
0.0
 20
0.0
 11
1.0
 21
1.0
 12
10.42990654205607
 22
4.5
 13
0.0
 23
0.0
 14
0.5
 24
0.5
 15
0.5
 25
0.5
 16
0.0
 26
0.0
 36
1.0
 17
0.0
 27
0.0
 37
0.0
 40
9.0
 41
1.972972972850329
 42
50.0
 43
0.0
 44
0.0
 50
0.0
 51
0.0
 71
     0
 72
   100
 73
     1
 74
     3
 75
     0
 76
     0
 77
     0
 78
     0
  0
ENDTAB
  0
TABLE
  2
LTYPE
 70
     2
  0
LTYPE
  2
CONTINUOUS
 70
     0
  3
Solid line
 72
    65
 73
     0
 40
0.0
  0
LTYPE
  2
CONTINUOUS2
 70
     0
  3
Solid Line
 72
    65
 73
     0
 40
0.0
  0
ENDTAB
  0
TABLE
  2
LAYER
 70
     3
  0
LAYER
  2
0
 70
     0
 62
     7
  6
CONTINUOUS
  0
LAYER
  2
LAYER_10
 70
     0
 62
     7
  6
CONTINUOUS
  0
LAYER
  2
LAYER_1
 70
     0
 62
     7
  6
CONTINUOUS
  0
ENDTAB
  0
TABLE
  2
STYLE
 70
     1
  0
STYLE
  2
STANDARD
 70
     0
 40
0.0
 41
1.0
 50
0.0
 71
     0
 42
0.2
  3
txt
  4

  0
ENDTAB
  0
TABLE
  2
VIEW
 70
     0
  0
ENDTAB
  0
TABLE
  2
UCS
 70
     0
  0
ENDTAB
  0
TABLE
  2
APPID
 70
     1
  0
APPID
  2
ACAD
 70
     0
  0
ENDTAB
  0
TABLE
  2
DIMSTYLE
 70
     1
  0
DIMSTYLE
  2
STANDARD
 70
     0
  3

  4

  5

  6

  7

 40
1.0
 41
0.18
 42
0.0625
 43
0.38
 44
0.18
 45
0.0
 46
0.0
 47
0.0
 48
0.0
140
0.18
141
0.09
142
0.0
143
25.4
144
1.0
145
0.0
146
1.0
147
0.09
 71
     0
 72
     0
 73
     1
 74
     1
 75
     0
 76
     0
 77
     0
 78
     0
170
     0
171
     2
172
     0
173
     0
174
     0
175
     0
176
     0
177
     0
178
     0
  0
ENDTAB
  0
ENDSEC
  0
SECTION
  2
BLOCKS
  0
BLOCK
  8
0
  2
$MODEL_SPACE
 70
     0
 10
0.0
 20
0.0
 30
0.0
  3
$MODEL_SPACE
  1

  0
ENDBLK
  5
21
  8
0
  0
BLOCK
 67
     1
  8
0
  2
$PAPER_SPACE
 70
     0
 10
0.0
 20
0.0
 30
0.0
  3
$PAPER_SPACE
  1

  0
ENDBLK
  5
1D
 67
     1
  8
0
  0
ENDSEC
  0
SECTION
  2
ENTITIES
  0
POLYLINE
  5
70
  8
LAYER_10
 66
     1
 10
0.0
 20
0.0
 30
0.0
 70
     1
  0
VERTEX
  5
157
  8
LAYER_10
 10
0.8752
 20
1.1606
 30
0.0
 42
0.4142135623730951
  0
VERTEX
  5
158
  8
LAYER_10
 10
1.1752
 20
0.8606
 30
0.0
  0
VERTEX
  5
159
  8
LAYER_10
 10
12.38622362190551
 20
0.8606
 30
0.0
 42
0.4142135623730951
  0
VERTEX
  5
15A
  8
LAYER_10
 10
12.68622362190552
 20
1.1606
 30
0.0
  0
VERTEX
  5
15B
  8
LAYER_10
 10
12.68622362190552
 20
19.32044251945993
 30
0.0
 42
0.4142135623730951
  0
VERTEX
  5
15C
  8
LAYER_10
 10
12.38622362190551
 20
19.62044251945993
 30
0.0
  0
VERTEX
  5
15D
  8
LAYER_10
 10
1.1752
 20
19.62044251945993
 30
0.0
 42
0.4142135623730951
  0
VERTEX
  5
15E
  8
LAYER_10
 10
0.8752
 20
19.32044251945993
 30
0.0
  0
SEQEND
  5
6BA
  8
LAYER_10
  0
POLYLINE
  5
71
  8
0
 66
     1
 10
0.0
 20
0.0
 30
0.0
 70
     1
  0
VERTEX
  5
15F
  8
0
 10
1.461609542865475
 20
2.67278956193662
 30
0.0
  0
VERTEX
  5
160
  8
0
 10
1.862954768284035
 20
2.904506335869995
 30
0.0
  0
VERTEX
  5
161
  8
0
 10
2.264299993702599
 20
2.67278956193662
 30
0.0
  0
VERTEX
  5
162
  8
0
 10
2.264299993702599
 20
2.209356014069866
 30
0.0
  0
VERTEX
  5
163
  8
0
 10
1.862954768284035
 20
1.977639240136495
 30
0.0
  0
VERTEX
  5
164
  8
0
 10
1.461609542865475
 20
2.209356014069871
 30
0.0
  0
SEQEND
  5
6BB
  8
0
  0
POLYLINE
  5
72
  8
0
 66
     1
 10
0.0
 20
0.0
 30
0.0
 70
     1
  0
VERTEX
  5
165
  8
0
 10
1.461609542865475
 20
4.46442365798949
 30
0.0
  0
VERTEX
  5
166
  8
0
 10
1.862954768284035
 20
4.696140431922862
 30
0.0
  0
VERTEX
  5
167
  8
0
 10
2.264299993702599
 20
4.464423657989487
 30
0.0
  0
VERTEX
  5
168
  8
0
 10
2.264299993702599
 20
4.000990110122735
 30
0.0
  0
VERTEX
  5
169
  8
0
 10
1.862954768284035
 20
3.769273336189363
 30
0.0
  0
VERTEX
  5
16A
  8
0
 10
1.461609542865475
 20
4.000990110122735
 30
0.0
  0
SEQEND
  5
6BC
  8
0
  0
POLYLINE
  5
73
  8
0
 66
     1
 10
0.0
 20
0.0
 30
0.0
 70
     1
  0
VERTEX
  5
16B
  8
0
 10
1.461609542865475
 20
6.256057754042355
 30
0.0
  0
VERTEX
  5
16C
  8
0
 10
1.862954768284035
 20
6.487774527975728
 30
0.0
  0
VERTEX
  5
16D
  8
0
 10
2.264299993702599
 20
6.256057754042361
 30
0.0
  0
VERTEX
  5
16E
  8
0
 10
2.264299993702599
 20
5.792624206175604
 30
0.0
  0
VERTEX
  5
16F
  8
0
 10
1.862954768284032
 20
5.560907432242225
 30
0.0
  0
VERTEX
  5
170
  8
0
 10
1.461609542865475
 20
5.792624206175607
 30
0.0
  0
SEQEND
  5
6BD
  8
0
  0
POLYLINE
  5
74
  8
0
 66
     1
 10
0.0
 20
0.0
 30
0.0
 70
     1
  0
VERTEX
  5
171
  8
0
 10
1.461609542865475
 20
8.047691850095225
 30
0.0
  0
VERTEX
  5
172
  8
0
 10
1.862954768284032
 20
8.279408624028603
 30
0.0
  0
VERTEX
  5
173
  8
0
 10
2.264299993702599
 20
8.047691850095225
 30
0.0
  0
VERTEX
  5
174
  8
0
 10
2.264299993702599
 20
7.584258302228469
 30
0.0
  0
VERTEX
  5
175
  8
0
 10
1.862954768284035
 20
7.352541528295102
 30
0.0
  0
VERTEX
  5
176
  8
0
 10
1.461609542865475
 20
7.584258302228478
 30
0.0
  0
SEQEND
  5
6BE
  8
0
  0
POLYLINE
  5
75
  8
0
 66
     1
 10
0.0
 20
0.0
 30
0.0
 70
     1
  0
VERTEX
  5
177
  8
0
 10
1.978813155250717
 20
8.480081236737876
 30
0.0
  0
VERTEX
  5
178
  8
0
 10
1.978813155250717
 20
8.943514784604632
 30
0.0
  0
VERTEX
  5
179
  8
0
 10
2.380158380669281
 20
9.175231558538014
 30
0.0
  0
VERTEX
  5
17A
  8
0
 10
2.781503606087841
 20
8.94351478460463
 30
0.0
  0
VERTEX
  5
17B
  8
0
 10
2.781503606087841
 20
8.480081236737876
 30
0.0
  0
VERTEX
  5
17C
  8
0
 10
2.380158380669281
 20
8.248364462804501
 30
0.0
  0
SEQEND
  5
6BF
  8
0
  0
POLYLINE
  5
76
  8
0
 66
     1
 10
0.0
 20
0.0
 30
0.0
 70
     1
  0
VERTEX
  5
17D
  8
0
 10
1.461609542865475
 20
9.839325946148094
 30
0.0
  0
VERTEX
  5
17E
  8
0
 10
1.862954768284032
 20
10.07104272008147
 30
0.0
  0
VERTEX
  5
17F
  8
0
 10
2.264299993702592
 20
9.839325946148094
 30
0.0
  0
VERTEX
  5
180
  8
0
 10
2.264299993702592
 20
9.375892398281334
 30
0.0
  0
VERTEX
  5
181
  8
0
 10
1.862954768284032
 20
9.14417562434796
 30
0.0
  0
VERTEX
  5
182
  8
0
 10
1.461609542865475
 20
9.375892398281339
 30
0.0
  0
SEQEND
  5
6C0
  8
0
  0
POLYLINE
  5
77
  8
0
 66
     1
 10
0.0
 20
0.0
 30
0.0
 70
     1
  0
VERTEX
  5
183
  8
0
 10
1.978813155250717
 20
10.27171533279074
 30
0.0
  0
VERTEX
  5
184
  8
0
 10
1.978813155250717
 20
10.7351488806575
 30
0.0
  0
VERTEX
  5
185
  8
0
 10
2.380158380669281
 20
10.96686565459087
 30
0.0
  0
VERTEX
  5
186
  8
0
 10
2.781503606087841
 20
10.7351488806575
 30
0.0
  0
VERTEX
  5
187
  8
0
 10
2.781503606087841
 20
10.27171533279075
 30
0.0
  0
VERTEX
  5
188
  8
0
 10
2.380158380669281
 20
10.03999855885737
 30
0.0
  0
SEQEND
  5
6C1
  8
0
  0
POLYLINE
  5
78
  8
0
 66
     1
 10
0.0
 20
0.0
 30
0.0
 70
     1
  0
VERTEX
  5
189
  8
0
 10
1.461609542865475
 20
11.63096004220096
 30
0.0
  0
VERTEX
  5
18A
  8
0
 10
1.862954768284032
 20
11.86267681613434
 30
0.0
  0
VERTEX
  5
18B
  8
0
 10
2.264299993702599
 20
11.63096004220096
 30
0.0
  0
VERTEX
  5
18C
  8
0
 10
2.264299993702592
 20
11.16752649433421
 30
0.0
  0
VERTEX
  5
18D
  8
0
 10
1.862954768284032
 20
10.93580972040083
 30
0.0
  0
VERTEX
  5
18E
  8
0
 10
1.461609542865475
 20
11.16752649433421
 30
0.0
  0
SEQEND
  5
6C2
  8
0
  0
POLYLINE
  5
79
  8
0
 66
     1
 10
0.0
 20
0.0
 30
0.0
 70
     1
  0
VERTEX
  5
18F
  8
0
 10
1.978813155250717
 20
12.06334942884361
 30
0.0
  0
VERTEX
  5
190
  8
0
 10
1.978813155250717
 20
12.52678297671037
 30
0.0
  0
VERTEX
  5
191
  8
0
 10
2.380158380669281
 20
12.75849975064375
 30
0.0
  0
VERTEX
  5
192
  8
0
 10
2.781503606087841
 20
12.52678297671037
 30
0.0
  0
VERTEX
  5
193
  8
0
 10
2.781503606087841
 20
12.06334942884362
 30
0.0
  0
VERTEX
  5
194
  8
0
 10
2.380158380669281
 20
11.83163265491024
 30
0.0
  0
SEQEND
  5
6C3
  8
0
  0
POLYLINE
  5
7A
  8
0
 66
     1
 10
0.0
 20
0.0
 30
0.0
 70
     1
  0
VERTEX
  5
195
  8
0
 10
1.461609542865475
 20
13.42259413825384
 30
0.0
  0
VERTEX
  5
196
  8
0
 10
1.862954768284032
 20
13.6543109121872
 30
0.0
  0
VERTEX
  5
197
  8
0
 10
2.264299993702592
 20
13.42259413825384
 30
0.0
  0
VERTEX
  5
198
  8
0
 10
2.264299993702592
 20
12.95916059038708
 30
0.0
  0
VERTEX
  5
199
  8
0
 10
1.862954768284032
 20
12.7274438164537
 30
0.0
  0
VERTEX
  5
19A
  8
0
 10
1.461609542865475
 20
12.95916059038708
 30
0.0
  0
SEQEND
  5
6C4
  8
0
  0
POLYLINE
  5
7B
  8
0
 66
     1
 10
0.0
 20
0.0
 30
0.0
 70
     1
  0
VERTEX
  5
19B
  8
0
 10
1.978813155250717
 20
13.85498352489649
 30
0.0
  0
VERTEX
  5
19C
  8
0
 10
1.978813155250717
 20
14.31841707276323
 30
0.0
  0
VERTEX
  5
19D
  8
0
 10
2.380158380669281
 20
14.55013384669662
 30
0.0
  0
VERTEX
  5
19E
  8
0
 10
2.781503606087841
 20
14.31841707276324
 30
0.0
  0
VERTEX
  5
19F
  8
0
 10
2.781503606087841
 20
13.85498352489649
 30
0.0
  0
VERTEX
  5
1A0
  8
0
 10
2.380158380669281
 20
13.62326675096311
 30
0.0
  0
SEQEND
  5
6C5
  8
0
  0
POLYLINE
  5
7C
  8
0
 66
     1
 10
0.0
 20
0.0
 30
0.0
 70
     1
  0
VERTEX
  5
1A1
  8
0
 10
1.461609542865475
 20
15.2142282343067
 30
0.0
  0
VERTEX
  5
1A2
  8
0
 10
1.862954768284032
 20
15.44594500824008
 30
0.0
  0
VERTEX
  5
1A3
  8
0
 10
2.264299993702592
 20
15.2142282343067
 30
0.0
  0
VERTEX
  5
1A4
  8
0
 10
2.264299993702592
 20
14.75079468643995
 30
0.0
  0
VERTEX
  5
1A5
  8
0
 10
1.862954768284032
 20
14.51907791250657
 30
0.0
  0
VERTEX
  5
1A6
  8
0
 10
1.461609542865468
 20
14.75079468643995
 30
0.0
  0
SEQEND
  5
6C6
  8
0
  0
POLYLINE
  5
7D
  8
0
 66
     1
 10
0.0
 20
0.0
 30
0.0
 70
     1
  0
VERTEX
  5
1A7
  8
0
 10
1.978813155250717
 20
15.64661762094935
 30
0.0
  0
VERTEX
  5
1A8
  8
0
 10
1.978813155250717
 20
16.1100511688161
 30
0.0
  0
VERTEX
  5
1A9
  8
0
 10
2.380158380669281
 20
16.34176794274948
 30
0.0
  0
VERTEX
  5
1AA
  8
0
 10
2.781503606087841
 20
16.1100511688161
 30
0.0
  0
VERTEX
  5
1AB
  8
0
 10
2.781503606087841
 20
15.64661762094935
 30
0.0
  0
VERTEX
  5
1AC
  8
0
 10
2.380158380669281
 20
15.41490084701597
 30
0.0
  0
SEQEND
  5
6C7
  8
0
  0
POLYLINE
  5
7E
  8
0
 66
     1
 10
0.0
 20
0.0
 30
0.0
 70
     1
  0
VERTEX
  5
1AD
  8
0
 10
1.461609542865475
 20
17.00586233035957
 30
0.0
  0
VERTEX
  5
1AE
  8
0
 10
1.862954768284032
 20
17.23757910429294
 30
0.0
  0
VERTEX
  5
1AF
  8
0
 10
2.264299993702592
 20
17.00586233035957
 30
0.0
  0
VERTEX
  5
1B0
  8
0
 10
2.264299993702599
 20
16.54242878249281
 30
0.0
  0
VERTEX
  5
1B1
  8
0
 10
1.862954768284032
 20
16.31071200855943
 30
0.0
  0
VERTEX
  5
1B2
  8
0
 10
1.461609542865475
 20
16.54242878249281
 30
0.0
  0
SEQEND
  5
6C8
  8
0
  0
POLYLINE
  5
7F
  8
0
 66
     1
 10
0.0
 20
0.0
 30
0.0
 70
     1
  0
VERTEX
  5
1B3
  8
0
 10
1.978813155250717
 20
17.43825171700222
 30
0.0
  0
VERTEX
  5
1B4
  8
0
 10
1.978813155250717
 20
17.90168526486898
 30
0.0
  0
VERTEX
  5
1B5
  8
0
 10
2.380158380669281
 20
18.13340203880236
 30
0.0
  0
VERTEX
  5
1B6
  8
0
 10
2.781503606087841
 20
17.90168526486898
 30
0.0
  0
VERTEX
  5
1B7
  8
0
 10
2.781503606087841
 20
17.43825171700222
 30
0.0
  0
VERTEX
  5
1B8
  8
0
 10
2.380158380669281
 20
17.20653494306884
 30
0.0
  0
SEQEND
  5
6C9
  8
0
  0
POLYLINE
  5
80
  8
0
 66
     1
 10
0.0
 20
0.0
 30
0.0
 70
     1
  0
VERTEX
  5
1B9
  8
0
 10
1.461609542865475
 20
18.79749642641243
 30
0.0
  0
VERTEX
  5
1BA
  8
0
 10
1.862954768284032
 20
19.02921320034581
 30
0.0
  0
VERTEX
  5
1BB
  8
0
 10
2.264299993702599
 20
18.79749642641243
 30
0.0
  0
VERTEX
  5
1BC
  8
0
 10
2.264299993702592
 20
18.33406287854568
 30
0.0
  0
VERTEX
  5
1BD
  8
0
 10
1.862954768284032
 20
18.10234610461231
 30
0.0
  0
VERTEX
  5
1BE
  8
0
 10
1.461609542865475
 20
18.33406287854568
 30
0.0
  0
SEQEND
  5
6CA
  8
0
  0
POLYLINE
  5
81
  8
0
 66
     1
 10
0.0
 20
0.0
 30
0.0
 70
     1
  0
VERTEX
  5
1BF
  8
0
 10
3.013196834089311
 20
8.480081236737876
 30
0.0
  0
VERTEX
  5
1C0
  8
0
 10
3.013196834089311
 20
8.94351478460463
 30
0.0
  0
VERTEX
  5
1C1
  8
0
 10
3.414542059507879
 20
9.175231558538007
 30
0.0
  0
VERTEX
  5
1C2
  8
0
 10
3.815887284926432
 20
8.943514784604632
 30
0.0
  0
VERTEX
  5
1C3
  8
0
 10
3.815887284926432
 20
8.480081236737876
 30
0.0
  0
VERTEX
  5
1C4
  8
0
 10
3.414542059507871
 20
8.248364462804501
 30
0.0
  0
SEQEND
  5
6CB
  8
0
  0
POLYLINE
  5
82
  8
0
 66
     1
 10
0.0
 20
0.0
 30
0.0
 70
     1
  0
VERTEX
  5
1C5
  8
0
 10
2.495993221704068
 20
9.839325946148094
 30
0.0
  0
VERTEX
  5
1C6
  8
0
 10
2.897338447122622
 20
10.07104272008147
 30
0.0
  0
VERTEX
  5
1C7
  8
0
 10
3.298683672541184
 20
9.839325946148094
 30
0.0
  0
VERTEX
  5
1C8
  8
0
 10
3.298683672541189
 20
9.375892398281339
 30
0.0
  0
VERTEX
  5
1C9
  8
0
 10
2.897338447122622
 20
9.14417562434796
 30
0.0
  0
VERTEX
  5
1CA
  8
0
 10
2.495993221704068
 20
9.375892398281339
 30
0.0
  0
SEQEND
  5
6CC
  8
0
  0
POLYLINE
  5
83
  8
0
 66
     1
 10
0.0
 20
0.0
 30
0.0
 70
     1
  0
VERTEX
  5
1CB
  8
0
 10
3.013196834089311
 20
10.27171533279075
 30
0.0
  0
VERTEX
  5
1CC
  8
0
 10
3.013196834089311
 20
10.7351488806575
 30
0.0
  0
VERTEX
  5
1CD
  8
0
 10
3.414542059507879
 20
10.96686565459088
 30
0.0
  0
VERTEX
  5
1CE
  8
0
 10
3.815887284926432
 20
10.7351488806575
 30
0.0
  0
VERTEX
  5
1CF
  8
0
 10
3.815887284926432
 20
10.27171533279074
 30
0.0
  0
VERTEX
  5
1D0
  8
0
 10
3.414542059507871
 20
10.03999855885737
 30
0.0
  0
SEQEND
  5
6CD
  8
0
  0
POLYLINE
  5
84
  8
0
 66
     1
 10
0.0
 20
0.0
 30
0.0
 70
     1
  0
VERTEX
  5
1D1
  8
0
 10
2.495993221704068
 20
11.63096004220096
 30
0.0
  0
VERTEX
  5
1D2
  8
0
 10
2.897338447122622
 20
11.86267681613434
 30
0.0
  0
VERTEX
  5
1D3
  8
0
 10
3.298683672541189
 20
11.63096004220096
 30
0.0
  0
VERTEX
  5
1D4
  8
0
 10
3.298683672541184
 20
11.1675264943342
 30
0.0
  0
VERTEX
  5
1D5
  8
0
 10
2.897338447122622
 20
10.93580972040083
 30
0.0
  0
VERTEX
  5
1D6
  8
0
 10
2.495993221704068
 20
11.1675264943342
 30
0.0
  0
SEQEND
  5
6CE
  8
0
  0
POLYLINE
  5
85
  8
0
 66
     1
 10
0.0
 20
0.0
 30
0.0
 70
     1
  0
VERTEX
  5
1D7
  8
0
 10
3.013196834089311
 20
12.06334942884362
 30
0.0
  0
VERTEX
  5
1D8
  8
0
 10
3.013196834089317
 20
12.52678297671037
 30
0.0
  0
VERTEX
  5
1D9
  8
0
 10
3.414542059507879
 20
12.75849975064375
 30
0.0
  0
VERTEX
  5
1DA
  8
0
 10
3.815887284926432
 20
12.52678297671037
 30
0.0
  0
VERTEX
  5
1DB
  8
0
 10
3.815887284926432
 20
12.06334942884362
 30
0.0
  0
VERTEX
  5
1DC
  8
0
 10
3.414542059507871
 20
11.83163265491024
 30
0.0
  0
SEQEND
  5
6CF
  8
0
  0
POLYLINE
  5
86
  8
0
 66
     1
 10
0.0
 20
0.0
 30
0.0
 70
     1
  0
VERTEX
  5
1DD
  8
0
 10
2.495993221704068
 20
13.42259413825384
 30
0.0
  0
VERTEX
  5
1DE
  8
0
 10
2.897338447122628
 20
13.6543109121872
 30
0.0
  0
VERTEX
  5
1DF
  8
0
 10
3.298683672541189
 20
13.42259413825384
 30
0.0
  0
VERTEX
  5
1E0
  8
0
 10
3.298683672541184
 20
12.95916059038708
 30
0.0
  0
VERTEX
  5
1E1
  8
0
 10
2.897338447122622
 20
12.7274438164537
 30
0.0
  0
VERTEX
  5
1E2
  8
0
 10
2.495993221704068
 20
12.95916059038708
 30
0.0
  0
SEQEND
  5
6D0
  8
0
  0
POLYLINE
  5
87
  8
0
 66
     1
 10
0.0
 20
0.0
 30
0.0
 70
     1
  0
VERTEX
  5
1E3
  8
0
 10
3.013196834089311
 20
13.85498352489649
 30
0.0
  0
VERTEX
  5
1E4
  8
0
 10
3.013196834089311
 20
14.31841707276324
 30
0.0
  0
VERTEX
  5
1E5
  8
0
 10
3.414542059507879
 20
14.55013384669662
 30
0.0
  0
VERTEX
  5
1E6
  8
0
 10
3.815887284926432
 20
14.31841707276324
 30
0.0
  0
VERTEX
  5
1E7
  8
0
 10
3.815887284926432
 20
13.85498352489649
 30
0.0
  0
VERTEX
  5
1E8
  8
0
 10
3.414542059507871
 20
13.62326675096311
 30
0.0
  0
SEQEND
  5
6D1
  8
0
  0
POLYLINE
  5
88
  8
0
 66
     1
 10
0.0
 20
0.0
 30
0.0
 70
     1
  0
VERTEX
  5
1E9
  8
0
 10
2.495993221704068
 20
15.2142282343067
 30
0.0
  0
VERTEX
  5
1EA
  8
0
 10
2.897338447122622
 20
15.44594500824008
 30
0.0
  0
VERTEX
  5
1EB
  8
0
 10
3.298683672541184
 20
15.2142282343067
 30
0.0
  0
VERTEX
  5
1EC
  8
0
 10
3.298683672541184
 20
14.75079468643995
 30
0.0
  0
VERTEX
  5
1ED
  8
0
 10
2.897338447122622
 20
14.51907791250657
 30
0.0
  0
VERTEX
  5
1EE
  8
0
 10
2.495993221704068
 20
14.75079468643995
 30
0.0
  0
SEQEND
  5
6D2
  8
0
  0
POLYLINE
  5
89
  8
0
 66
     1
 10
0.0
 20
0.0
 30
0.0
 70
     1
  0
VERTEX
  5
1EF
  8
0
 10
3.013196834089311
 20
15.64661762094935
 30
0.0
  0
VERTEX
  5
1F0
  8
0
 10
3.013196834089311
 20
16.1100511688161
 30
0.0
  0
VERTEX
  5
1F1
  8
0
 10
3.414542059507871
 20
16.34176794274948
 30
0.0
  0
VERTEX
  5
1F2
  8
0
 10
3.815887284926432
 20
16.1100511688161
 30
0.0
  0
VERTEX
  5
1F3
  8
0
 10
3.815887284926432
 20
15.64661762094935
 30
0.0
  0
VERTEX
  5
1F4
  8
0
 10
3.414542059507871
 20
15.41490084701598
 30
0.0
  0
SEQEND
  5
6D3
  8
0
  0
POLYLINE
  5
8A
  8
0
 66
     1
 10
0.0
 20
0.0
 30
0.0
 70
     1
  0
VERTEX
  5
1F5
  8
0
 10
2.495993221704068
 20
17.00586233035957
 30
0.0
  0
VERTEX
  5
1F6
  8
0
 10
2.897338447122622
 20
17.23757910429295
 30
0.0
  0
VERTEX
  5
1F7
  8
0
 10
3.298683672541184
 20
17.00586233035957
 30
0.0
  0
VERTEX
  5
1F8
  8
0
 10
3.298683672541189
 20
16.54242878249281
 30
0.0
  0
VERTEX
  5
1F9
  8
0
 10
2.897338447122628
 20
16.31071200855943
 30
0.0
  0
VERTEX
  5
1FA
  8
0
 10
2.495993221704068
 20
16.54242878249281
 30
0.0
  0
SEQEND
  5
6D4
  8
0
  0
POLYLINE
  5
8B
  8
0
 66
     1
 10
0.0
 20
0.0
 30
0.0
 70
     1
  0
VERTEX
  5
1FB
  8
0
 10
3.013196834089317
 20
17.43825171700223
 30
0.0
  0
VERTEX
  5
1FC
  8
0
 10
3.013196834089311
 20
17.90168526486898
 30
0.0
  0
VERTEX
  5
1FD
  8
0
 10
3.414542059507871
 20
18.13340203880236
 30
0.0
  0
VERTEX
  5
1FE
  8
0
 10
3.815887284926432
 20
17.90168526486898
 30
0.0
  0
VERTEX
  5
1FF
  8
0
 10
3.815887284926432
 20
17.43825171700222
 30
0.0
  0
VERTEX
  5
200
  8
0
 10
3.414542059507871
 20
17.20653494306884
 30
0.0
  0
SEQEND
  5
6D5
  8
0
  0
POLYLINE
  5
8C
  8
0
 66
     1
 10
0.0
 20
0.0
 30
0.0
 70
     1
  0
VERTEX
  5
201
  8
0
 10
2.495993221704068
 20
18.79749642641243
 30
0.0
  0
VERTEX
  5
202
  8
0
 10
2.897338447122622
 20
19.02921320034581
 30
0.0
  0
VERTEX
  5
203
  8
0
 10
3.298683672541184
 20
18.79749642641243
 30
0.0
  0
VERTEX
  5
204
  8
0
 10
3.298683672541189
 20
18.33406287854568
 30
0.0
  0
VERTEX
  5
205
  8
0
 10
2.897338447122622
 20
18.10234610461231
 30
0.0
  0
VERTEX
  5
206
  8
0
 10
2.495993221704068
 20
18.33406287854568
 30
0.0
  0
SEQEND
  5
6D6
  8
0
  0
POLYLINE
  5
8D
  8
0
 66
     1
 10
0.0
 20
0.0
 30
0.0
 70
     1
  0
VERTEX
  5
207
  8
0
 10
4.047580512927906
 20
4.896813044632146
 30
0.0
  0
VERTEX
  5
208
  8
0
 10
4.047580512927906
 20
5.360246592498899
 30
0.0
  0
VERTEX
  5
209
  8
0
 10
4.448925738346467
 20
5.591963366432275
 30
0.0
  0
VERTEX
  5
20A
  8
0
 10
4.850270963765029
 20
5.360246592498896
 30
0.0
  0
VERTEX
  5
20B
  8
0
 10
4.850270963765029
 20
4.896813044632138
 30
0.0
  0
VERTEX
  5
20C
  8
0
 10
4.448925738346467
 20
4.665096270698767
 30
0.0
  0
SEQEND
  5
6D7
  8
0
  0
POLYLINE
  5
8E
  8
0
 66
     1
 10
0.0
 20
0.0
 30
0.0
 70
     1
  0
VERTEX
  5
20D
  8
0
 10
4.0475805129279
 20
8.480081236737876
 30
0.0
  0
VERTEX
  5
20E
  8
0
 10
4.047580512927906
 20
8.94351478460463
 30
0.0
  0
VERTEX
  5
20F
  8
0
 10
4.448925738346466
 20
9.175231558538007
 30
0.0
  0
VERTEX
  5
210
  8
0
 10
4.850270963765025
 20
8.943514784604632
 30
0.0
  0
VERTEX
  5
211
  8
0
 10
4.850270963765025
 20
8.480081236737876
 30
0.0
  0
VERTEX
  5
212
  8
0
 10
4.448925738346466
 20
8.248364462804501
 30
0.0
  0
SEQEND
  5
6D8
  8
0
  0
POLYLINE
  5
8F
  8
0
 66
     1
 10
0.0
 20
0.0
 30
0.0
 70
     1
  0
VERTEX
  5
213
  8
0
 10
3.53037690054266
 20
9.839325946148094
 30
0.0
  0
VERTEX
  5
214
  8
0
 10
3.931722125961223
 20
10.07104272008147
 30
0.0
  0
VERTEX
  5
215
  8
0
 10
4.333067351379774
 20
9.839325946148094
 30
0.0
  0
VERTEX
  5
216
  8
0
 10
4.333067351379778
 20
9.375892398281339
 30
0.0
  0
VERTEX
  5
217
  8
0
 10
3.931722125961223
 20
9.14417562434796
 30
0.0
  0
VERTEX
  5
218
  8
0
 10
3.53037690054266
 20
9.375892398281339
 30
0.0
  0
SEQEND
  5
6D9
  8
0
  0
POLYLINE
  5
90
  8
0
 66
     1
 10
0.0
 20
0.0
 30
0.0
 70
     1
  0
VERTEX
  5
219
  8
0
 10
3.53037690054266
 20
15.2142282343067
 30
0.0
  0
VERTEX
  5
21A
  8
0
 10
3.931722125961223
 20
15.44594500824008
 30
0.0
  0
VERTEX
  5
21B
  8
0
 10
4.333067351379778
 20
15.2142282343067
 30
0.0
  0
VERTEX
  5
21C
  8
0
 10
4.333067351379774
 20
14.75079468643995
 30
0.0
  0
VERTEX
  5
21D
  8
0
 10
3.931722125961215
 20
14.51907791250657
 30
0.0
  0
VERTEX
  5
21E
  8
0
 10
3.53037690054266
 20
14.75079468643995
 30
0.0
  0
SEQEND
  5
6DA
  8
0
  0
POLYLINE
  5
91
  8
0
 66
     1
 10
0.0
 20
0.0
 30
0.0
 70
     1
  0
VERTEX
  5
21F
  8
0
 10
4.0475805129279
 20
15.64661762094935
 30
0.0
  0
VERTEX
  5
220
  8
0
 10
4.047580512927906
 20
16.1100511688161
 30
0.0
  0
VERTEX
  5
221
  8
0
 10
4.448925738346466
 20
16.34176794274948
 30
0.0
  0
VERTEX
  5
222
  8
0
 10
4.850270963765025
 20
16.1100511688161
 30
0.0
  0
VERTEX
  5
223
  8
0
 10
4.850270963765025
 20
15.64661762094935
 30
0.0
  0
VERTEX
  5
224
  8
0
 10
4.448925738346466
 20
15.41490084701597
 30
0.0
  0
SEQEND
  5
6DB
  8
0
  0
POLYLINE
  5
92
  8
0
 66
     1
 10
0.0
 20
0.0
 30
0.0
 70
     1
  0
VERTEX
  5
225
  8
0
 10
3.53037690054266
 20
17.00586233035957
 30
0.0
  0
VERTEX
  5
226
  8
0
 10
3.931722125961223
 20
17.23757910429294
 30
0.0
  0
VERTEX
  5
227
  8
0
 10
4.333067351379774
 20
17.00586233035957
 30
0.0
  0
VERTEX
  5
228
  8
0
 10
4.333067351379778
 20
16.54242878249281
 30
0.0
  0
VERTEX
  5
229
  8
0
 10
3.931722125961223
 20
16.31071200855943
 30
0.0
  0
VERTEX
  5
22A
  8
0
 10
3.53037690054266
 20
16.54242878249281
 30
0.0
  0
SEQEND
  5
6DC
  8
0
  0
POLYLINE
  5
93
  8
0
 66
     1
 10
0.0
 20
0.0
 30
0.0
 70
     1
  0
VERTEX
  5
22B
  8
0
 10
4.047580512927906
 20
17.43825171700223
 30
0.0
  0
VERTEX
  5
22C
  8
0
 10
4.047580512927906
 20
17.90168526486898
 30
0.0
  0
VERTEX
  5
22D
  8
0
 10
4.448925738346466
 20
18.13340203880236
 30
0.0
  0
VERTEX
  5
22E
  8
0
 10
4.850270963765025
 20
17.90168526486898
 30
0.0
  0
VERTEX
  5
22F
  8
0
 10
4.850270963765029
 20
17.43825171700222
 30
0.0
  0
VERTEX
  5
230
  8
0
 10
4.448925738346466
 20
17.20653494306884
 30
0.0
  0
SEQEND
  5
6DD
  8
0
  0
POLYLINE
  5
94
  8
0
 66
     1
 10
0.0
 20
0.0
 30
0.0
 70
     1
  0
VERTEX
  5
231
  8
0
 10
3.53037690054266
 20
18.79749642641243
 30
0.0
  0
VERTEX
  5
232
  8
0
 10
3.931722125961223
 20
19.02921320034581
 30
0.0
  0
VERTEX
  5
233
  8
0
 10
4.333067351379778
 20
18.79749642641243
 30
0.0
  0
VERTEX
  5
234
  8
0
 10
4.333067351379778
 20
18.33406287854568
 30
0.0
  0
VERTEX
  5
235
  8
0
 10
3.931722125961223
 20
18.10234610461231
 30
0.0
  0
VERTEX
  5
236
  8
0
 10
3.53037690054266
 20
18.33406287854568
 30
0.0
  0
SEQEND
  5
6DE
  8
0
  0
POLYLINE
  5
95
  8
0
 66
     1
 10
0.0
 20
0.0
 30
0.0
 70
     1
  0
VERTEX
  5
237
  8
0
 10
4.564760579381252
 20
4.464423657989487
 30
0.0
  0
VERTEX
  5
238
  8
0
 10
4.966105804799815
 20
4.696140431922871
 30
0.0
  0
VERTEX
  5
239
  8
0
 10
5.367451030218373
 20
4.464423657989491
 30
0.0
  0
VERTEX
  5
23A
  8
0
 10
5.367451030218373
 20
4.000990110122738
 30
0.0
  0
VERTEX
  5
23B
  8
0
 10
4.966105804799815
 20
3.769273336189363
 30
0.0
  0
VERTEX
  5
23C
  8
0
 10
4.564760579381252
 20
4.000990110122738
 30
0.0
  0
SEQEND
  5
6DF
  8
0
  0
POLYLINE
  5
96
  8
0
 66
     1
 10
0.0
 20
0.0
 30
0.0
 70
     1
  0
VERTEX
  5
23D
  8
0
 10
5.081964191766501
 20
4.896813044632146
 30
0.0
  0
VERTEX
  5
23E
  8
0
 10
5.081964191766501
 20
5.360246592498899
 30
0.0
  0
VERTEX
  5
23F
  8
0
 10
5.483309417185062
 20
5.591963366432273
 30
0.0
  0
VERTEX
  5
240
  8
0
 10
5.884654642603623
 20
5.360246592498896
 30
0.0
  0
VERTEX
  5
241
  8
0
 10
5.884654642603623
 20
4.896813044632138
 30
0.0
  0
VERTEX
  5
242
  8
0
 10
5.483309417185059
 20
4.665096270698763
 30
0.0
  0
SEQEND
  5
6E0
  8
0
  0
POLYLINE
  5
97
  8
0
 66
     1
 10
0.0
 20
0.0
 30
0.0
 70
     1
  0
VERTEX
  5
243
  8
0
 10
5.081964191766497
 20
8.480081236737876
 30
0.0
  0
VERTEX
  5
244
  8
0
 10
5.081964191766501
 20
8.943514784604632
 30
0.0
  0
VERTEX
  5
245
  8
0
 10
5.483309417185062
 20
9.175231558538007
 30
0.0
  0
VERTEX
  5
246
  8
0
 10
5.884654642603619
 20
8.943514784604623
 30
0.0
  0
VERTEX
  5
247
  8
0
 10
5.884654642603619
 20
8.480081236737876
 30
0.0
  0
VERTEX
  5
248
  8
0
 10
5.483309417185059
 20
8.248364462804501
 30
0.0
  0
SEQEND
  5
6E1
  8
0
  0
POLYLINE
  5
98
  8
0
 66
     1
 10
0.0
 20
0.0
 30
0.0
 70
     1
  0
VERTEX
  5
249
  8
0
 10
4.564760579381252
 20
15.2142282343067
 30
0.0
  0
VERTEX
  5
24A
  8
0
 10
4.966105804799814
 20
15.44594500824008
 30
0.0
  0
VERTEX
  5
24B
  8
0
 10
5.36745103021837
 20
15.2142282343067
 30
0.0
  0
VERTEX
  5
24C
  8
0
 10
5.36745103021837
 20
14.75079468643995
 30
0.0
  0
VERTEX
  5
24D
  8
0
 10
4.966105804799815
 20
14.51907791250657
 30
0.0
  0
VERTEX
  5
24E
  8
0
 10
4.564760579381252
 20
14.75079468643995
 30
0.0
  0
SEQEND
  5
6E2
  8
0
  0
POLYLINE
  5
99
  8
0
 66
     1
 10
0.0
 20
0.0
 30
0.0
 70
     1
  0
VERTEX
  5
24F
  8
0
 10
5.081964191766497
 20
15.64661762094935
 30
0.0
  0
VERTEX
  5
250
  8
0
 10
5.081964191766501
 20
16.1100511688161
 30
0.0
  0
VERTEX
  5
251
  8
0
 10
5.483309417185062
 20
16.34176794274948
 30
0.0
  0
VERTEX
  5
252
  8
0
 10
5.884654642603623
 20
16.1100511688161
 30
0.0
  0
VERTEX
  5
253
  8
0
 10
5.884654642603619
 20
15.64661762094935
 30
0.0
  0
VERTEX
  5
254
  8
0
 10
5.483309417185059
 20
15.41490084701598
 30
0.0
  0
SEQEND
  5
6E3
  8
0
  0
POLYLINE
  5
9A
  8
0
 66
     1
 10
0.0
 20
0.0
 30
0.0
 70
     1
  0
VERTEX
  5
255
  8
0
 10
4.564760579381252
 20
17.00586233035957
 30
0.0
  0
VERTEX
  5
256
  8
0
 10
4.966105804799814
 20
17.23757910429295
 30
0.0
  0
VERTEX
  5
257
  8
0
 10
5.36745103021837
 20
17.00586233035957
 30
0.0
  0
VERTEX
  5
258
  8
0
 10
5.36745103021837
 20
16.54242878249281
 30
0.0
  0
VERTEX
  5
259
  8
0
 10
4.966105804799815
 20
16.31071200855943
 30
0.0
  0
VERTEX
  5
25A
  8
0
 10
4.564760579381252
 20
16.54242878249281
 30
0.0
  0
SEQEND
  5
6E4
  8
0
  0
POLYLINE
  5
9B
  8
0
 66
     1
 10
0.0
 20
0.0
 30
0.0
 70
     1
  0
VERTEX
  5
25B
  8
0
 10
5.081964191766501
 20
17.43825171700222
 30
0.0
  0
VERTEX
  5
25C
  8
0
 10
5.081964191766501
 20
17.90168526486898
 30
0.0
  0
VERTEX
  5
25D
  8
0
 10
5.483309417185062
 20
18.13340203880236
 30
0.0
  0
VERTEX
  5
25E
  8
0
 10
5.884654642603623
 20
17.90168526486898
 30
0.0
  0
VERTEX
  5
25F
  8
0
 10
5.884654642603623
 20
17.43825171700222
 30
0.0
  0
VERTEX
  5
260
  8
0
 10
5.483309417185059
 20
17.20653494306884
 30
0.0
  0
SEQEND
  5
6E5
  8
0
  0
POLYLINE
  5
9C
  8
0
 66
     1
 10
0.0
 20
0.0
 30
0.0
 70
     1
  0
VERTEX
  5
261
  8
0
 10
4.564760579381252
 20
18.79749642641243
 30
0.0
  0
VERTEX
  5
262
  8
0
 10
4.966105804799814
 20
19.02921320034581
 30
0.0
  0
VERTEX
  5
263
  8
0
 10
5.36745103021837
 20
18.79749642641243
 30
0.0
  0
VERTEX
  5
264
  8
0
 10
5.36745103021837
 20
18.33406287854568
 30
0.0
  0
VERTEX
  5
265
  8
0
 10
4.966105804799815
 20
18.10234610461231
 30
0.0
  0
VERTEX
  5
266
  8
0
 10
4.564760579381252
 20
18.33406287854568
 30
0.0
  0
SEQEND
  5
6E6
  8
0
  0
POLYLINE
  5
9D
  8
0
 66
     1
 10
0.0
 20
0.0
 30
0.0
 70
     1
  0
VERTEX
  5
267
  8
0
 10
5.599144258219845
 20
4.46442365798949
 30
0.0
  0
VERTEX
  5
268
  8
0
 10
6.000489483638403
 20
4.696140431922862
 30
0.0
  0
VERTEX
  5
269
  8
0
 10
6.401834709056964
 20
4.464423657989491
 30
0.0
  0
VERTEX
  5
26A
  8
0
 10
6.401834709056964
 20
4.000990110122744
 30
0.0
  0
VERTEX
  5
26B
  8
0
 10
6.000489483638408
 20
3.769273336189363
 30
0.0
  0
VERTEX
  5
26C
  8
0
 10
5.599144258219846
 20
4.000990110122731
 30
0.0
  0
SEQEND
  5
6E7
  8
0
  0
POLYLINE
  5
9E
  8
0
 66
     1
 10
0.0
 20
0.0
 30
0.0
 70
     1
  0
VERTEX
  5
26D
  8
0
 10
6.116347870605097
 20
4.896813044632149
 30
0.0
  0
VERTEX
  5
26E
  8
0
 10
6.116347870605097
 20
5.360246592498897
 30
0.0
  0
VERTEX
  5
26F
  8
0
 10
6.517693096023655
 20
5.591963366432276
 30
0.0
  0
VERTEX
  5
270
  8
0
 10
6.919038321442219
 20
5.360246592498902
 30
0.0
  0
VERTEX
  5
271
  8
0
 10
6.919038321442219
 20
4.896813044632142
 30
0.0
  0
VERTEX
  5
272
  8
0
 10
6.517693096023655
 20
4.66509627069877
 30
0.0
  0
SEQEND
  5
6E8
  8
0
  0
POLYLINE
  5
9F
  8
0
 66
     1
 10
0.0
 20
0.0
 30
0.0
 70
     1
  0
VERTEX
  5
273
  8
0
 10
6.116347870605088
 20
15.64661762094935
 30
0.0
  0
VERTEX
  5
274
  8
0
 10
6.116347870605097
 20
16.1100511688161
 30
0.0
  0
VERTEX
  5
275
  8
0
 10
6.517693096023655
 20
16.34176794274948
 30
0.0
  0
VERTEX
  5
276
  8
0
 10
6.919038321442219
 20
16.1100511688161
 30
0.0
  0
VERTEX
  5
277
  8
0
 10
6.919038321442212
 20
15.64661762094935
 30
0.0
  0
VERTEX
  5
278
  8
0
 10
6.517693096023646
 20
15.41490084701597
 30
0.0
  0
SEQEND
  5
6E9
  8
0
  0
POLYLINE
  5
A0
  8
0
 66
     1
 10
0.0
 20
0.0
 30
0.0
 70
     1
  0
VERTEX
  5
279
  8
0
 10
5.599144258219845
 20
17.00586233035957
 30
0.0
  0
VERTEX
  5
27A
  8
0
 10
6.000489483638403
 20
17.23757910429294
 30
0.0
  0
VERTEX
  5
27B
  8
0
 10
6.401834709056964
 20
17.00586233035957
 30
0.0
  0
VERTEX
  5
27C
  8
0
 10
6.401834709056964
 20
16.54242878249281
 30
0.0
  0
VERTEX
  5
27D
  8
0
 10
6.000489483638403
 20
16.31071200855943
 30
0.0
  0
VERTEX
  5
27E
  8
0
 10
5.599144258219845
 20
16.54242878249281
 30
0.0
  0
SEQEND
  5
6EA
  8
0
  0
POLYLINE
  5
A1
  8
0
 66
     1
 10
0.0
 20
0.0
 30
0.0
 70
     1
  0
VERTEX
  5
27F
  8
0
 10
6.116347870605097
 20
17.43825171700223
 30
0.0
  0
VERTEX
  5
280
  8
0
 10
6.116347870605097
 20
17.90168526486898
 30
0.0
  0
VERTEX
  5
281
  8
0
 10
6.517693096023655
 20
18.13340203880236
 30
0.0
  0
VERTEX
  5
282
  8
0
 10
6.919038321442219
 20
17.90168526486898
 30
0.0
  0
VERTEX
  5
283
  8
0
 10
6.919038321442219
 20
17.43825171700222
 30
0.0
  0
VERTEX
  5
284
  8
0
 10
6.517693096023646
 20
17.20653494306884
 30
0.0
  0
SEQEND
  5
6EB
  8
0
  0
POLYLINE
  5
A2
  8
0
 66
     1
 10
0.0
 20
0.0
 30
0.0
 70
     1
  0
VERTEX
  5
285
  8
0
 10
5.599144258219845
 20
18.79749642641243
 30
0.0
  0
VERTEX
  5
286
  8
0
 10
6.000489483638403
 20
19.02921320034581
 30
0.0
  0
VERTEX
  5
287
  8
0
 10
6.401834709056964
 20
18.79749642641243
 30
0.0
  0
VERTEX
  5
288
  8
0
 10
6.401834709056964
 20
18.33406287854568
 30
0.0
  0
VERTEX
  5
289
  8
0
 10
6.000489483638403
 20
18.10234610461231
 30
0.0
  0
VERTEX
  5
28A
  8
0
 10
5.599144258219845
 20
18.33406287854568
 30
0.0
  0
SEQEND
  5
6EC
  8
0
  0
POLYLINE
  5
A3
  8
0
 66
     1
 10
0.0
 20
0.0
 30
0.0
 70
     1
  0
VERTEX
  5
28B
  8
0
 10
6.633527937058441
 20
4.464423657989491
 30
0.0
  0
VERTEX
  5
28C
  8
0
 10
7.034873162477004
 20
4.696140431922865
 30
0.0
  0
VERTEX
  5
28D
  8
0
 10
7.436218387895562
 20
4.46442365798949
 30
0.0
  0
VERTEX
  5
28E
  8
0
 10
7.436218387895558
 20
4.000990110122744
 30
0.0
  0
VERTEX
  5
28F
  8
0
 10
7.034873162477004
 20
3.769273336189363
 30
0.0
  0
VERTEX
  5
290
  8
0
 10
6.633527937058438
 20
4.000990110122733
 30
0.0
  0
SEQEND
  5
6ED
  8
0
  0
POLYLINE
  5
A4
  8
0
 66
     1
 10
0.0
 20
0.0
 30
0.0
 70
     1
  0
VERTEX
  5
291
  8
0
 10
7.150731549443686
 20
4.896813044632146
 30
0.0
  0
VERTEX
  5
292
  8
0
 10
7.150731549443686
 20
5.360246592498897
 30
0.0
  0
VERTEX
  5
293
  8
0
 10
7.552076774862247
 20
5.591963366432276
 30
0.0
  0
VERTEX
  5
294
  8
0
 10
7.953422000280806
 20
5.360246592498902
 30
0.0
  0
VERTEX
  5
295
  8
0
 10
7.953422000280806
 20
4.896813044632142
 30
0.0
  0
VERTEX
  5
296
  8
0
 10
7.552076774862247
 20
4.665096270698774
 30
0.0
  0
SEQEND
  5
6EE
  8
0
  0
POLYLINE
  5
A5
  8
0
 66
     1
 10
0.0
 20
0.0
 30
0.0
 70
     1
  0
VERTEX
  5
297
  8
0
 10
7.150731549443686
 20
8.48008123673788
 30
0.0
  0
VERTEX
  5
298
  8
0
 10
7.150731549443686
 20
8.94351478460463
 30
0.0
  0
VERTEX
  5
299
  8
0
 10
7.552076774862247
 20
9.175231558538014
 30
0.0
  0
VERTEX
  5
29A
  8
0
 10
7.953422000280806
 20
8.94351478460463
 30
0.0
  0
VERTEX
  5
29B
  8
0
 10
7.953422000280806
 20
8.48008123673788
 30
0.0
  0
VERTEX
  5
29C
  8
0
 10
7.552076774862241
 20
8.248364462804501
 30
0.0
  0
SEQEND
  5
6EF
  8
0
  0
POLYLINE
  5
A6
  8
0
 66
     1
 10
0.0
 20
0.0
 30
0.0
 70
     1
  0
VERTEX
  5
29D
  8
0
 10
7.150731549443686
 20
15.64661762094935
 30
0.0
  0
VERTEX
  5
29E
  8
0
 10
7.150731549443686
 20
16.1100511688161
 30
0.0
  0
VERTEX
  5
29F
  8
0
 10
7.552076774862247
 20
16.34176794274948
 30
0.0
  0
VERTEX
  5
2A0
  8
0
 10
7.953422000280806
 20
16.1100511688161
 30
0.0
  0
VERTEX
  5
2A1
  8
0
 10
7.953422000280806
 20
15.64661762094935
 30
0.0
  0
VERTEX
  5
2A2
  8
0
 10
7.552076774862247
 20
15.41490084701598
 30
0.0
  0
SEQEND
  5
6F0
  8
0
  0
POLYLINE
  5
A7
  8
0
 66
     1
 10
0.0
 20
0.0
 30
0.0
 70
     1
  0
VERTEX
  5
2A3
  8
0
 10
6.633527937058438
 20
17.00586233035957
 30
0.0
  0
VERTEX
  5
2A4
  8
0
 10
7.034873162476995
 20
17.23757910429295
 30
0.0
  0
VERTEX
  5
2A5
  8
0
 10
7.436218387895558
 20
17.00586233035957
 30
0.0
  0
VERTEX
  5
2A6
  8
0
 10
7.436218387895558
 20
16.54242878249281
 30
0.0
  0
VERTEX
  5
2A7
  8
0
 10
7.034873162476995
 20
16.31071200855943
 30
0.0
  0
VERTEX
  5
2A8
  8
0
 10
6.633527937058438
 20
16.54242878249281
 30
0.0
  0
SEQEND
  5
6F1
  8
0
  0
POLYLINE
  5
A8
  8
0
 66
     1
 10
0.0
 20
0.0
 30
0.0
 70
     1
  0
VERTEX
  5
2A9
  8
0
 10
7.150731549443686
 20
17.43825171700223
 30
0.0
  0
VERTEX
  5
2AA
  8
0
 10
7.150731549443686
 20
17.90168526486898
 30
0.0
  0
VERTEX
  5
2AB
  8
0
 10
7.552076774862247
 20
18.13340203880236
 30
0.0
  0
VERTEX
  5
2AC
  8
0
 10
7.953422000280806
 20
17.90168526486898
 30
0.0
  0
VERTEX
  5
2AD
  8
0
 10
7.953422000280806
 20
17.43825171700222
 30
0.0
  0
VERTEX
  5
2AE
  8
0
 10
7.552076774862247
 20
17.20653494306884
 30
0.0
  0
SEQEND
  5
6F2
  8
0
  0
POLYLINE
  5
A9
  8
0
 66
     1
 10
0.0
 20
0.0
 30
0.0
 70
     1
  0
VERTEX
  5
2AF
  8
0
 10
6.633527937058438
 20
18.79749642641243
 30
0.0
  0
VERTEX
  5
2B0
  8
0
 10
7.034873162476995
 20
19.02921320034581
 30
0.0
  0
VERTEX
  5
2B1
  8
0
 10
7.436218387895558
 20
18.79749642641243
 30
0.0
  0
VERTEX
  5
2B2
  8
0
 10
7.436218387895558
 20
18.33406287854568
 30
0.0
  0
VERTEX
  5
2B3
  8
0
 10
7.034873162476995
 20
18.10234610461231
 30
0.0
  0
VERTEX
  5
2B4
  8
0
 10
6.633527937058438
 20
18.33406287854568
 30
0.0
  0
SEQEND
  5
6F3
  8
0
  0
POLYLINE
  5
AA
  8
0
 66
     1
 10
0.0
 20
0.0
 30
0.0
 70
     1
  0
VERTEX
  5
2B5
  8
0
 10
7.667911615897037
 20
4.464423657989491
 30
0.0
  0
VERTEX
  5
2B6
  8
0
 10
8.069256841315598
 20
4.696140431922868
 30
0.0
  0
VERTEX
  5
2B7
  8
0
 10
8.470602066734147
 20
4.464423657989491
 30
0.0
  0
VERTEX
  5
2B8
  8
0
 10
8.470602066734147
 20
4.000990110122737
 30
0.0
  0
VERTEX
  5
2B9
  8
0
 10
8.069256841315598
 20
3.769273336189363
 30
0.0
  0
VERTEX
  5
2BA
  8
0
 10
7.667911615897028
 20
4.000990110122737
 30
0.0
  0
SEQEND
  5
6F4
  8
0
  0
POLYLINE
  5
AB
  8
0
 66
     1
 10
0.0
 20
0.0
 30
0.0
 70
     1
  0
VERTEX
  5
2BB
  8
0
 10
8.185115228282275
 20
4.896813044632146
 30
0.0
  0
VERTEX
  5
2BC
  8
0
 10
8.18511522828228
 20
5.360246592498902
 30
0.0
  0
VERTEX
  5
2BD
  8
0
 10
8.586460453700845
 20
5.591963366432273
 30
0.0
  0
VERTEX
  5
2BE
  8
0
 10
8.987805679119397
 20
5.360246592498894
 30
0.0
  0
VERTEX
  5
2BF
  8
0
 10
8.987805679119399
 20
4.896813044632142
 30
0.0
  0
VERTEX
  5
2C0
  8
0
 10
8.586460453700841
 20
4.665096270698767
 30
0.0
  0
SEQEND
  5
6F5
  8
0
  0
POLYLINE
  5
AC
  8
0
 66
     1
 10
0.0
 20
0.0
 30
0.0
 70
     1
  0
VERTEX
  5
2C1
  8
0
 10
8.185115228282283
 20
8.48008123673788
 30
0.0
  0
VERTEX
  5
2C2
  8
0
 10
8.18511522828228
 20
8.943514784604632
 30
0.0
  0
VERTEX
  5
2C3
  8
0
 10
8.586460453700845
 20
9.175231558538014
 30
0.0
  0
VERTEX
  5
2C4
  8
0
 10
8.987805679119399
 20
8.94351478460463
 30
0.0
  0
VERTEX
  5
2C5
  8
0
 10
8.987805679119399
 20
8.48008123673788
 30
0.0
  0
VERTEX
  5
2C6
  8
0
 10
8.586460453700841
 20
8.248364462804501
 30
0.0
  0
SEQEND
  5
6F6
  8
0
  0
POLYLINE
  5
AD
  8
0
 66
     1
 10
0.0
 20
0.0
 30
0.0
 70
     1
  0
VERTEX
  5
2C7
  8
0
 10
7.667911615897028
 20
15.2142282343067
 30
0.0
  0
VERTEX
  5
2C8
  8
0
 10
8.06925684131559
 20
15.44594500824008
 30
0.0
  0
VERTEX
  5
2C9
  8
0
 10
8.470602066734147
 20
15.2142282343067
 30
0.0
  0
VERTEX
  5
2CA
  8
0
 10
8.470602066734147
 20
14.75079468643995
 30
0.0
  0
VERTEX
  5
2CB
  8
0
 10
8.069256841315598
 20
14.51907791250657
 30
0.0
  0
VERTEX
  5
2CC
  8
0
 10
7.667911615897037
 20
14.75079468643995
 30
0.0
  0
SEQEND
  5
6F7
  8
0
  0
POLYLINE
  5
AE
  8
0
 66
     1
 10
0.0
 20
0.0
 30
0.0
 70
     1
  0
VERTEX
  5
2CD
  8
0
 10
8.185115228282283
 20
15.64661762094935
 30
0.0
  0
VERTEX
  5
2CE
  8
0
 10
8.18511522828228
 20
16.1100511688161
 30
0.0
  0
VERTEX
  5
2CF
  8
0
 10
8.586460453700845
 20
16.34176794274948
 30
0.0
  0
VERTEX
  5
2D0
  8
0
 10
8.987805679119399
 20
16.1100511688161
 30
0.0
  0
VERTEX
  5
2D1
  8
0
 10
8.987805679119399
 20
15.64661762094935
 30
0.0
  0
VERTEX
  5
2D2
  8
0
 10
8.586460453700841
 20
15.41490084701597
 30
0.0
  0
SEQEND
  5
6F8
  8
0
  0
POLYLINE
  5
AF
  8
0
 66
     1
 10
0.0
 20
0.0
 30
0.0
 70
     1
  0
VERTEX
  5
2D3
  8
0
 10
7.667911615897032
 20
17.00586233035957
 30
0.0
  0
VERTEX
  5
2D4
  8
0
 10
8.06925684131559
 20
17.23757910429294
 30
0.0
  0
VERTEX
  5
2D5
  8
0
 10
8.470602066734147
 20
17.00586233035957
 30
0.0
  0
VERTEX
  5
2D6
  8
0
 10
8.470602066734147
 20
16.54242878249281
 30
0.0
  0
VERTEX
  5
2D7
  8
0
 10
8.06925684131559
 20
16.31071200855943
 30
0.0
  0
VERTEX
  5
2D8
  8
0
 10
7.667911615897037
 20
16.54242878249281
 30
0.0
  0
SEQEND
  5
6F9
  8
0
  0
POLYLINE
  5
B0
  8
0
 66
     1
 10
0.0
 20
0.0
 30
0.0
 70
     1
  0
VERTEX
  5
2D9
  8
0
 10
8.18511522828228
 20
17.43825171700223
 30
0.0
  0
VERTEX
  5
2DA
  8
0
 10
8.18511522828228
 20
17.90168526486898
 30
0.0
  0
VERTEX
  5
2DB
  8
0
 10
8.586460453700845
 20
18.13340203880236
 30
0.0
  0
VERTEX
  5
2DC
  8
0
 10
8.987805679119399
 20
17.90168526486898
 30
0.0
  0
VERTEX
  5
2DD
  8
0
 10
8.987805679119399
 20
17.43825171700222
 30
0.0
  0
VERTEX
  5
2DE
  8
0
 10
8.586460453700841
 20
17.20653494306884
 30
0.0
  0
SEQEND
  5
6FA
  8
0
  0
POLYLINE
  5
B1
  8
0
 66
     1
 10
0.0
 20
0.0
 30
0.0
 70
     1
  0
VERTEX
  5
2DF
  8
0
 10
7.667911615897032
 20
18.79749642641243
 30
0.0
  0
VERTEX
  5
2E0
  8
0
 10
8.069256841315598
 20
19.02921320034581
 30
0.0
  0
VERTEX
  5
2E1
  8
0
 10
8.470602066734147
 20
18.79749642641243
 30
0.0
  0
VERTEX
  5
2E2
  8
0
 10
8.470602066734147
 20
18.33406287854568
 30
0.0
  0
VERTEX
  5
2E3
  8
0
 10
8.06925684131559
 20
18.1023461046123
 30
0.0
  0
VERTEX
  5
2E4
  8
0
 10
7.667911615897037
 20
18.33406287854568
 30
0.0
  0
SEQEND
  5
6FB
  8
0
  0
POLYLINE
  5
B2
  8
0
 66
     1
 10
0.0
 20
0.0
 30
0.0
 70
     1
  0
VERTEX
  5
2E5
  8
0
 10
8.702295294735622
 20
4.464423657989491
 30
0.0
  0
VERTEX
  5
2E6
  8
0
 10
9.103640520154185
 20
4.696140431922868
 30
0.0
  0
VERTEX
  5
2E7
  8
0
 10
9.504985745572748
 20
4.464423657989491
 30
0.0
  0
VERTEX
  5
2E8
  8
0
 10
9.504985745572741
 20
4.00099011012274
 30
0.0
  0
VERTEX
  5
2E9
  8
0
 10
9.103640520154185
 20
3.76927333618936
 30
0.0
  0
VERTEX
  5
2EA
  8
0
 10
8.702295294735626
 20
4.000990110122737
 30
0.0
  0
SEQEND
  5
6FC
  8
0
  0
POLYLINE
  5
B3
  8
0
 66
     1
 10
0.0
 20
0.0
 30
0.0
 70
     1
  0
VERTEX
  5
2EB
  8
0
 10
9.21949890712087
 20
8.48008123673788
 30
0.0
  0
VERTEX
  5
2EC
  8
0
 10
9.219498907120874
 20
8.94351478460463
 30
0.0
  0
VERTEX
  5
2ED
  8
0
 10
9.62084413253943
 20
9.175231558538014
 30
0.0
  0
VERTEX
  5
2EE
  8
0
 10
10.02218935795799
 20
8.943514784604632
 30
0.0
  0
VERTEX
  5
2EF
  8
0
 10
10.02218935795799
 20
8.48008123673788
 30
0.0
  0
VERTEX
  5
2F0
  8
0
 10
9.62084413253943
 20
8.248364462804501
 30
0.0
  0
SEQEND
  5
6FD
  8
0
  0
POLYLINE
  5
B4
  8
0
 66
     1
 10
0.0
 20
0.0
 30
0.0
 70
     1
  0
VERTEX
  5
2F1
  8
0
 10
8.702295294735631
 20
9.839325946148094
 30
0.0
  0
VERTEX
  5
2F2
  8
0
 10
9.103640520154185
 20
10.07104272008147
 30
0.0
  0
VERTEX
  5
2F3
  8
0
 10
9.504985745572748
 20
9.839325946148094
 30
0.0
  0
VERTEX
  5
2F4
  8
0
 10
9.50498574557275
 20
9.375892398281339
 30
0.0
  0
VERTEX
  5
2F5
  8
0
 10
9.103640520154185
 20
9.144175624347966
 30
0.0
  0
VERTEX
  5
2F6
  8
0
 10
8.702295294735622
 20
9.375892398281339
 30
0.0
  0
SEQEND
  5
6FE
  8
0
  0
POLYLINE
  5
B5
  8
0
 66
     1
 10
0.0
 20
0.0
 30
0.0
 70
     1
  0
VERTEX
  5
2F7
  8
0
 10
9.21949890712087
 20
13.85498352489649
 30
0.0
  0
VERTEX
  5
2F8
  8
0
 10
9.219498907120874
 20
14.31841707276324
 30
0.0
  0
VERTEX
  5
2F9
  8
0
 10
9.62084413253943
 20
14.55013384669662
 30
0.0
  0
VERTEX
  5
2FA
  8
0
 10
10.02218935795799
 20
14.31841707276324
 30
0.0
  0
VERTEX
  5
2FB
  8
0
 10
10.02218935795799
 20
13.85498352489649
 30
0.0
  0
VERTEX
  5
2FC
  8
0
 10
9.620844132539435
 20
13.62326675096311
 30
0.0
  0
SEQEND
  5
6FF
  8
0
  0
POLYLINE
  5
B6
  8
0
 66
     1
 10
0.0
 20
0.0
 30
0.0
 70
     1
  0
VERTEX
  5
2FD
  8
0
 10
8.702295294735626
 20
15.2142282343067
 30
0.0
  0
VERTEX
  5
2FE
  8
0
 10
9.103640520154185
 20
15.44594500824008
 30
0.0
  0
VERTEX
  5
2FF
  8
0
 10
9.504985745572741
 20
15.2142282343067
 30
0.0
  0
VERTEX
  5
300
  8
0
 10
9.504985745572748
 20
14.75079468643995
 30
0.0
  0
VERTEX
  5
301
  8
0
 10
9.103640520154185
 20
14.51907791250657
 30
0.0
  0
VERTEX
  5
302
  8
0
 10
8.702295294735622
 20
14.75079468643995
 30
0.0
  0
SEQEND
  5
700
  8
0
  0
POLYLINE
  5
B7
  8
0
 66
     1
 10
0.0
 20
0.0
 30
0.0
 70
     1
  0
VERTEX
  5
303
  8
0
 10
9.21949890712087
 20
15.64661762094935
 30
0.0
  0
VERTEX
  5
304
  8
0
 10
9.219498907120874
 20
16.1100511688161
 30
0.0
  0
VERTEX
  5
305
  8
0
 10
9.62084413253943
 20
16.34176794274948
 30
0.0
  0
VERTEX
  5
306
  8
0
 10
10.02218935795799
 20
16.1100511688161
 30
0.0
  0
VERTEX
  5
307
  8
0
 10
10.02218935795799
 20
15.64661762094935
 30
0.0
  0
VERTEX
  5
308
  8
0
 10
9.620844132539435
 20
15.41490084701597
 30
0.0
  0
SEQEND
  5
701
  8
0
  0
POLYLINE
  5
B8
  8
0
 66
     1
 10
0.0
 20
0.0
 30
0.0
 70
     1
  0
VERTEX
  5
309
  8
0
 10
8.702295294735626
 20
17.00586233035957
 30
0.0
  0
VERTEX
  5
30A
  8
0
 10
9.103640520154192
 20
17.23757910429295
 30
0.0
  0
VERTEX
  5
30B
  8
0
 10
9.504985745572741
 20
17.00586233035957
 30
0.0
  0
VERTEX
  5
30C
  8
0
 10
9.504985745572748
 20
16.54242878249281
 30
0.0
  0
VERTEX
  5
30D
  8
0
 10
9.103640520154185
 20
16.31071200855943
 30
0.0
  0
VERTEX
  5
30E
  8
0
 10
8.702295294735622
 20
16.54242878249281
 30
0.0
  0
SEQEND
  5
702
  8
0
  0
POLYLINE
  5
B9
  8
0
 66
     1
 10
0.0
 20
0.0
 30
0.0
 70
     1
  0
VERTEX
  5
30F
  8
0
 10
9.21949890712087
 20
17.43825171700222
 30
0.0
  0
VERTEX
  5
310
  8
0
 10
9.21949890712087
 20
17.90168526486898
 30
0.0
  0
VERTEX
  5
311
  8
0
 10
9.620844132539435
 20
18.13340203880236
 30
0.0
  0
VERTEX
  5
312
  8
0
 10
10.02218935795799
 20
17.90168526486898
 30
0.0
  0
VERTEX
  5
313
  8
0
 10
10.02218935795799
 20
17.43825171700222
 30
0.0
  0
VERTEX
  5
314
  8
0
 10
9.620844132539439
 20
17.20653494306884
 30
0.0
  0
SEQEND
  5
703
  8
0
  0
POLYLINE
  5
BA
  8
0
 66
     1
 10
0.0
 20
0.0
 30
0.0
 70
     1
  0
VERTEX
  5
315
  8
0
 10
8.702295294735626
 20
18.79749642641243
 30
0.0
  0
VERTEX
  5
316
  8
0
 10
9.103640520154192
 20
19.02921320034581
 30
0.0
  0
VERTEX
  5
317
  8
0
 10
9.504985745572741
 20
18.79749642641243
 30
0.0
  0
VERTEX
  5
318
  8
0
 10
9.504985745572748
 20
18.33406287854568
 30
0.0
  0
VERTEX
  5
319
  8
0
 10
9.103640520154185
 20
18.10234610461231
 30
0.0
  0
VERTEX
  5
31A
  8
0
 10
8.702295294735622
 20
18.33406287854568
 30
0.0
  0
SEQEND
  5
704
  8
0
  0
POLYLINE
  5
BB
  8
0
 66
     1
 10
0.0
 20
0.0
 30
0.0
 70
     1
  0
VERTEX
  5
31B
  8
0
 10
10.25388258595947
 20
8.48008123673788
 30
0.0
  0
VERTEX
  5
31C
  8
0
 10
10.25388258595947
 20
8.94351478460463
 30
0.0
  0
VERTEX
  5
31D
  8
0
 10
10.65522781137803
 20
9.175231558538014
 30
0.0
  0
VERTEX
  5
31E
  8
0
 10
11.05657303679658
 20
8.943514784604632
 30
0.0
  0
VERTEX
  5
31F
  8
0
 10
11.05657303679658
 20
8.48008123673788
 30
0.0
  0
VERTEX
  5
320
  8
0
 10
10.65522781137803
 20
8.248364462804501
 30
0.0
  0
SEQEND
  5
705
  8
0
  0
POLYLINE
  5
BC
  8
0
 66
     1
 10
0.0
 20
0.0
 30
0.0
 70
     1
  0
VERTEX
  5
321
  8
0
 10
9.736678973574223
 20
9.839325946148094
 30
0.0
  0
VERTEX
  5
322
  8
0
 10
10.13802419899278
 20
10.07104272008147
 30
0.0
  0
VERTEX
  5
323
  8
0
 10
10.53936942441134
 20
9.839325946148094
 30
0.0
  0
VERTEX
  5
324
  8
0
 10
10.53936942441134
 20
9.375892398281339
 30
0.0
  0
VERTEX
  5
325
  8
0
 10
10.13802419899278
 20
9.144175624347966
 30
0.0
  0
VERTEX
  5
326
  8
0
 10
9.73667897357422
 20
9.375892398281342
 30
0.0
  0
SEQEND
  5
706
  8
0
  0
POLYLINE
  5
BD
  8
0
 66
     1
 10
0.0
 20
0.0
 30
0.0
 70
     1
  0
VERTEX
  5
327
  8
0
 10
10.25388258595947
 20
10.27171533279075
 30
0.0
  0
VERTEX
  5
328
  8
0
 10
10.25388258595947
 20
10.7351488806575
 30
0.0
  0
VERTEX
  5
329
  8
0
 10
10.65522781137803
 20
10.96686565459087
 30
0.0
  0
VERTEX
  5
32A
  8
0
 10
11.05657303679658
 20
10.7351488806575
 30
0.0
  0
VERTEX
  5
32B
  8
0
 10
11.05657303679659
 20
10.27171533279075
 30
0.0
  0
VERTEX
  5
32C
  8
0
 10
10.65522781137803
 20
10.03999855885737
 30
0.0
  0
SEQEND
  5
707
  8
0
  0
POLYLINE
  5
BE
  8
0
 66
     1
 10
0.0
 20
0.0
 30
0.0
 70
     1
  0
VERTEX
  5
32D
  8
0
 10
9.736678973574223
 20
11.63096004220096
 30
0.0
  0
VERTEX
  5
32E
  8
0
 10
10.13802419899278
 20
11.86267681613434
 30
0.0
  0
VERTEX
  5
32F
  8
0
 10
10.53936942441134
 20
11.63096004220096
 30
0.0
  0
VERTEX
  5
330
  8
0
 10
10.53936942441134
 20
11.16752649433421
 30
0.0
  0
VERTEX
  5
331
  8
0
 10
10.13802419899278
 20
10.93580972040083
 30
0.0
  0
VERTEX
  5
332
  8
0
 10
9.73667897357422
 20
11.16752649433421
 30
0.0
  0
SEQEND
  5
708
  8
0
  0
POLYLINE
  5
BF
  8
0
 66
     1
 10
0.0
 20
0.0
 30
0.0
 70
     1
  0
VERTEX
  5
333
  8
0
 10
10.25388258595947
 20
12.06334942884362
 30
0.0
  0
VERTEX
  5
334
  8
0
 10
10.25388258595947
 20
12.52678297671037
 30
0.0
  0
VERTEX
  5
335
  8
0
 10
10.65522781137803
 20
12.75849975064374
 30
0.0
  0
VERTEX
  5
336
  8
0
 10
11.05657303679658
 20
12.52678297671037
 30
0.0
  0
VERTEX
  5
337
  8
0
 10
11.05657303679659
 20
12.06334942884362
 30
0.0
  0
VERTEX
  5
338
  8
0
 10
10.65522781137803
 20
11.83163265491024
 30
0.0
  0
SEQEND
  5
709
  8
0
  0
POLYLINE
  5
C0
  8
0
 66
     1
 10
0.0
 20
0.0
 30
0.0
 70
     1
  0
VERTEX
  5
339
  8
0
 10
9.736678973574223
 20
13.42259413825384
 30
0.0
  0
VERTEX
  5
33A
  8
0
 10
10.13802419899278
 20
13.6543109121872
 30
0.0
  0
VERTEX
  5
33B
  8
0
 10
10.53936942441134
 20
13.42259413825384
 30
0.0
  0
VERTEX
  5
33C
  8
0
 10
10.53936942441134
 20
12.95916059038708
 30
0.0
  0
VERTEX
  5
33D
  8
0
 10
10.13802419899278
 20
12.7274438164537
 30
0.0
  0
VERTEX
  5
33E
  8
0
 10
9.73667897357422
 20
12.95916059038708
 30
0.0
  0
SEQEND
  5
70A
  8
0
  0
POLYLINE
  5
C1
  8
0
 66
     1
 10
0.0
 20
0.0
 30
0.0
 70
     1
  0
VERTEX
  5
33F
  8
0
 10
10.25388258595947
 20
13.85498352489649
 30
0.0
  0
VERTEX
  5
340
  8
0
 10
10.25388258595947
 20
14.31841707276324
 30
0.0
  0
VERTEX
  5
341
  8
0
 10
10.65522781137802
 20
14.55013384669662
 30
0.0
  0
VERTEX
  5
342
  8
0
 10
11.05657303679658
 20
14.31841707276324
 30
0.0
  0
VERTEX
  5
343
  8
0
 10
11.05657303679659
 20
13.85498352489649
 30
0.0
  0
VERTEX
  5
344
  8
0
 10
10.65522781137803
 20
13.62326675096311
 30
0.0
  0
SEQEND
  5
70B
  8
0
  0
POLYLINE
  5
C2
  8
0
 66
     1
 10
0.0
 20
0.0
 30
0.0
 70
     1
  0
VERTEX
  5
345
  8
0
 10
9.736678973574223
 20
15.2142282343067
 30
0.0
  0
VERTEX
  5
346
  8
0
 10
10.13802419899278
 20
15.44594500824008
 30
0.0
  0
VERTEX
  5
347
  8
0
 10
10.53936942441134
 20
15.2142282343067
 30
0.0
  0
VERTEX
  5
348
  8
0
 10
10.53936942441134
 20
14.75079468643995
 30
0.0
  0
VERTEX
  5
349
  8
0
 10
10.13802419899278
 20
14.51907791250657
 30
0.0
  0
VERTEX
  5
34A
  8
0
 10
9.736678973574215
 20
14.75079468643995
 30
0.0
  0
SEQEND
  5
70C
  8
0
  0
POLYLINE
  5
C3
  8
0
 66
     1
 10
0.0
 20
0.0
 30
0.0
 70
     1
  0
VERTEX
  5
34B
  8
0
 10
10.25388258595947
 20
15.64661762094935
 30
0.0
  0
VERTEX
  5
34C
  8
0
 10
10.25388258595947
 20
16.1100511688161
 30
0.0
  0
VERTEX
  5
34D
  8
0
 10
10.65522781137802
 20
16.34176794274948
 30
0.0
  0
VERTEX
  5
34E
  8
0
 10
11.05657303679658
 20
16.1100511688161
 30
0.0
  0
VERTEX
  5
34F
  8
0
 10
11.05657303679658
 20
15.64661762094935
 30
0.0
  0
VERTEX
  5
350
  8
0
 10
10.65522781137802
 20
15.41490084701597
 30
0.0
  0
SEQEND
  5
70D
  8
0
  0
POLYLINE
  5
C4
  8
0
 66
     1
 10
0.0
 20
0.0
 30
0.0
 70
     1
  0
VERTEX
  5
351
  8
0
 10
9.736678973574223
 20
17.00586233035957
 30
0.0
  0
VERTEX
  5
352
  8
0
 10
10.13802419899278
 20
17.23757910429294
 30
0.0
  0
VERTEX
  5
353
  8
0
 10
10.53936942441134
 20
17.00586233035957
 30
0.0
  0
VERTEX
  5
354
  8
0
 10
10.53936942441134
 20
16.54242878249281
 30
0.0
  0
VERTEX
  5
355
  8
0
 10
10.13802419899278
 20
16.31071200855943
 30
0.0
  0
VERTEX
  5
356
  8
0
 10
9.73667897357422
 20
16.54242878249281
 30
0.0
  0
SEQEND
  5
70E
  8
0
  0
POLYLINE
  5
C5
  8
0
 66
     1
 10
0.0
 20
0.0
 30
0.0
 70
     1
  0
VERTEX
  5
357
  8
0
 10
10.25388258595947
 20
17.43825171700223
 30
0.0
  0
VERTEX
  5
358
  8
0
 10
10.25388258595947
 20
17.90168526486898
 30
0.0
  0
VERTEX
  5
359
  8
0
 10
10.65522781137802
 20
18.13340203880236
 30
0.0
  0
VERTEX
  5
35A
  8
0
 10
11.05657303679658
 20
17.90168526486898
 30
0.0
  0
VERTEX
  5
35B
  8
0
 10
11.05657303679658
 20
17.43825171700222
 30
0.0
  0
VERTEX
  5
35C
  8
0
 10
10.65522781137802
 20
17.20653494306884
 30
0.0
  0
SEQEND
  5
70F
  8
0
  0
POLYLINE
  5
C6
  8
0
 66
     1
 10
0.0
 20
0.0
 30
0.0
 70
     1
  0
VERTEX
  5
35D
  8
0
 10
9.73667897357422
 20
18.79749642641243
 30
0.0
  0
VERTEX
  5
35E
  8
0
 10
10.13802419899278
 20
19.02921320034581
 30
0.0
  0
VERTEX
  5
35F
  8
0
 10
10.53936942441134
 20
18.79749642641243
 30
0.0
  0
VERTEX
  5
360
  8
0
 10
10.53936942441134
 20
18.33406287854568
 30
0.0
  0
VERTEX
  5
361
  8
0
 10
10.13802419899278
 20
18.10234610461231
 30
0.0
  0
VERTEX
  5
362
  8
0
 10
9.73667897357422
 20
18.33406287854568
 30
0.0
  0
SEQEND
  5
710
  8
0
  0
POLYLINE
  5
C7
  8
0
 66
     1
 10
0.0
 20
0.0
 30
0.0
 70
     1
  0
VERTEX
  5
363
  8
0
 10
11.28826626479806
 20
3.105178948579274
 30
0.0
  0
VERTEX
  5
364
  8
0
 10
11.28826626479806
 20
3.568612496446031
 30
0.0
  0
VERTEX
  5
365
  8
0
 10
11.68961149021662
 20
3.800329270379401
 30
0.0
  0
VERTEX
  5
366
  8
0
 10
12.09095671563518
 20
3.568612496446033
 30
0.0
  0
VERTEX
  5
367
  8
0
 10
12.09095671563517
 20
3.105178948579274
 30
0.0
  0
VERTEX
  5
368
  8
0
 10
11.68961149021662
 20
2.873462174645898
 30
0.0
  0
SEQEND
  5
711
  8
0
  0
POLYLINE
  5
C8
  8
0
 66
     1
 10
0.0
 20
0.0
 30
0.0
 70
     1
  0
VERTEX
  5
369
  8
0
 10
11.28826626479806
 20
4.896813044632146
 30
0.0
  0
VERTEX
  5
36A
  8
0
 10
11.28826626479806
 20
5.360246592498902
 30
0.0
  0
VERTEX
  5
36B
  8
0
 10
11.68961149021662
 20
5.591963366432276
 30
0.0
  0
VERTEX
  5
36C
  8
0
 10
12.09095671563518
 20
5.360246592498902
 30
0.0
  0
VERTEX
  5
36D
  8
0
 10
12.09095671563517
 20
4.896813044632142
 30
0.0
  0
VERTEX
  5
36E
  8
0
 10
11.68961149021662
 20
4.66509627069877
 30
0.0
  0
SEQEND
  5
712
  8
0
  0
POLYLINE
  5
C9
  8
0
 66
     1
 10
0.0
 20
0.0
 30
0.0
 70
     1
  0
VERTEX
  5
36F
  8
0
 10
11.28826626479807
 20
6.68844714068501
 30
0.0
  0
VERTEX
  5
370
  8
0
 10
11.28826626479806
 20
7.151880688551762
 30
0.0
  0
VERTEX
  5
371
  8
0
 10
11.68961149021662
 20
7.383597462485139
 30
0.0
  0
VERTEX
  5
372
  8
0
 10
12.09095671563518
 20
7.151880688551762
 30
0.0
  0
VERTEX
  5
373
  8
0
 10
12.09095671563518
 20
6.68844714068501
 30
0.0
  0
VERTEX
  5
374
  8
0
 10
11.68961149021662
 20
6.456730366751634
 30
0.0
  0
SEQEND
  5
713
  8
0
  0
POLYLINE
  5
CA
  8
0
 66
     1
 10
0.0
 20
0.0
 30
0.0
 70
     1
  0
VERTEX
  5
375
  8
0
 10
11.28826626479806
 20
8.480081236737876
 30
0.0
  0
VERTEX
  5
376
  8
0
 10
11.28826626479806
 20
8.94351478460463
 30
0.0
  0
VERTEX
  5
377
  8
0
 10
11.68961149021662
 20
9.175231558538014
 30
0.0
  0
VERTEX
  5
378
  8
0
 10
12.09095671563518
 20
8.943514784604632
 30
0.0
  0
VERTEX
  5
379
  8
0
 10
12.09095671563518
 20
8.48008123673788
 30
0.0
  0
VERTEX
  5
37A
  8
0
 10
11.68961149021662
 20
8.248364462804497
 30
0.0
  0
SEQEND
  5
714
  8
0
  0
POLYLINE
  5
CB
  8
0
 66
     1
 10
0.0
 20
0.0
 30
0.0
 70
     1
  0
VERTEX
  5
37B
  8
0
 10
10.77106265241281
 20
9.839325946148094
 30
0.0
  0
VERTEX
  5
37C
  8
0
 10
11.17240787783137
 20
10.07104272008147
 30
0.0
  0
VERTEX
  5
37D
  8
0
 10
11.57375310324993
 20
9.839325946148094
 30
0.0
  0
VERTEX
  5
37E
  8
0
 10
11.57375310324993
 20
9.375892398281339
 30
0.0
  0
VERTEX
  5
37F
  8
0
 10
11.17240787783137
 20
9.144175624347966
 30
0.0
  0
VERTEX
  5
380
  8
0
 10
10.77106265241282
 20
9.375892398281339
 30
0.0
  0
SEQEND
  5
715
  8
0
  0
POLYLINE
  5
CC
  8
0
 66
     1
 10
0.0
 20
0.0
 30
0.0
 70
     1
  0
VERTEX
  5
381
  8
0
 10
11.28826626479806
 20
10.27171533279074
 30
0.0
  0
VERTEX
  5
382
  8
0
 10
11.28826626479806
 20
10.7351488806575
 30
0.0
  0
VERTEX
  5
383
  8
0
 10
11.68961149021662
 20
10.96686565459088
 30
0.0
  0
VERTEX
  5
384
  8
0
 10
12.09095671563518
 20
10.7351488806575
 30
0.0
  0
VERTEX
  5
385
  8
0
 10
12.09095671563518
 20
10.27171533279074
 30
0.0
  0
VERTEX
  5
386
  8
0
 10
11.68961149021662
 20
10.03999855885737
 30
0.0
  0
SEQEND
  5
716
  8
0
  0
POLYLINE
  5
CD
  8
0
 66
     1
 10
0.0
 20
0.0
 30
0.0
 70
     1
  0
VERTEX
  5
387
  8
0
 10
10.77106265241281
 20
11.63096004220095
 30
0.0
  0
VERTEX
  5
388
  8
0
 10
11.17240787783137
 20
11.86267681613434
 30
0.0
  0
VERTEX
  5
389
  8
0
 10
11.57375310324993
 20
11.63096004220095
 30
0.0
  0
VERTEX
  5
38A
  8
0
 10
11.57375310324993
 20
11.1675264943342
 30
0.0
  0
VERTEX
  5
38B
  8
0
 10
11.17240787783137
 20
10.93580972040083
 30
0.0
  0
VERTEX
  5
38C
  8
0
 10
10.77106265241282
 20
11.1675264943342
 30
0.0
  0
SEQEND
  5
717
  8
0
  0
POLYLINE
  5
CE
  8
0
 66
     1
 10
0.0
 20
0.0
 30
0.0
 70
     1
  0
VERTEX
  5
38D
  8
0
 10
11.28826626479806
 20
12.06334942884362
 30
0.0
  0
VERTEX
  5
38E
  8
0
 10
11.28826626479806
 20
12.52678297671037
 30
0.0
  0
VERTEX
  5
38F
  8
0
 10
11.68961149021662
 20
12.75849975064375
 30
0.0
  0
VERTEX
  5
390
  8
0
 10
12.09095671563518
 20
12.52678297671037
 30
0.0
  0
VERTEX
  5
391
  8
0
 10
12.09095671563518
 20
12.06334942884362
 30
0.0
  0
VERTEX
  5
392
  8
0
 10
11.68961149021662
 20
11.83163265491024
 30
0.0
  0
SEQEND
  5
718
  8
0
  0
POLYLINE
  5
CF
  8
0
 66
     1
 10
0.0
 20
0.0
 30
0.0
 70
     1
  0
VERTEX
  5
393
  8
0
 10
10.77106265241281
 20
13.42259413825384
 30
0.0
  0
VERTEX
  5
394
  8
0
 10
11.17240787783137
 20
13.6543109121872
 30
0.0
  0
VERTEX
  5
395
  8
0
 10
11.57375310324993
 20
13.42259413825384
 30
0.0
  0
VERTEX
  5
396
  8
0
 10
11.57375310324993
 20
12.95916059038708
 30
0.0
  0
VERTEX
  5
397
  8
0
 10
11.17240787783137
 20
12.7274438164537
 30
0.0
  0
VERTEX
  5
398
  8
0
 10
10.77106265241281
 20
12.95916059038708
 30
0.0
  0
SEQEND
  5
719
  8
0
  0
POLYLINE
  5
D0
  8
0
 66
     1
 10
0.0
 20
0.0
 30
0.0
 70
     1
  0
VERTEX
  5
399
  8
0
 10
11.28826626479806
 20
13.85498352489649
 30
0.0
  0
VERTEX
  5
39A
  8
0
 10
11.28826626479806
 20
14.31841707276323
 30
0.0
  0
VERTEX
  5
39B
  8
0
 10
11.68961149021662
 20
14.55013384669662
 30
0.0
  0
VERTEX
  5
39C
  8
0
 10
12.09095671563518
 20
14.31841707276323
 30
0.0
  0
VERTEX
  5
39D
  8
0
 10
12.09095671563518
 20
13.85498352489649
 30
0.0
  0
VERTEX
  5
39E
  8
0
 10
11.68961149021662
 20
13.62326675096311
 30
0.0
  0
SEQEND
  5
71A
  8
0
  0
POLYLINE
  5
D1
  8
0
 66
     1
 10
0.0
 20
0.0
 30
0.0
 70
     1
  0
VERTEX
  5
39F
  8
0
 10
10.77106265241281
 20
15.2142282343067
 30
0.0
  0
VERTEX
  5
3A0
  8
0
 10
11.17240787783137
 20
15.44594500824008
 30
0.0
  0
VERTEX
  5
3A1
  8
0
 10
11.57375310324993
 20
15.2142282343067
 30
0.0
  0
VERTEX
  5
3A2
  8
0
 10
11.57375310324993
 20
14.75079468643995
 30
0.0
  0
VERTEX
  5
3A3
  8
0
 10
11.17240787783137
 20
14.51907791250657
 30
0.0
  0
VERTEX
  5
3A4
  8
0
 10
10.77106265241281
 20
14.75079468643995
 30
0.0
  0
SEQEND
  5
71B
  8
0
  0
POLYLINE
  5
D2
  8
0
 66
     1
 10
0.0
 20
0.0
 30
0.0
 70
     1
  0
VERTEX
  5
3A5
  8
0
 10
11.28826626479806
 20
15.64661762094935
 30
0.0
  0
VERTEX
  5
3A6
  8
0
 10
11.28826626479806
 20
16.1100511688161
 30
0.0
  0
VERTEX
  5
3A7
  8
0
 10
11.68961149021662
 20
16.34176794274948
 30
0.0
  0
VERTEX
  5
3A8
  8
0
 10
12.09095671563517
 20
16.1100511688161
 30
0.0
  0
VERTEX
  5
3A9
  8
0
 10
12.09095671563518
 20
15.64661762094935
 30
0.0
  0
VERTEX
  5
3AA
  8
0
 10
11.68961149021662
 20
15.41490084701597
 30
0.0
  0
SEQEND
  5
71C
  8
0
  0
POLYLINE
  5
D3
  8
0
 66
     1
 10
0.0
 20
0.0
 30
0.0
 70
     1
  0
VERTEX
  5
3AB
  8
0
 10
10.77106265241281
 20
17.00586233035957
 30
0.0
  0
VERTEX
  5
3AC
  8
0
 10
11.17240787783137
 20
17.23757910429295
 30
0.0
  0
VERTEX
  5
3AD
  8
0
 10
11.57375310324993
 20
17.00586233035957
 30
0.0
  0
VERTEX
  5
3AE
  8
0
 10
11.57375310324993
 20
16.54242878249281
 30
0.0
  0
VERTEX
  5
3AF
  8
0
 10
11.17240787783137
 20
16.31071200855943
 30
0.0
  0
VERTEX
  5
3B0
  8
0
 10
10.77106265241281
 20
16.54242878249281
 30
0.0
  0
SEQEND
  5
71D
  8
0
  0
POLYLINE
  5
D4
  8
0
 66
     1
 10
0.0
 20
0.0
 30
0.0
 70
     1
  0
VERTEX
  5
3B1
  8
0
 10
11.28826626479806
 20
17.43825171700222
 30
0.0
  0
VERTEX
  5
3B2
  8
0
 10
11.28826626479806
 20
17.90168526486898
 30
0.0
  0
VERTEX
  5
3B3
  8
0
 10
11.68961149021662
 20
18.13340203880236
 30
0.0
  0
VERTEX
  5
3B4
  8
0
 10
12.09095671563517
 20
17.90168526486898
 30
0.0
  0
VERTEX
  5
3B5
  8
0
 10
12.09095671563518
 20
17.43825171700222
 30
0.0
  0
VERTEX
  5
3B6
  8
0
 10
11.68961149021662
 20
17.20653494306884
 30
0.0
  0
SEQEND
  5
71E
  8
0
  0
POLYLINE
  5
D5
  8
0
 66
     1
 10
0.0
 20
0.0
 30
0.0
 70
     1
  0
VERTEX
  5
3B7
  8
0
 10
10.77106265241281
 20
18.79749642641243
 30
0.0
  0
VERTEX
  5
3B8
  8
0
 10
11.17240787783137
 20
19.02921320034581
 30
0.0
  0
VERTEX
  5
3B9
  8
0
 10
11.57375310324993
 20
18.79749642641243
 30
0.0
  0
VERTEX
  5
3BA
  8
0
 10
11.57375310324993
 20
18.33406287854567
 30
0.0
  0
VERTEX
  5
3BB
  8
0
 10
11.17240787783137
 20
18.10234610461231
 30
0.0
  0
VERTEX
  5
3BC
  8
0
 10
10.77106265241281
 20
18.33406287854568
 30
0.0
  0
SEQEND
  5
71F
  8
0
  0
POLYLINE
  5
D6
  8
0
 66
     1
 10
0.0
 20
0.0
 30
0.0
 70
     1
  0
VERTEX
  5
3BD
  8
0
 10
9.949961732801189
 20
3.308126130452409
 30
0.0
  0
VERTEX
  5
3BE
  8
0
 10
9.949961732801194
 20
6.202322481377262
 30
0.0
 42
-0.9999999999999999
  0
VERTEX
  5
3BF
  8
0
 10
10.30429244145835
 20
6.202322481377262
 30
0.0
  0
VERTEX
  5
3C0
  8
0
 10
10.30429244145835
 20
3.308126130452414
 30
0.0
 42
-0.9999999999999999
  0
SEQEND
  5
720
  8
0
  0
POLYLINE
  5
D7
  8
0
 66
     1
 10
0.0
 20
0.0
 30
0.0
 70
     1
  0
VERTEX
  5
3C1
  8
0
 10
4.713741177117377
 20
2.756945019883581
 30
0.0
  0
VERTEX
  5
3C2
  8
0
 10
9.359410542906023
 20
2.756945019883577
 30
0.0
 42
-0.9999999999999999
  0
VERTEX
  5
3C3
  8
0
 10
9.359410542906014
 20
2.402614311226418
 30
0.0
  0
VERTEX
  5
3C4
  8
0
 10
4.713741177117372
 20
2.402614311226414
 30
0.0
 42
-0.9999999999999999
  0
SEQEND
  5
721
  8
0
  0
POLYLINE
  5
D8
  8
0
 66
     1
 10
0.0
 20
0.0
 30
0.0
 70
     1
  0
VERTEX
  5
3C5
  8
0
 10
4.398780533706707
 20
7.087653742848226
 30
0.0
  0
VERTEX
  5
3C6
  8
0
 10
9.359410454907033
 20
7.087653742848226
 30
0.0
 42
-0.9999999999999999
  0
VERTEX
  5
3C7
  8
0
 10
9.359410454907033
 20
6.733323034191057
 30
0.0
  0
VERTEX
  5
3C8
  8
0
 10
4.398780533706714
 20
6.733323034191057
 30
0.0
 42
-0.9999999999999999
  0
SEQEND
  5
722
  8
0
  0
POLYLINE
  5
D9
  8
0
 66
     1
 10
0.0
 20
0.0
 30
0.0
 70
     1
  0
VERTEX
  5
3C9
  8
0
 10
3.268152386639387
 20
3.426236368431445
 30
0.0
  0
VERTEX
  5
3CA
  8
0
 10
3.268152386639379
 20
6.024661609250152
 30
0.0
 42
-0.9999999999999999
  0
VERTEX
  5
3CB
  8
0
 10
3.622483095296547
 20
6.024661609250152
 30
0.0
  0
VERTEX
  5
3CC
  8
0
 10
3.622483095296551
 20
3.426236368431445
 30
0.0
 42
-0.9999999999999999
  0
SEQEND
  5
723
  8
0
  0
POLYLINE
  5
DA
  8
0
 66
     1
 10
0.0
 20
0.0
 30
0.0
 70
     1
  0
VERTEX
  5
3CD
  8
0
 10
10.7786492564682
 20
7.902326961067161
 30
0.0
  0
VERTEX
  5
3CE
  8
0
 10
10.8689655628814
 20
7.902326961067161
 30
0.0
 42
-0.4142135623730887
  0
VERTEX
  5
3CF
  8
0
 10
11.1189655628784
 20
7.652326961070157
 30
0.0
  0
VERTEX
  5
3D0
  8
0
 10
11.11896556287836
 20
7.395363195168246
 30
0.0
  0
VERTEX
  5
3D1
  8
0
 10
11.17999448188675
 20
7.360128132350492
 30
0.0
  0
VERTEX
  5
3D2
  8
0
 10
11.58133970730532
 20
7.59184490628386
 30
0.0
  0
VERTEX
  5
3D3
  8
0
 10
11.58133970730532
 20
8.055278454150617
 30
0.0
  0
VERTEX
  5
3D4
  8
0
 10
11.17999448188675
 20
8.286995228083992
 30
0.0
  0
VERTEX
  5
3D5
  8
0
 10
10.7786492564682
 20
8.055278454150617
 30
0.0
  0
SEQEND
  5
724
  8
0
  0
POLYLINE
  5
DB
  8
0
 66
     1
 10
0.0
 20
0.0
 30
0.0
 70
     1
  0
VERTEX
  5
3D6
  8
0
 10
3.298683672541189
 20
7.902326961067152
 30
0.0
  0
VERTEX
  5
3D7
  8
0
 10
3.298683672541189
 20
8.055278454150617
 30
0.0
  0
VERTEX
  5
3D8
  8
0
 10
2.897338447122622
 20
8.28699522808399
 30
0.0
  0
VERTEX
  5
3D9
  8
0
 10
2.495993221704068
 20
8.05527845415061
 30
0.0
  0
VERTEX
  5
3DA
  8
0
 10
2.495811808730591
 20
7.796651987656689
 30
0.0
  0
VERTEX
  5
3DB
  8
0
 10
2.504626288009731
 20
7.808383641690785
 30
0.0
  0
VERTEX
  5
3DC
  8
0
 10
2.514105252476943
 20
7.819564223937713
 30
0.0
  0
VERTEX
  5
3DD
  8
0
 10
2.524219023447092
 20
7.830165336403407
 30
0.0
  0
VERTEX
  5
3DE
  8
0
 10
2.534937922235041
 20
7.84015858109381
 30
0.0
  0
VERTEX
  5
3DF
  8
0
 10
2.546232270155654
 20
7.849515560014856
 30
0.0
  0
VERTEX
  5
3E0
  8
0
 10
2.558072388523795
 20
7.858207875172486
 30
0.0
  0
VERTEX
  5
3E1
  8
0
 10
2.570428598654328
 20
7.866207128572636
 30
0.0
  0
VERTEX
  5
3E2
  8
0
 10
2.583271221862117
 20
7.873484922221244
 30
0.0
  0
VERTEX
  5
3E3
  8
0
 10
2.596570579462026
 20
7.880012858124248
 30
0.0
  0
VERTEX
  5
3E4
  8
0
 10
2.610296992768919
 20
7.885762538287585
 30
0.0
  0
VERTEX
  5
3E5
  8
0
 10
2.624420783097658
 20
7.890705564717195
 30
0.0
  0
VERTEX
  5
3E6
  8
0
 10
2.638912271763109
 20
7.894813539419015
 30
0.0
  0
VERTEX
  5
3E7
  8
0
 10
2.653741780080136
 20
7.898058064398983
 30
0.0
  0
VERTEX
  5
3E8
  8
0
 10
2.668879629363601
 20
7.900410741663038
 30
0.0
  0
VERTEX
  5
3E9
  8
0
 10
2.684296140928369
 20
7.901843173217115
 30
0.0
  0
VERTEX
  5
3EA
  8
0
 10
2.699961636089304
 20
7.902326961067155
 30
0.0
  0
SEQEND
  5
725
  8
0
  0
POLYLINE
  5
DC
  8
0
 66
     1
 10
0.0
 20
0.0
 30
0.0
 70
     1
  0
VERTEX
  5
3EB
  8
0
 10
4.333067351379781
 20
7.902326961067155
 30
0.0
  0
VERTEX
  5
3EC
  8
0
 10
3.53037690054266
 20
7.902326961067155
 30
0.0
  0
VERTEX
  5
3ED
  8
0
 10
3.53037690054266
 20
8.055278454150617
 30
0.0
  0
VERTEX
  5
3EE
  8
0
 10
3.931722125961223
 20
8.286995228083992
 30
0.0
  0
VERTEX
  5
3EF
  8
0
 10
4.333067351379778
 20
8.055278454150617
 30
0.0
  0
SEQEND
  5
726
  8
0
  0
POLYLINE
  5
DD
  8
0
 66
     1
 10
0.0
 20
0.0
 30
0.0
 70
     1
  0
VERTEX
  5
3F0
  8
0
 10
5.36745103021837
 20
7.902326961067161
 30
0.0
  0
VERTEX
  5
3F1
  8
0
 10
4.564760579381224
 20
7.902326961067155
 30
0.0
  0
VERTEX
  5
3F2
  8
0
 10
4.564760579381252
 20
8.055278454150617
 30
0.0
  0
VERTEX
  5
3F3
  8
0
 10
4.966105804799815
 20
8.286995228083992
 30
0.0
  0
VERTEX
  5
3F4
  8
0
 10
5.367451030218373
 20
8.055278454150617
 30
0.0
  0
SEQEND
  5
727
  8
0
  0
POLYLINE
  5
DE
  8
0
 66
     1
 10
0.0
 20
0.0
 30
0.0
 70
     1
  0
VERTEX
  5
3F5
  8
0
 10
6.401834709056964
 20
7.902326961067155
 30
0.0
  0
VERTEX
  5
3F6
  8
0
 10
6.401834709056964
 20
8.05527845415061
 30
0.0
  0
VERTEX
  5
3F7
  8
0
 10
6.000489483638403
 20
8.286995228083992
 30
0.0
  0
VERTEX
  5
3F8
  8
0
 10
5.599144258219845
 20
8.055278454150617
 30
0.0
  0
VERTEX
  5
3F9
  8
0
 10
5.599144258219845
 20
7.902326961067161
 30
0.0
  0
SEQEND
  5
728
  8
0
  0
POLYLINE
  5
DF
  8
0
 66
     1
 10
0.0
 20
0.0
 30
0.0
 70
     1
  0
VERTEX
  5
3FA
  8
0
 10
7.436218387895562
 20
7.902326961067161
 30
0.0
  0
VERTEX
  5
3FB
  8
0
 10
6.633527937058429
 20
7.902326961067161
 30
0.0
  0
VERTEX
  5
3FC
  8
0
 10
6.633527937058438
 20
8.05527845415061
 30
0.0
  0
VERTEX
  5
3FD
  8
0
 10
7.034873162476997
 20
8.286995228083992
 30
0.0
  0
VERTEX
  5
3FE
  8
0
 10
7.436218387895562
 20
8.055278454150617
 30
0.0
  0
SEQEND
  5
729
  8
0
  0
POLYLINE
  5
E0
  8
0
 66
     1
 10
0.0
 20
0.0
 30
0.0
 70
     1
  0
VERTEX
  5
3FF
  8
0
 10
8.47060206673416
 20
7.902326961067161
 30
0.0
  0
VERTEX
  5
400
  8
0
 10
7.667911615897005
 20
7.902326961067161
 30
0.0
  0
VERTEX
  5
401
  8
0
 10
7.667911615897032
 20
8.05527845415061
 30
0.0
  0
VERTEX
  5
402
  8
0
 10
8.069256841315598
 20
8.286995228083992
 30
0.0
  0
VERTEX
  5
403
  8
0
 10
8.470602066734147
 20
8.055278454150619
 30
0.0
  0
SEQEND
  5
72A
  8
0
  0
POLYLINE
  5
E1
  8
0
 66
     1
 10
0.0
 20
0.0
 30
0.0
 70
     1
  0
VERTEX
  5
404
  8
0
 10
9.504985745572748
 20
7.902326961067161
 30
0.0
  0
VERTEX
  5
405
  8
0
 10
8.702295294735626
 20
7.902326961067161
 30
0.0
  0
VERTEX
  5
406
  8
0
 10
8.702295294735631
 20
8.055278454150617
 30
0.0
  0
VERTEX
  5
407
  8
0
 10
9.103640520154185
 20
8.286995228083992
 30
0.0
  0
VERTEX
  5
408
  8
0
 10
9.504985745572748
 20
8.05527845415061
 30
0.0
  0
SEQEND
  5
72B
  8
0
  0
POLYLINE
  5
E2
  8
0
 66
     1
 10
0.0
 20
0.0
 30
0.0
 70
     1
  0
VERTEX
  5
409
  8
0
 10
10.53936942441134
 20
7.902326961067161
 30
0.0
  0
VERTEX
  5
40A
  8
0
 10
10.53936942441134
 20
8.05527845415061
 30
0.0
  0
VERTEX
  5
40B
  8
0
 10
10.13802419899278
 20
8.286995228083992
 30
0.0
  0
VERTEX
  5
40C
  8
0
 10
9.736678973574223
 20
8.055278454150617
 30
0.0
  0
VERTEX
  5
40D
  8
0
 10
9.736678973574206
 20
7.902326961067161
 30
0.0
  0
SEQEND
  5
72C
  8
0
  0
POLYLINE
  5
E3
  8
0
 66
     1
 10
0.0
 20
0.0
 30
0.0
 70
     1
  0
VERTEX
  5
40E
  8
0
 10
2.446077294815964
 20
6.49703129506046
 30
0.0
  0
VERTEX
  5
40F
  8
0
 10
2.446077294815969
 20
7.34329653417632
 30
0.0
  0
VERTEX
  5
410
  8
0
 10
2.376274039392927
 20
7.383597462485139
 30
0.0
  0
VERTEX
  5
411
  8
0
 10
1.974928813974357
 20
7.151880688551762
 30
0.0
  0
VERTEX
  5
412
  8
0
 10
1.974928813974357
 20
6.68844714068501
 30
0.0
  0
VERTEX
  5
413
  8
0
 10
2.376274039392923
 20
6.456730366751634
 30
0.0
  0
SEQEND
  5
72D
  8
0
  0
POLYLINE
  5
E4
  8
0
 66
     1
 10
0.0
 20
0.0
 30
0.0
 70
     1
  0
VERTEX
  5
414
  8
0
 10
11.11623438541846
 20
5.596142495060096
 30
0.0
  0
VERTEX
  5
415
  8
0
 10
11.11623438541846
 20
6.452539465158005
 30
0.0
  0
VERTEX
  5
416
  8
0
 10
11.17726330442682
 20
6.487774527975737
 30
0.0
  0
VERTEX
  5
417
  8
0
 10
11.57860852984537
 20
6.256057754042361
 30
0.0
  0
VERTEX
  5
418
  8
0
 10
11.57860852984538
 20
5.792624206175604
 30
0.0
  0
VERTEX
  5
419
  8
0
 10
11.17726330442682
 20
5.560907432242228
 30
0.0
  0
SEQEND
  5
72E
  8
0
  0
POLYLINE
  5
E5
  8
0
 66
     1
 10
0.0
 20
0.0
 30
0.0
 70
     1
  0
VERTEX
  5
41A
  8
0
 10
2.446077294815947
 20
4.705397199007435
 30
0.0
  0
VERTEX
  5
41B
  8
0
 10
2.446077294815942
 20
5.551662438123559
 30
0.0
  0
VERTEX
  5
41C
  8
0
 10
2.376274039392923
 20
5.591963366432273
 30
0.0
  0
VERTEX
  5
41D
  8
0
 10
1.974928813974366
 20
5.360246592498896
 30
0.0
  0
VERTEX
  5
41E
  8
0
 10
1.974928813974357
 20
4.896813044632142
 30
0.0
  0
VERTEX
  5
41F
  8
0
 10
2.376274039392923
 20
4.665096270698767
 30
0.0
  0
SEQEND
  5
72F
  8
0
  0
POLYLINE
  5
E6
  8
0
 66
     1
 10
0.0
 20
0.0
 30
0.0
 70
     1
  0
VERTEX
  5
420
  8
0
 10
2.446077294815951
 20
2.913763102954596
 30
0.0
  0
VERTEX
  5
421
  8
0
 10
2.446077294815941
 20
3.760028342070748
 30
0.0
  0
VERTEX
  5
422
  8
0
 10
2.376274039392923
 20
3.800329270379401
 30
0.0
  0
VERTEX
  5
423
  8
0
 10
1.974928813974357
 20
3.568612496446029
 30
0.0
  0
VERTEX
  5
424
  8
0
 10
1.974928813974357
 20
3.105178948579272
 30
0.0
  0
VERTEX
  5
425
  8
0
 10
2.376274039392923
 20
2.873462174645896
 30
0.0
  0
SEQEND
  5
730
  8
0
  0
POLYLINE
  5
E7
  8
0
 66
     1
 10
0.0
 20
0.0
 30
0.0
 70
     1
  0
VERTEX
  5
426
  8
0
 10
11.11623438541847
 20
3.804508399007188
 30
0.0
  0
VERTEX
  5
427
  8
0
 10
11.17726330442682
 20
3.769273336189366
 30
0.0
  0
VERTEX
  5
428
  8
0
 10
11.57860852984537
 20
4.00099011012274
 30
0.0
  0
VERTEX
  5
429
  8
0
 10
11.57860852984537
 20
4.464423657989491
 30
0.0
  0
VERTEX
  5
42A
  8
0
 10
11.17726330442682
 20
4.696140431922865
 30
0.0
  0
VERTEX
  5
42B
  8
0
 10
11.11623438541843
 20
4.660905369105021
 30
0.0
  0
SEQEND
  5
731
  8
0
  0
POLYLINE
  5
E8
  8
0
 66
     1
 10
0.0
 20
0.0
 30
0.0
 70
     1
  0
VERTEX
  5
42C
  8
0
 10
11.11623438541844
 20
2.012874302954329
 30
0.0
  0
VERTEX
  5
42D
  8
0
 10
11.17726330442682
 20
1.977639240136492
 30
0.0
  0
VERTEX
  5
42E
  8
0
 10
11.57860852984537
 20
2.209356014069866
 30
0.0
  0
VERTEX
  5
42F
  8
0
 10
11.57860852984537
 20
2.67278956193662
 30
0.0
  0
VERTEX
  5
430
  8
0
 10
11.17726330442682
 20
2.904506335869998
 30
0.0
  0
VERTEX
  5
431
  8
0
 10
11.11623438541846
 20
2.869271273052172
 30
0.0
  0
SEQEND
  5
732
  8
0
  0
POLYLINE
  5
E9
  8
0
 66
     1
 10
0.0
 20
0.0
 30
0.0
 70
     1
  0
VERTEX
  5
432
  8
0
 10
9.269894754323289
 20
6.391787601124292
 30
0.0
  0
VERTEX
  5
433
  8
0
 10
8.937386285985083
 20
6.391787601124292
 30
0.0
  0
VERTEX
  5
434
  8
0
 10
8.702295294735622
 20
6.256057754042361
 30
0.0
  0
VERTEX
  5
435
  8
0
 10
8.702295294735626
 20
5.792624206175604
 30
0.0
  0
VERTEX
  5
436
  8
0
 10
9.103640520154185
 20
5.560907432242225
 30
0.0
  0
VERTEX
  5
437
  8
0
 10
9.50498574557275
 20
5.792624206175607
 30
0.0
  0
VERTEX
  5
438
  8
0
 10
9.504985745572748
 20
6.256057754042355
 30
0.0
  0
SEQEND
  5
733
  8
0
  0
POLYLINE
  5
EA
  8
0
 66
     1
 10
0.0
 20
0.0
 30
0.0
 70
     1
  0
VERTEX
  5
439
  8
0
 10
7.903002607146506
 20
6.391787601124292
 30
0.0
  0
VERTEX
  5
43A
  8
0
 10
8.23551107548472
 20
6.391787601124292
 30
0.0
  0
VERTEX
  5
43B
  8
0
 10
8.470602066734147
 20
6.256057754042361
 30
0.0
  0
VERTEX
  5
43C
  8
0
 10
8.470602066734147
 20
5.792624206175607
 30
0.0
  0
VERTEX
  5
43D
  8
0
 10
8.06925684131559
 20
5.560907432242228
 30
0.0
  0
VERTEX
  5
43E
  8
0
 10
7.667911615897037
 20
5.792624206175607
 30
0.0
  0
VERTEX
  5
43F
  8
0
 10
7.667911615897032
 20
6.256057754042355
 30
0.0
  0
SEQEND
  5
734
  8
0
  0
POLYLINE
  5
EB
  8
0
 66
     1
 10
0.0
 20
0.0
 30
0.0
 70
     1
  0
VERTEX
  5
440
  8
0
 10
5.132360038968959
 20
6.391787601124265
 30
0.0
  0
VERTEX
  5
441
  8
0
 10
5.367451030218373
 20
6.256057754042361
 30
0.0
  0
VERTEX
  5
442
  8
0
 10
5.36745103021837
 20
5.792624206175607
 30
0.0
  0
VERTEX
  5
443
  8
0
 10
4.966105804799815
 20
5.560907432242225
 30
0.0
  0
VERTEX
  5
444
  8
0
 10
4.564760579381252
 20
5.792624206175607
 30
0.0
  0
VERTEX
  5
445
  8
0
 10
4.564760579381252
 20
6.256057754042361
 30
0.0
  0
VERTEX
  5
446
  8
0
 10
4.799851570630582
 20
6.391787601124278
 30
0.0
  0
SEQEND
  5
735
  8
0
  0
POLYLINE
  5
EC
  8
0
 66
     1
 10
0.0
 20
0.0
 30
0.0
 70
     1
  0
VERTEX
  5
447
  8
0
 10
3.952914391979772
 20
5.573142792732773
 30
0.0
  0
VERTEX
  5
448
  8
0
 10
4.333067351379778
 20
5.792624206175604
 30
0.0
  0
VERTEX
  5
449
  8
0
 10
4.333067351379784
 20
6.256057754042361
 30
0.0
  0
VERTEX
  5
44A
  8
0
 10
4.097976360129918
 20
6.391787601124471
 30
0.0
  0
VERTEX
  5
44B
  8
0
 10
4.077914391978282
 20
6.391787601124292
 30
0.0
 42
0.4142135623730934
  0
VERTEX
  5
44C
  8
0
 10
3.952914391979779
 20
6.266787601125793
 30
0.0
  0
SEQEND
  5
736
  8
0
  0
POLYLINE
  5
ED
  8
0
 66
     1
 10
0.0
 20
0.0
 30
0.0
 70
     1
  0
VERTEX
  5
44D
  8
0
 10
6.166743717807548
 20
6.391787601124265
 30
0.0
  0
VERTEX
  5
44E
  8
0
 10
6.401834709056964
 20
6.256057754042355
 30
0.0
  0
VERTEX
  5
44F
  8
0
 10
6.401834709056969
 20
5.792624206175607
 30
0.0
  0
VERTEX
  5
450
  8
0
 10
6.000489483638408
 20
5.560907432242222
 30
0.0
  0
VERTEX
  5
451
  8
0
 10
5.599144258219845
 20
5.792624206175607
 30
0.0
  0
VERTEX
  5
452
  8
0
 10
5.599144258219845
 20
6.256057754042355
 30
0.0
  0
VERTEX
  5
453
  8
0
 10
5.834235249469338
 20
6.391787601124308
 30
0.0
  0
SEQEND
  5
737
  8
0
  0
POLYLINE
  5
EE
  8
0
 66
     1
 10
0.0
 20
0.0
 30
0.0
 70
     1
  0
VERTEX
  5
454
  8
0
 10
7.201127396646048
 20
6.391787601124323
 30
0.0
  0
VERTEX
  5
455
  8
0
 10
7.436218387895562
 20
6.256057754042361
 30
0.0
  0
VERTEX
  5
456
  8
0
 10
7.436218387895567
 20
5.792624206175604
 30
0.0
  0
VERTEX
  5
457
  8
0
 10
7.034873162477004
 20
5.560907432242228
 30
0.0
  0
VERTEX
  5
458
  8
0
 10
6.633527937058438
 20
5.792624206175604
 30
0.0
  0
VERTEX
  5
459
  8
0
 10
6.633527937058441
 20
6.256057754042355
 30
0.0
  0
VERTEX
  5
45A
  8
0
 10
6.868618928307906
 20
6.391787601124308
 30
0.0
  0
SEQEND
  5
738
  8
0
  0
POLYLINE
  5
EF
  8
0
 66
     1
 10
0.0
 20
0.0
 30
0.0
 70
     1
  0
VERTEX
  5
45B
  8
0
 10
3.952914391979782
 20
3.781508696679787
 30
0.0
  0
VERTEX
  5
45C
  8
0
 10
3.952914391979779
 20
4.683905071432321
 30
0.0
  0
VERTEX
  5
45D
  8
0
 10
4.333067351379784
 20
4.46442365798949
 30
0.0
  0
VERTEX
  5
45E
  8
0
 10
4.333067351379778
 20
4.000990110122738
 30
0.0
  0
SEQEND
  5
739
  8
0
  0
POLYLINE
  5
F0
  8
0
 66
     1
 10
0.0
 20
0.0
 30
0.0
 70
     1
  0
VERTEX
  5
45F
  8
0
 10
4.838668839162683
 20
3.098480458816935
 30
0.0
  0
VERTEX
  5
460
  8
0
 10
4.850270963765032
 20
3.105178948579272
 30
0.0
  0
VERTEX
  5
461
  8
0
 10
4.850270963765029
 20
3.568612496446029
 30
0.0
  0
VERTEX
  5
462
  8
0
 10
4.448925738346467
 20
3.800329270379404
 30
0.0
  0
VERTEX
  5
463
  8
0
 10
4.047580512927906
 20
3.568612496446032
 30
0.0
  0
VERTEX
  5
464
  8
0
 10
4.047580512927906
 20
3.105178948579276
 30
0.0
  0
VERTEX
  5
465
  8
0
 10
4.055010855540813
 20
3.100737837318867
 30
0.0
  0
VERTEX
  5
466
  8
0
 10
4.060684142052008
 20
3.099732727839974
 30
0.0
  0
VERTEX
  5
467
  8
0
 10
4.066400184941804
 20
3.099029242211937
 30
0.0
  0
VERTEX
  5
468
  8
0
 10
4.077914391978282
 20
3.09848045881695
 30
0.0
  0
SEQEND
  5
73A
  8
0
  0
POLYLINE
  5
F1
  8
0
 66
     1
 10
0.0
 20
0.0
 30
0.0
 70
     1
  0
VERTEX
  5
469
  8
0
 10
5.873052518001594
 20
3.09848045881695
 30
0.0
  0
VERTEX
  5
46A
  8
0
 10
5.093566316368323
 20
3.098480458816924
 30
0.0
  0
VERTEX
  5
46B
  8
0
 10
5.081964191766501
 20
3.105178948579272
 30
0.0
  0
VERTEX
  5
46C
  8
0
 10
5.081964191766501
 20
3.568612496446029
 30
0.0
  0
VERTEX
  5
46D
  8
0
 10
5.483309417185062
 20
3.800329270379404
 30
0.0
  0
VERTEX
  5
46E
  8
0
 10
5.884654642603623
 20
3.568612496446029
 30
0.0
  0
VERTEX
  5
46F
  8
0
 10
5.884654642603623
 20
3.105178948579272
 30
0.0
  0
SEQEND
  5
73B
  8
0
  0
POLYLINE
  5
F2
  8
0
 66
     1
 10
0.0
 20
0.0
 30
0.0
 70
     1
  0
VERTEX
  5
470
  8
0
 10
6.907436196840134
 20
3.09848045881695
 30
0.0
  0
VERTEX
  5
471
  8
0
 10
6.127949995207127
 20
3.098480458816924
 30
0.0
  0
VERTEX
  5
472
  8
0
 10
6.116347870605097
 20
3.105178948579274
 30
0.0
  0
VERTEX
  5
473
  8
0
 10
6.116347870605097
 20
3.568612496446031
 30
0.0
  0
VERTEX
  5
474
  8
0
 10
6.517693096023655
 20
3.800329270379403
 30
0.0
  0
VERTEX
  5
475
  8
0
 10
6.919038321442212
 20
3.568612496446033
 30
0.0
  0
VERTEX
  5
476
  8
0
 10
6.919038321442219
 20
3.105178948579274
 30
0.0
  0
SEQEND
  5
73C
  8
0
  0
POLYLINE
  5
F3
  8
0
 66
     1
 10
0.0
 20
0.0
 30
0.0
 70
     1
  0
VERTEX
  5
477
  8
0
 10
9.60842629386782
 20
4.672265713198582
 30
0.0
  0
VERTEX
  5
478
  8
0
 10
9.60842629386795
 20
5.584793923932613
 30
0.0
  0
VERTEX
  5
479
  8
0
 10
9.21949890712087
 20
5.360246592498902
 30
0.0
  0
VERTEX
  5
47A
  8
0
 10
9.21949890712087
 20
4.896813044632149
 30
0.0
  0
SEQEND
  5
73D
  8
0
  0
POLYLINE
  5
F4
  8
0
 66
     1
 10
0.0
 20
0.0
 30
0.0
 70
     1
  0
VERTEX
  5
47B
  8
0
 10
7.941819875678522
 20
3.09848045881695
 30
0.0
  0
VERTEX
  5
47C
  8
0
 10
7.162333674045956
 20
3.098480458816967
 30
0.0
  0
VERTEX
  5
47D
  8
0
 10
7.150731549443686
 20
3.105178948579277
 30
0.0
  0
VERTEX
  5
47E
  8
0
 10
7.150731549443686
 20
3.568612496446031
 30
0.0
  0
VERTEX
  5
47F
  8
0
 10
7.552076774862247
 20
3.800329270379403
 30
0.0
  0
VERTEX
  5
480
  8
0
 10
7.953422000280806
 20
3.568612496446031
 30
0.0
  0
VERTEX
  5
481
  8
0
 10
7.953422000280806
 20
3.105178948579274
 30
0.0
  0
SEQEND
  5
73E
  8
0
  0
POLYLINE
  5
F5
  8
0
 66
     1
 10
0.0
 20
0.0
 30
0.0
 70
     1
  0
VERTEX
  5
482
  8
0
 10
8.976203554517005
 20
3.098480458816951
 30
0.0
  0
VERTEX
  5
483
  8
0
 10
8.196717352884564
 20
3.098480458816961
 30
0.0
  0
VERTEX
  5
484
  8
0
 10
8.185115228282275
 20
3.105178948579274
 30
0.0
  0
VERTEX
  5
485
  8
0
 10
8.18511522828228
 20
3.568612496446033
 30
0.0
  0
VERTEX
  5
486
  8
0
 10
8.586460453700845
 20
3.800329270379403
 30
0.0
  0
VERTEX
  5
487
  8
0
 10
8.987805679119399
 20
3.568612496446026
 30
0.0
  0
VERTEX
  5
488
  8
0
 10
8.987805679119399
 20
3.105178948579274
 30
0.0
  0
SEQEND
  5
73F
  8
0
  0
POLYLINE
  5
F6
  8
0
 66
     1
 10
0.0
 20
0.0
 30
0.0
 70
     1
  0
VERTEX
  5
489
  8
0
 10
9.231101031723208
 20
3.098480458816951
 30
0.0
  0
VERTEX
  5
48A
  8
0
 10
9.48342629386932
 20
3.098480458816951
 30
0.0
 42
0.4142135623730852
  0
VERTEX
  5
48B
  8
0
 10
9.608426293867822
 20
3.223480458815448
 30
0.0
  0
VERTEX
  5
48C
  8
0
 10
9.608426293868035
 20
3.793159827879847
 30
0.0
  0
VERTEX
  5
48D
  8
0
 10
9.21949890712087
 20
3.568612496446033
 30
0.0
  0
VERTEX
  5
48E
  8
0
 10
9.219498907120874
 20
3.105178948579274
 30
0.0
  0
SEQEND
  5
740
  8
0
  0
POLYLINE
  5
F7
  8
0
 66
     1
 10
0.0
 20
0.0
 30
0.0
 70
     1
  0
VERTEX
  5
48F
  8
0
 10
12.18618210841441
 20
1.360595686926693
 30
0.0
  0
VERTEX
  5
490
  8
0
 10
1.375158486500893
 20
1.360595686926693
 30
0.0
  0
VERTEX
  5
491
  8
0
 10
1.375158486500893
 20
19.12043820639461
 30
0.0
  0
VERTEX
  5
492
  8
0
 10
12.18618210841441
 20
19.12043820639462
 30
0.0
  0
SEQEND
  5
741
  8
0
  0
POLYLINE
  5
F8
  8
0
 66
     1
 10
0.0
 20
0.0
 30
0.0
 70
     1
  0
VERTEX
  5
493
  8
0
 10
12.1826303229051
 20
10.94770859090069
 30
0.0
  0
VERTEX
  5
494
  8
0
 10
11.80189454574209
 20
11.16752649433587
 30
0.0
  0
VERTEX
  5
495
  8
0
 10
11.8018945457421
 20
11.63096004220263
 30
0.0
  0
VERTEX
  5
496
  8
0
 10
12.18263032290511
 20
11.85077794563781
 30
0.0
  0
SEQEND
  5
742
  8
0
  0
POLYLINE
  5
F9
  8
0
 66
     1
 10
0.0
 20
0.0
 30
0.0
 70
     1
  0
VERTEX
  5
497
  8
0
 10
12.18132668181897
 20
12.7393426869519
 30
0.0
  0
VERTEX
  5
498
  8
0
 10
11.80059090465596
 20
12.95916059038708
 30
0.0
  0
VERTEX
  5
499
  8
0
 10
11.80059090465596
 20
13.42259413825384
 30
0.0
  0
VERTEX
  5
49A
  8
0
 10
12.18132668181895
 20
13.642412041689
 30
0.0
  0
SEQEND
  5
743
  8
0
  0
POLYLINE
  5
FA
  8
0
 66
     1
 10
0.0
 20
0.0
 30
0.0
 70
     1
  0
VERTEX
  5
49B
  8
0
 10
12.18229776713805
 20
14.53097678300476
 30
0.0
  0
VERTEX
  5
49C
  8
0
 10
11.80156198997505
 20
14.75079468643995
 30
0.0
  0
VERTEX
  5
49D
  8
0
 10
11.80156198997505
 20
15.2142282343067
 30
0.0
  0
VERTEX
  5
49E
  8
0
 10
12.18229776713806
 20
15.43404613774189
 30
0.0
  0
SEQEND
  5
744
  8
0
  0
POLYLINE
  5
FB
  8
0
 66
     1
 10
0.0
 20
0.0
 30
0.0
 70
     1
  0
VERTEX
  5
49F
  8
0
 10
12.18229776713802
 20
16.32261087905765
 30
0.0
  0
VERTEX
  5
4A0
  8
0
 10
11.80156198997505
 20
16.54242878249281
 30
0.0
  0
VERTEX
  5
4A1
  8
0
 10
11.80156198997505
 20
17.00586233035957
 30
0.0
  0
VERTEX
  5
4A2
  8
0
 10
12.18229776713804
 20
17.22568023379474
 30
0.0
  0
SEQEND
  5
745
  8
0
  0
POLYLINE
  5
FC
  8
0
 66
     1
 10
0.0
 20
0.0
 30
0.0
 70
     1
  0
VERTEX
  5
4A3
  8
0
 10
12.18229776713804
 20
18.11424497511051
 30
0.0
  0
VERTEX
  5
4A4
  8
0
 10
11.80156198997504
 20
18.33406287854568
 30
0.0
  0
VERTEX
  5
4A5
  8
0
 10
11.80156198997505
 20
18.79749642641243
 30
0.0
  0
VERTEX
  5
4A6
  8
0
 10
12.18229776713807
 20
19.01731432984763
 30
0.0
  0
SEQEND
  5
746
  8
0
  0
POLYLINE
  5
FD
  8
0
 66
     1
 10
0.0
 20
0.0
 30
0.0
 70
     1
  0
VERTEX
  5
4A7
  8
0
 10
9.83262054245521
 20
19.11655386511825
 30
0.0
  0
VERTEX
  5
4A8
  8
0
 10
9.620844132539435
 20
18.99428469784536
 30
0.0
  0
VERTEX
  5
4A9
  8
0
 10
9.409067722623549
 20
19.11655386511831
 30
0.0
  0
SEQEND
  5
747
  8
0
  0
POLYLINE
  5
FE
  8
0
 66
     1
 10
0.0
 20
0.0
 30
0.0
 70
     1
  0
VERTEX
  5
4AA
  8
0
 10
7.763853184778047
 20
19.11655386511826
 30
0.0
  0
VERTEX
  5
4AB
  8
0
 10
7.552076774862247
 20
18.99428469784536
 30
0.0
  0
VERTEX
  5
4AC
  8
0
 10
7.340300364946543
 20
19.1165538651182
 30
0.0
  0
SEQEND
  5
748
  8
0
  0
POLYLINE
  5
FF
  8
0
 66
     1
 10
0.0
 20
0.0
 30
0.0
 70
     1
  0
VERTEX
  5
4AD
  8
0
 10
6.729469505939503
 20
19.11655386511829
 30
0.0
  0
VERTEX
  5
4AE
  8
0
 10
6.517693096023646
 20
18.99428469784536
 30
0.0
  0
VERTEX
  5
4AF
  8
0
 10
6.305916686107766
 20
19.11655386511831
 30
0.0
  0
SEQEND
  5
749
  8
0
  0
POLYLINE
  5
100
  8
0
 66
     1
 10
0.0
 20
0.0
 30
0.0
 70
     1
  0
VERTEX
  5
4B0
  8
0
 10
5.695085827100931
 20
19.1165538651183
 30
0.0
  0
VERTEX
  5
4B1
  8
0
 10
5.483309417185059
 20
18.99428469784536
 30
0.0
  0
VERTEX
  5
4B2
  8
0
 10
5.271533007269275
 20
19.11655386511825
 30
0.0
  0
SEQEND
  5
74A
  8
0
  0
POLYLINE
  5
101
  8
0
 66
     1
 10
0.0
 20
0.0
 30
0.0
 70
     1
  0
VERTEX
  5
4B3
  8
0
 10
4.660702148262204
 20
19.11655386511823
 30
0.0
  0
VERTEX
  5
4B4
  8
0
 10
4.448925738346466
 20
18.99428469784536
 30
0.0
  0
VERTEX
  5
4B5
  8
0
 10
4.237149328430557
 20
19.11655386511832
 30
0.0
  0
SEQEND
  5
74B
  8
0
  0
POLYLINE
  5
102
  8
0
 66
     1
 10
0.0
 20
0.0
 30
0.0
 70
     1
  0
VERTEX
  5
4B6
  8
0
 10
3.626318469423577
 20
19.11655386511821
 30
0.0
  0
VERTEX
  5
4B7
  8
0
 10
3.414542059507871
 20
18.99428469784536
 30
0.0
  0
VERTEX
  5
4B8
  8
0
 10
3.202765649592011
 20
19.1165538651183
 30
0.0
  0
SEQEND
  5
74C
  8
0
  0
POLYLINE
  5
103
  8
0
 66
     1
 10
0.0
 20
0.0
 30
0.0
 70
     1
  0
VERTEX
  5
4B9
  8
0
 10
2.591934790585071
 20
19.11655386511825
 30
0.0
  0
VERTEX
  5
4BA
  8
0
 10
2.380158380669281
 20
18.99428469784536
 30
0.0
  0
VERTEX
  5
4BB
  8
0
 10
2.16838197075344
 20
19.11655386511828
 30
0.0
  0
SEQEND
  5
74D
  8
0
  0
POLYLINE
  5
104
  8
0
 66
     1
 10
0.0
 20
0.0
 30
0.0
 70
     1
  0
VERTEX
  5
4BC
  8
0
 10
1.379042827777311
 20
18.11643730281317
 30
0.0
  0
VERTEX
  5
4BD
  8
0
 10
1.751004268525606
 20
17.90168526486898
 30
0.0
  0
VERTEX
  5
4BE
  8
0
 10
1.751004268525606
 20
17.43825171700222
 30
0.0
  0
VERTEX
  5
4BF
  8
0
 10
1.379042827777241
 20
17.22349967905799
 30
0.0
  0
SEQEND
  5
74E
  8
0
  0
POLYLINE
  5
105
  8
0
 66
     1
 10
0.0
 20
0.0
 30
0.0
 70
     1
  0
VERTEX
  5
4C0
  8
0
 10
1.379042827777276
 20
16.32480320676032
 30
0.0
  0
VERTEX
  5
4C1
  8
0
 10
1.751004268525606
 20
16.1100511688161
 30
0.0
  0
VERTEX
  5
4C2
  8
0
 10
1.751004268525606
 20
15.64661762094935
 30
0.0
  0
VERTEX
  5
4C3
  8
0
 10
1.37904282777727
 20
15.43186558300514
 30
0.0
  0
SEQEND
  5
74F
  8
0
  0
POLYLINE
  5
106
  8
0
 66
     1
 10
0.0
 20
0.0
 30
0.0
 70
     1
  0
VERTEX
  5
4C4
  8
0
 10
1.379042827777254
 20
14.53316911070746
 30
0.0
  0
VERTEX
  5
4C5
  8
0
 10
1.751004268525606
 20
14.31841707276324
 30
0.0
  0
VERTEX
  5
4C6
  8
0
 10
1.751004268525606
 20
13.85498352489649
 30
0.0
  0
VERTEX
  5
4C7
  8
0
 10
1.379042827777297
 20
13.64023148695229
 30
0.0
  0
SEQEND
  5
750
  8
0
  0
POLYLINE
  5
107
  8
0
 66
     1
 10
0.0
 20
0.0
 30
0.0
 70
     1
  0
VERTEX
  5
4C8
  8
0
 10
1.37904282777722
 20
12.74153501465461
 30
0.0
  0
VERTEX
  5
4C9
  8
0
 10
1.751004268525606
 20
12.52678297671037
 30
0.0
  0
VERTEX
  5
4CA
  8
0
 10
1.751004268525606
 20
12.06334942884362
 30
0.0
  0
VERTEX
  5
4CB
  8
0
 10
1.379042827777205
 20
11.84859739089937
 30
0.0
  0
SEQEND
  5
751
  8
0
  0
POLYLINE
  5
108
  8
0
 66
     1
 10
0.0
 20
0.0
 30
0.0
 70
     1
  0
VERTEX
  5
4CC
  8
0
 10
1.379042827777254
 20
10.94990091860172
 30
0.0
  0
VERTEX
  5
4CD
  8
0
 10
1.751004268525606
 20
10.7351488806575
 30
0.0
  0
VERTEX
  5
4CE
  8
0
 10
1.751004268525606
 20
10.27171533279074
 30
0.0
  0
VERTEX
  5
4CF
  8
0
 10
1.379042827777233
 20
10.05696329484651
 30
0.0
  0
SEQEND
  5
752
  8
0
  0
POLYLINE
  5
109
  8
0
 66
     1
 10
0.0
 20
0.0
 30
0.0
 70
     1
  0
VERTEX
  5
4D0
  8
0
 10
1.379042827777251
 20
9.158266822548855
 30
0.0
  0
VERTEX
  5
4D1
  8
0
 10
1.751004268525606
 20
8.94351478460463
 30
0.0
  0
VERTEX
  5
4D2
  8
0
 10
1.751004268525606
 20
8.48008123673787
 30
0.0
  0
VERTEX
  5
4D3
  8
0
 10
1.379042827777272
 20
8.265329198793667
 30
0.0
  0
SEQEND
  5
753
  8
0
  0
POLYLINE
  5
10A
  8
0
 66
     1
 10
0.0
 20
0.0
 30
0.0
 70
     1
  0
VERTEX
  5
4D4
  8
0
 10
1.379042827777259
 20
7.366632726495982
 30
0.0
  0
VERTEX
  5
4D5
  8
0
 10
1.751004268525606
 20
7.151880688551762
 30
0.0
  0
VERTEX
  5
4D6
  8
0
 10
1.751004268525606
 20
6.68844714068501
 30
0.0
  0
VERTEX
  5
4D7
  8
0
 10
1.379042827777265
 20
6.473695102740794
 30
0.0
  0
SEQEND
  5
754
  8
0
  0
POLYLINE
  5
10B
  8
0
 66
     1
 10
0.0
 20
0.0
 30
0.0
 70
     1
  0
VERTEX
  5
4D8
  8
0
 10
1.379042827777203
 20
5.57499863044315
 30
0.0
  0
VERTEX
  5
4D9
  8
0
 10
1.751004268525606
 20
5.360246592498899
 30
0.0
  0
VERTEX
  5
4DA
  8
0
 10
1.751004268525606
 20
4.896813044632138
 30
0.0
  0
VERTEX
  5
4DB
  8
0
 10
1.379042827776876
 20
4.682061006687701
 30
0.0
  0
SEQEND
  5
755
  8
0
  0
POLYLINE
  5
10C
  8
0
 66
     1
 10
0.0
 20
0.0
 30
0.0
 70
     1
  0
VERTEX
  5
4DC
  8
0
 10
1.379042827777236
 20
3.78336453439026
 30
0.0
  0
VERTEX
  5
4DD
  8
0
 10
1.751004268525606
 20
3.568612496446032
 30
0.0
  0
VERTEX
  5
4DE
  8
0
 10
1.751004268525606
 20
3.105178948579272
 30
0.0
  0
VERTEX
  5
4DF
  8
0
 10
1.379042827777241
 20
2.890426910635045
 30
0.0
  0
SEQEND
  5
756
  8
0
  0
POLYLINE
  5
10D
  8
0
 66
     1
 10
0.0
 20
0.0
 30
0.0
 70
     1
  0
VERTEX
  5
4E0
  8
0
 10
12.18132668181896
 20
1.989538110634687
 30
0.0
  0
VERTEX
  5
4E1
  8
0
 10
11.80059090465596
 20
2.209356014069866
 30
0.0
  0
VERTEX
  5
4E2
  8
0
 10
11.80059090465596
 20
2.67278956193662
 30
0.0
  0
VERTEX
  5
4E3
  8
0
 10
12.18132668181897
 20
2.892607465371808
 30
0.0
  0
SEQEND
  5
757
  8
0
  0
POLYLINE
  5
10E
  8
0
 66
     1
 10
0.0
 20
0.0
 30
0.0
 70
     1
  0
VERTEX
  5
4E4
  8
0
 10
12.18132668181896
 20
3.781172206687558
 30
0.0
  0
VERTEX
  5
4E5
  8
0
 10
11.80059090465596
 20
4.000990110122733
 30
0.0
  0
VERTEX
  5
4E6
  8
0
 10
11.80059090465596
 20
4.464423657989491
 30
0.0
  0
VERTEX
  5
4E7
  8
0
 10
12.18132668181896
 20
4.684241561424671
 30
0.0
  0
SEQEND
  5
758
  8
0
  0
POLYLINE
  5
10F
  8
0
 66
     1
 10
0.0
 20
0.0
 30
0.0
 70
     1
  0
VERTEX
  5
4E8
  8
0
 10
12.18132668181897
 20
5.572806302740418
 30
0.0
  0
VERTEX
  5
4E9
  8
0
 10
11.80059090465596
 20
5.792624206175604
 30
0.0
  0
VERTEX
  5
4EA
  8
0
 10
11.80059090465596
 20
6.256057754042355
 30
0.0
  0
VERTEX
  5
4EB
  8
0
 10
12.18132668181896
 20
6.475875657477539
 30
0.0
  0
SEQEND
  5
759
  8
0
  0
POLYLINE
  5
110
  8
0
 66
     1
 10
0.0
 20
0.0
 30
0.0
 70
     1
  0
VERTEX
  5
4EC
  8
0
 10
12.18108148277589
 20
7.364440398793286
 30
0.0
  0
VERTEX
  5
4ED
  8
0
 10
11.80034570561289
 20
7.584258302228474
 30
0.0
  0
VERTEX
  5
4EE
  8
0
 10
11.80034570561289
 20
8.047691850095228
 30
0.0
  0
VERTEX
  5
4EF
  8
0
 10
12.18108148277589
 20
8.267509753530407
 30
0.0
  0
SEQEND
  5
75A
  8
0
  0
POLYLINE
  5
111
  8
0
 66
     1
 10
0.0
 20
0.0
 30
0.0
 70
     1
  0
VERTEX
  5
4F0
  8
0
 10
12.18419332568092
 20
9.156074494846155
 30
0.0
  0
VERTEX
  5
4F1
  8
0
 10
11.8034575485179
 20
9.375892398281339
 30
0.0
  0
VERTEX
  5
4F2
  8
0
 10
11.80345754851792
 20
9.839325946148094
 30
0.0
  0
VERTEX
  5
4F3
  8
0
 10
12.18419332568092
 20
10.05914384958328
 30
0.0
  0
SEQEND
  5
75B
  8
0
  0
POLYLINE
  5
112
  8
0
 66
     1
 10
0.0
 20
0.0
 30
0.0
 70
     1
  0
VERTEX
  5
4F4
  8
0
 10
9.733251526945477
 20
3.037567512532199
 30
0.0
 42
-0.4142135623730951
  0
VERTEX
  5
4F5
  8
0
 10
9.79722790489772
 20
2.973591134579955
 30
0.0
 42
-0.4142135623730951
  0
VERTEX
  5
4F6
  8
0
 10
9.733251526945477
 20
2.90961475662771
 30
0.0
 42
-0.4142135623730951
  0
VERTEX
  5
4F7
  8
0
 10
9.669275148993234
 20
2.973591134579955
 30
0.0
 42
-0.4142135623730951
  0
SEQEND
  5
75C
  8
0
  0
POLYLINE
  5
113
  8
0
 66
     1
 10
0.0
 20
0.0
 30
0.0
 70
     1
  0
VERTEX
  5
4F8
  8
0
 10
9.733251524012177
 20
6.58087465485071
 30
0.0
 42
-0.4142135623730951
  0
VERTEX
  5
4F9
  8
0
 10
9.797227901964423
 20
6.516898276898467
 30
0.0
 42
-0.4142135623730951
  0
VERTEX
  5
4FA
  8
0
 10
9.733251524012177
 20
6.452921898946222
 30
0.0
 42
-0.4142135623730951
  0
VERTEX
  5
4FB
  8
0
 10
9.669275146059935
 20
6.516898276898467
 30
0.0
 42
-0.4142135623730951
  0
SEQEND
  5
75D
  8
0
  0
POLYLINE
  5
114
  8
0
 66
     1
 10
0.0
 20
0.0
 30
0.0
 70
     1
  0
VERTEX
  5
4FC
  8
0
 10
3.827739625036817
 20
6.58087465485071
 30
0.0
 42
-0.4142135623730951
  0
VERTEX
  5
4FD
  8
0
 10
3.891716002989061
 20
6.516898276898467
 30
0.0
 42
-0.4142135623730951
  0
VERTEX
  5
4FE
  8
0
 10
3.827739625036817
 20
6.452921898946222
 30
0.0
 42
-0.4142135623730951
  0
VERTEX
  5
4FF
  8
0
 10
3.763763247084573
 20
6.516898276898467
 30
0.0
 42
-0.4142135623730951
  0
SEQEND
  5
75E
  8
0
  0
POLYLINE
  5
115
  8
0
 66
     1
 10
0.0
 20
0.0
 30
0.0
 70
     1
  0
VERTEX
  5
500
  8
0
 10
3.827739720693509
 20
3.037330314939223
 30
0.0
 42
-0.4142135623730951
  0
VERTEX
  5
501
  8
0
 10
3.891716098645753
 20
2.97335393698698
 30
0.0
 42
-0.4142135623730951
  0
VERTEX
  5
502
  8
0
 10
3.827739720693509
 20
2.909377559034736
 30
0.0
 42
-0.4142135623730951
  0
VERTEX
  5
503
  8
0
 10
3.763763342741265
 20
2.97335393698698
 30
0.0
 42
-0.4142135623730951
  0
SEQEND
  5
75F
  8
0
  0
POLYLINE
  5
116
  8
0
 66
     1
 10
0.0
 20
0.0
 30
0.0
 70
     1
  0
VERTEX
  5
504
  8
0
 10
9.733251524012177
 20
6.58087465485071
 30
0.0
 42
-0.4142135623730951
  0
VERTEX
  5
505
  8
0
 10
9.797227901964423
 20
6.516898276898467
 30
0.0
 42
-0.4142135623730951
  0
VERTEX
  5
506
  8
0
 10
9.733251524012177
 20
6.452921898946222
 30
0.0
 42
-0.4142135623730951
  0
VERTEX
  5
507
  8
0
 10
9.669275146059935
 20
6.516898276898467
 30
0.0
 42
-0.4142135623730951
  0
SEQEND
  5
760
  8
0
  0
POLYLINE
  5
117
  8
0
 66
     1
 10
0.0
 20
0.0
 30
0.0
 70
     1
  0
VERTEX
  5
508
  8
0
 10
9.733251524012177
 20
6.58087465485071
 30
0.0
 42
-0.4142135623730951
  0
VERTEX
  5
509
  8
0
 10
9.797227901964423
 20
6.516898276898467
 30
0.0
 42
-0.4142135623730951
  0
VERTEX
  5
50A
  8
0
 10
9.733251524012177
 20
6.452921898946222
 30
0.0
 42
-0.4142135623730951
  0
VERTEX
  5
50B
  8
0
 10
9.669275146059935
 20
6.516898276898467
 30
0.0
 42
-0.4142135623730951
  0
SEQEND
  5
761
  8
0
  0
POLYLINE
  5
118
  8
0
 66
     1
 10
0.0
 20
0.0
 30
0.0
 70
     1
  0
VERTEX
  5
50C
  8
0
 10
4.077739625034819
 20
6.39189827689947
 30
0.0
  0
VERTEX
  5
50D
  8
0
 10
9.48325152694748
 20
6.39189827689947
 30
0.0
 42
-0.414213562373088
  0
VERTEX
  5
50E
  8
0
 10
9.608251526946477
 20
6.266898276900466
 30
0.0
  0
VERTEX
  5
50F
  8
0
 10
9.608251526946477
 20
3.223591134577952
 30
0.0
 42
-0.4142135623730936
  0
VERTEX
  5
510
  8
0
 10
9.48325152694748
 20
3.098591134578953
 30
0.0
  0
VERTEX
  5
511
  8
0
 10
4.077739625034819
 20
3.098591134578954
 30
0.0
 42
-0.4142135623730924
  0
VERTEX
  5
512
  8
0
 10
3.952739625035816
 20
3.223591134577954
 30
0.0
  0
VERTEX
  5
513
  8
0
 10
3.952739625035816
 20
6.266898276900466
 30
0.0
 42
-0.4142135623730852
  0
SEQEND
  5
762
  8
0
  0
POLYLINE
  5
119
  8
0
 66
     1
 10
0.0
 20
0.0
 30
0.0
 70
     1
  0
VERTEX
  5
514
  8
0
 10
9.733251526945477
 20
6.327921898947225
 30
0.0
  0
VERTEX
  5
515
  8
0
 10
9.733251526945477
 20
3.162567512531199
 30
0.0
 42
-0.6681786379192992
  0
VERTEX
  5
516
  8
0
 10
9.866878005278878
 20
2.839964656246558
 30
0.0
 42
-0.6681786379192989
  0
VERTEX
  5
517
  8
0
 10
9.544275148994235
 20
2.973591134579955
 30
0.0
  0
VERTEX
  5
518
  8
0
 10
4.016715949782974
 20
2.973591134579955
 30
0.0
 42
-0.6684055149138053
  0
VERTEX
  5
519
  8
0
 10
3.694197164546133
 20
2.839643589140617
 30
0.0
 42
-0.6684055149138031
  0
VERTEX
  5
51A
  8
0
 10
3.827739625036817
 20
3.1623303149382
 30
0.0
  0
VERTEX
  5
51B
  8
0
 10
3.827739625036817
 20
6.327921898947225
 30
0.0
 42
-0.6681786379192985
  0
VERTEX
  5
51C
  8
0
 10
3.69411314670342
 20
6.650524755231865
 30
0.0
 42
-0.6681786379192992
  0
VERTEX
  5
51D
  8
0
 10
4.016716002988062
 20
6.516898276898467
 30
0.0
  0
VERTEX
  5
51E
  8
0
 10
9.544275146060935
 20
6.516898276898467
 30
0.0
 42
-0.6681786351127953
  0
VERTEX
  5
51F
  8
0
 10
9.866878001308496
 20
6.650524756268947
 30
0.0
 42
-0.6681786351127914
  0
SEQEND
  5
763
  8
0
  0
POLYLINE
  5
11A
  8
0
 66
     1
 10
0.0
 20
0.0
 30
0.0
 70
     1
  0
VERTEX
  5
520
  8
0
 10
2.699786960072613
 20
1.595638378685466
 30
0.0
  0
VERTEX
  5
521
  8
0
 10
10.86120428284197
 20
1.595638378685466
 30
0.0
 42
0.4142135623730943
  0
VERTEX
  5
522
  8
0
 10
11.11120428283997
 20
1.845638378683466
 30
0.0
  0
VERTEX
  5
523
  8
0
 10
11.11120428283997
 20
7.644850977062265
 30
0.0
 42
0.4142135623730957
  0
VERTEX
  5
524
  8
0
 10
10.86120428284197
 20
7.894850977060266
 30
0.0
  0
VERTEX
  5
525
  8
0
 10
2.699786960072613
 20
7.894850977060266
 30
0.0
 42
0.4142135623730885
  0
VERTEX
  5
526
  8
0
 10
2.449786960074612
 20
7.644850977062265
 30
0.0
  0
VERTEX
  5
527
  8
0
 10
2.449786960074612
 20
1.845638378683466
 30
0.0
 42
0.4142135623730887
  0
SEQEND
  5
764
  8
0
  0
POLYLINE
  5
11B
  8
0
 66
     1
 10
0.0
 20
0.0
 30
0.0
 70
     1
  0
VERTEX
  5
528
  8
0
 10
3.137211213530757
 20
7.501150189661841
 30
0.0
 42
-0.4227476555877466
  0
VERTEX
  5
529
  8
0
 10
2.843487747473038
 20
7.215837541343721
 30
0.0
  0
VERTEX
  5
52A
  8
0
 10
2.843487747473038
 20
2.274772157695451
 30
0.0
 42
-0.4144318412127784
  0
VERTEX
  5
52B
  8
0
 10
3.129133521059926
 20
1.98933916608389
 30
0.0
  0
VERTEX
  5
52C
  8
0
 10
10.43994442254986
 20
1.98933916608389
 30
0.0
 42
-0.4061556542276079
  0
VERTEX
  5
52D
  8
0
 10
10.71750349544154
 20
2.274663627253997
 30
0.0
  0
VERTEX
  5
52E
  8
0
 10
10.71750349544154
 20
7.215837541343721
 30
0.0
 42
-0.4057306593654372
  0
VERTEX
  5
52F
  8
0
 10
10.44036081977155
 20
7.501150189661841
 30
0.0
  0
SEQEND
  5
765
  8
0
  0
POLYLINE
  5
11C
  8
0
 66
     1
 10
0.0
 20
0.0
 30
0.0
 70
     1
  0
VERTEX
  5
530
  8
0
 10
10.71750349544154
 20
7.215837541343721
 30
0.0
 42
-0.4057306593654373
  0
VERTEX
  5
531
  8
0
 10
10.44036081977155
 20
7.501150189661841
 30
0.0
  0
VERTEX
  5
532
  8
0
 10
3.137211213530757
 20
7.501150189661841
 30
0.0
 42
-0.4227476555877487
  0
VERTEX
  5
533
  8
0
 10
2.843487747473038
 20
7.215837541343721
 30
0.0
  0
VERTEX
  5
534
  8
0
 10
2.843487747473038
 20
2.274772157695451
 30
0.0
 42
-0.414431841212781
  0
VERTEX
  5
535
  8
0
 10
3.129133521059926
 20
1.98933916608389
 30
0.0
  0
VERTEX
  5
536
  8
0
 10
10.43994442254986
 20
1.98933916608389
 30
0.0
 42
-0.4061556542276075
  0
VERTEX
  5
537
  8
0
 10
10.71750349544154
 20
2.274663627253997
 30
0.0
  0
SEQEND
  5
766
  8
0
  0
POLYLINE
  5
11D
  8
0
 66
     1
 10
0.0
 20
0.0
 30
0.0
 70
     1
  0
VERTEX
  5
538
  8
0
 10
9.733251524012177
 20
6.58087465485071
 30
0.0
 42
-0.4142135623730951
  0
VERTEX
  5
539
  8
0
 10
9.797227901964423
 20
6.516898276898467
 30
0.0
 42
-0.4142135623730951
  0
VERTEX
  5
53A
  8
0
 10
9.733251524012177
 20
6.452921898946222
 30
0.0
 42
-0.4142135623730951
  0
VERTEX
  5
53B
  8
0
 10
9.669275146059935
 20
6.516898276898467
 30
0.0
 42
-0.4142135623730951
  0
SEQEND
  5
767
  8
0
  0
POLYLINE
  5
11E
  8
0
 66
     1
 10
0.0
 20
0.0
 30
0.0
 70
     1
  0
VERTEX
  5
53C
  8
0
 10
10.71750349544154
 20
7.215837541343721
 30
0.0
 42
-0.4057306593654373
  0
VERTEX
  5
53D
  8
0
 10
10.44036081977155
 20
7.501150189661841
 30
0.0
  0
VERTEX
  5
53E
  8
0
 10
3.137211213530757
 20
7.501150189661841
 30
0.0
 42
-0.4227476555877487
  0
VERTEX
  5
53F
  8
0
 10
2.843487747473038
 20
7.215837541343721
 30
0.0
  0
VERTEX
  5
540
  8
0
 10
2.843487747473038
 20
2.274772157695451
 30
0.0
 42
-0.4144318412127807
  0
VERTEX
  5
541
  8
0
 10
3.129133521059926
 20
1.98933916608389
 30
0.0
  0
VERTEX
  5
542
  8
0
 10
10.43994442254986
 20
1.98933916608389
 30
0.0
 42
-0.4061556542276079
  0
VERTEX
  5
543
  8
0
 10
10.71750349544154
 20
2.274663627253997
 30
0.0
  0
SEQEND
  5
768
  8
0
  0
POLYLINE
  5
11F
  8
0
 66
     1
 10
0.0
 20
0.0
 30
0.0
 70
     1
  0
VERTEX
  5
544
  8
0
 10
9.733251524012177
 20
6.58087465485071
 30
0.0
 42
-0.4142135623730951
  0
VERTEX
  5
545
  8
0
 10
9.797227901964423
 20
6.516898276898467
 30
0.0
 42
-0.4142135623730951
  0
VERTEX
  5
546
  8
0
 10
9.733251524012177
 20
6.452921898946222
 30
0.0
 42
-0.4142135623730951
  0
VERTEX
  5
547
  8
0
 10
9.669275146059935
 20
6.516898276898467
 30
0.0
 42
-0.4142135623730951
  0
SEQEND
  5
769
  8
0
  0
POLYLINE
  5
120
  8
0
 66
     1
 10
0.0
 20
0.0
 30
0.0
 70
     1
  0
VERTEX
  5
548
  8
0
 10
10.86120428284197
 20
7.79642578021066
 30
0.0
 42
-0.4142135623730961
  0
VERTEX
  5
549
  8
0
 10
11.01277908599036
 20
7.644850977062269
 30
0.0
  0
VERTEX
  5
54A
  8
0
 10
11.01277908599036
 20
1.845638378683467
 30
0.0
 42
-0.4142135623730944
  0
VERTEX
  5
54B
  8
0
 10
10.86120428284197
 20
1.694063575535073
 30
0.0
  0
VERTEX
  5
54C
  8
0
 10
2.699786960072613
 20
1.694063575535073
 30
0.0
 42
-0.4142135623730866
  0
VERTEX
  5
54D
  8
0
 10
2.548212156924218
 20
1.845638378683467
 30
0.0
  0
VERTEX
  5
54E
  8
0
 10
2.548212156924218
 20
7.644850977062269
 30
0.0
 42
-0.414213562373087
  0
VERTEX
  5
54F
  8
0
 10
2.699786960072613
 20
7.79642578021066
 30
0.0
  0
SEQEND
  5
76A
  8
0
  0
POLYLINE
  5
121
  8
0
 66
     1
 10
0.0
 20
0.0
 30
0.0
 70
     1
  0
VERTEX
  5
550
  8
0
 10
11.9013879001324
 20
19.11655386511825
 30
0.0
  0
VERTEX
  5
551
  8
0
 10
11.68961149021662
 20
18.99428469784536
 30
0.0
  0
VERTEX
  5
552
  8
0
 10
11.47783508030073
 20
19.11655386511832
 30
0.0
  0
SEQEND
  5
76B
  8
0
  0
POLYLINE
  5
122
  8
0
 66
     1
 10
0.0
 20
0.0
 30
0.0
 70
     1
  0
VERTEX
  5
553
  8
0
 10
10.86700422129388
 20
19.11655386511829
 30
0.0
  0
VERTEX
  5
554
  8
0
 10
10.65522781137802
 20
18.99428469784536
 30
0.0
  0
VERTEX
  5
555
  8
0
 10
10.44345140146226
 20
19.11655386511825
 30
0.0
  0
SEQEND
  5
76C
  8
0
  0
POLYLINE
  5
123
  8
0
 66
     1
 10
0.0
 20
0.0
 30
0.0
 70
     1
  0
VERTEX
  5
556
  8
0
 10
8.798236863616657
 20
19.11655386511827
 30
0.0
  0
VERTEX
  5
557
  8
0
 10
8.586460453700841
 20
18.99428469784536
 30
0.0
  0
VERTEX
  5
558
  8
0
 10
8.374684043784992
 20
19.11655386511829
 30
0.0
  0
SEQEND
  5
76D
  8
0
  0
POLYLINE
  5
124
  8
0
 66
     1
 10
0.0
 20
0.0
 30
0.0
 70
     1
  0
VERTEX
  5
559
  8
0
 10
11.28826626479806
 20
1.361410292334332
 30
0.0
  0
VERTEX
  5
55A
  8
0
 10
11.28826626479806
 20
1.775110041634498
 30
0.0
  0
VERTEX
  5
55B
  8
0
 10
11.68961149021662
 20
2.006826815567871
 30
0.0
  0
VERTEX
  5
55C
  8
0
 10
12.09095671563518
 20
1.775110041634503
 30
0.0
  0
VERTEX
  5
55D
  8
0
 10
12.09095671563517
 20
1.361410292334332
 30
0.0
  0
SEQEND
  5
76E
  8
0
  0
POLYLINE
  5
125
  8
0
 66
     1
 10
0.0
 20
0.0
 30
0.0
 70
     1
  0
VERTEX
  5
55E
  8
0
 10
1.461609580476876
 20
2.20935634800475
 30
0.0
  0
VERTEX
  5
55F
  8
0
 10
1.461609580476876
 20
2.672789895871504
 30
0.0
  0
VERTEX
  5
560
  8
0
 10
1.862954805895435
 20
2.904506669804875
 30
0.0
  0
VERTEX
  5
561
  8
0
 10
2.264300031313996
 20
2.6727898958715
 30
0.0
  0
VERTEX
  5
562
  8
0
 10
2.264300031313996
 20
2.209356348004742
 30
0.0
  0
VERTEX
  5
563
  8
0
 10
1.862954805895431
 20
1.977639574071368
 30
0.0
  0
SEQEND
  5
76F
  8
0
  0
POLYLINE
  5
126
  8
0
 66
     1
 10
0.0
 20
0.0
 30
0.0
 70
     1
  0
VERTEX
  5
564
  8
0
 10
2.835788425517013
 20
7.58666947327428
 30
0.0
 42
0.4142135623730951
  0
VERTEX
  5
565
  8
0
 10
2.750158504257854
 20
7.501039552015122
 30
0.0
 42
0.4142135623730951
  0
VERTEX
  5
566
  8
0
 10
2.835788425517013
 20
7.415409630755964
 30
0.0
 42
0.4142135623730951
  0
VERTEX
  5
567
  8
0
 10
2.921418346776171
 20
7.501039552015122
 30
0.0
 42
0.4142135623730951
  0
SEQEND
  5
770
  8
0
  0
POLYLINE
  5
127
  8
0
 66
     1
 10
0.0
 20
0.0
 30
0.0
 70
     1
  0
VERTEX
  5
568
  8
0
 10
10.71746546870313
 20
7.586669490874077
 30
0.0
 42
0.4142135623730951
  0
VERTEX
  5
569
  8
0
 10
10.63183554744397
 20
7.501039569614918
 30
0.0
 42
0.4142135623730951
  0
VERTEX
  5
56A
  8
0
 10
10.71746546870313
 20
7.415409648355761
 30
0.0
 42
0.4142135623730951
  0
VERTEX
  5
56B
  8
0
 10
10.80309538996229
 20
7.501039569614918
 30
0.0
 42
0.4142135623730951
  0
SEQEND
  5
771
  8
0
  0
POLYLINE
  5
128
  8
0
 66
     1
 10
0.0
 20
0.0
 30
0.0
 70
     1
  0
VERTEX
  5
56C
  8
0
 10
10.70938777623233
 20
2.074858467318174
 30
0.0
 42
0.4142135623730951
  0
VERTEX
  5
56D
  8
0
 10
10.62375785497318
 20
1.989228546059016
 30
0.0
 42
0.4142135623730951
  0
VERTEX
  5
56E
  8
0
 10
10.70938777623233
 20
1.903598624799859
 30
0.0
 42
0.4142135623730951
  0
VERTEX
  5
56F
  8
0
 10
10.79501769749149
 20
1.989228546059016
 30
0.0
 42
0.4142135623730951
  0
SEQEND
  5
772
  8
0
  0
POLYLINE
  5
129
  8
0
 66
     1
 10
0.0
 20
0.0
 30
0.0
 70
     1
  0
VERTEX
  5
570
  8
0
 10
2.835372028295327
 20
2.074858467318169
 30
0.0
 42
0.4142135623730951
  0
VERTEX
  5
571
  8
0
 10
2.749742107036169
 20
1.989228546059011
 30
0.0
 42
0.4142135623730951
  0
VERTEX
  5
572
  8
0
 10
2.835372028295327
 20
1.903598624799853
 30
0.0
 42
0.4142135623730951
  0
VERTEX
  5
573
  8
0
 10
2.921001949554485
 20
1.989228546059011
 30
0.0
 42
0.4142135623730951
  0
SEQEND
  5
773
  8
0
  0
POLYLINE
  5
12A
  8
0
 66
     1
 10
0.0
 20
0.0
 30
0.0
 70
     1
  0
VERTEX
  5
574
  8
0
 10
9.403311370297638
 20
17.66996849093561
 30
0.0
 42
0.4142135623730951
  0
VERTEX
  5
575
  8
0
 10
9.465831055336508
 20
17.60744880589673
 30
0.0
 42
0.4142135623730951
  0
VERTEX
  5
576
  8
0
 10
9.528350740375377
 20
17.66996849093561
 30
0.0
 42
0.4142135623730951
  0
VERTEX
  5
577
  8
0
 10
9.465831055336508
 20
17.73248817597447
 30
0.0
 42
0.4142135623730951
  0
SEQEND
  5
774
  8
0
  0
POLYLINE
  5
12B
  8
0
 66
     1
 10
0.0
 20
0.0
 30
0.0
 70
     1
  0
VERTEX
  5
578
  8
0
 10
10.64311819229633
 20
17.66996849093561
 30
0.0
 42
0.4142135623730951
  0
VERTEX
  5
579
  8
0
 10
10.70563787733519
 20
17.60744880589673
 30
0.0
 42
0.4142135623730951
  0
VERTEX
  5
57A
  8
0
 10
10.76815756237407
 20
17.66996849093561
 30
0.0
 42
0.4142135623730951
  0
VERTEX
  5
57B
  8
0
 10
10.70563787733519
 20
17.73248817597447
 30
0.0
 42
0.4142135623730951
  0
SEQEND
  5
775
  8
0
  0
POLYLINE
  5
12C
  8
0
 66
     1
 10
0.0
 20
0.0
 30
0.0
 70
     1
  0
VERTEX
  5
57C
  8
0
 10
3.250609856651689
 20
17.6699684909356
 30
0.0
 42
0.4142135623730951
  0
VERTEX
  5
57D
  8
0
 10
3.313129541690558
 20
17.60744880589673
 30
0.0
 42
0.4142135623730951
  0
VERTEX
  5
57E
  8
0
 10
3.375649226729425
 20
17.6699684909356
 30
0.0
 42
0.4142135623730951
  0
VERTEX
  5
57F
  8
0
 10
3.313129541690558
 20
17.73248817597447
 30
0.0
 42
0.4142135623730951
  0
SEQEND
  5
776
  8
0
  0
POLYLINE
  5
12D
  8
0
 66
     1
 10
0.0
 20
0.0
 30
0.0
 70
     1
  0
VERTEX
  5
580
  8
0
 10
4.490416678650375
 20
17.6699684909356
 30
0.0
 42
0.4142135623730951
  0
VERTEX
  5
581
  8
0
 10
4.552936363689246
 20
17.60744880589673
 30
0.0
 42
0.4142135623730951
  0
VERTEX
  5
582
  8
0
 10
4.615456048728117
 20
17.6699684909356
 30
0.0
 42
0.4142135623730951
  0
VERTEX
  5
583
  8
0
 10
4.552936363689246
 20
17.73248817597447
 30
0.0
 42
0.4142135623730951
  0
SEQEND
  5
777
  8
0
  0
POLYLINE
  5
12F
  8
LAYER_1
 66
     1
 10
0.0
 20
0.0
 30
0.0
 70
     1
  0
VERTEX
  5
584
  8
LAYER_1
 10
9.538818958267479
 20
11.87898991135648
 30
0.0
  0
VERTEX
  5
585
  8
LAYER_1
 10
9.620844132539435
 20
11.83163265491024
 30
0.0
  0
VERTEX
  5
586
  8
LAYER_1
 10
10.02218935795799
 20
12.06334942884362
 30
0.0
  0
VERTEX
  5
587
  8
LAYER_1
 10
10.02218935795799
 20
12.52678297671037
 30
0.0
  0
VERTEX
  5
588
  8
LAYER_1
 10
9.62084413253943
 20
12.75849975064375
 30
0.0
  0
VERTEX
  5
589
  8
LAYER_1
 10
9.538818958267527
 20
12.71114249419754
 30
0.0
  0
SEQEND
  5
778
  8
LAYER_1
  0
POLYLINE
  5
130
  8
LAYER_1
 66
     1
 10
0.0
 20
0.0
 30
0.0
 70
     1
  0
VERTEX
  5
58A
  8
LAYER_1
 10
4.016486379261004
 20
12.77753070516053
 30
0.0
  0
VERTEX
  5
58B
  8
LAYER_1
 10
3.929733343227727
 20
12.7274438164537
 30
0.0
  0
VERTEX
  5
58C
  8
LAYER_1
 10
3.528388117809165
 20
12.95916059038708
 30
0.0
  0
VERTEX
  5
58D
  8
LAYER_1
 10
3.528388117809165
 20
13.42259413825384
 30
0.0
  0
VERTEX
  5
58E
  8
LAYER_1
 10
3.929733343227727
 20
13.6543109121872
 30
0.0
  0
VERTEX
  5
58F
  8
LAYER_1
 10
4.074765930700651
 20
13.57057630876844
 30
0.0
  0
VERTEX
  5
590
  8
LAYER_1
 10
4.053561570012671
 20
13.55828134332194
 30
0.0
  0
VERTEX
  5
591
  8
LAYER_1
 10
4.017873472090632
 20
13.5363194369612
 30
0.0
  0
VERTEX
  5
592
  8
LAYER_1
 10
4.016486379261023
 20
13.49470665209856
 30
0.0
  0
SEQEND
  5
779
  8
LAYER_1
  0
POLYLINE
  5
131
  8
LAYER_1
 66
     1
 10
0.0
 20
0.0
 30
0.0
 70
     1
  0
VERTEX
  5
593
  8
LAYER_1
 10
4.850270963765055
 20
14.01815427585012
 30
0.0
  0
VERTEX
  5
594
  8
LAYER_1
 10
4.308067903114049
 20
13.70459106005199
 30
0.0
  0
VERTEX
  5
595
  8
LAYER_1
 10
4.0475805129279
 20
13.85498352489649
 30
0.0
  0
VERTEX
  5
596
  8
LAYER_1
 10
4.047580512927906
 20
14.31841707276324
 30
0.0
  0
VERTEX
  5
597
  8
LAYER_1
 10
4.448925738346466
 20
14.55013384669662
 30
0.0
  0
VERTEX
  5
598
  8
LAYER_1
 10
4.850270963765025
 20
14.31841707276324
 30
0.0
  0
SEQEND
  5
77A
  8
LAYER_1
  0
POLYLINE
  5
132
  8
LAYER_1
 66
     1
 10
0.0
 20
0.0
 30
0.0
 70
     1
  0
VERTEX
  5
599
  8
LAYER_1
 10
5.626722148903887
 20
14.46733446743361
 30
0.0
  0
VERTEX
  5
59A
  8
LAYER_1
 10
5.081964191766493
 20
14.1521776534939
 30
0.0
  0
VERTEX
  5
59B
  8
LAYER_1
 10
5.081964191766501
 20
14.31841707276323
 30
0.0
  0
VERTEX
  5
59C
  8
LAYER_1
 10
5.483309417185062
 20
14.55013384669662
 30
0.0
  0
SEQEND
  5
77B
  8
LAYER_1
  0
POLYLINE
  5
133
  8
LAYER_1
 66
     1
 10
0.0
 20
0.0
 30
0.0
 70
     1
  0
VERTEX
  5
59D
  8
LAYER_1
 10
4.015989183577614
 20
10.98589660910765
 30
0.0
  0
VERTEX
  5
59E
  8
LAYER_1
 10
3.929236147544353
 20
10.93580972040083
 30
0.0
  0
VERTEX
  5
59F
  8
LAYER_1
 10
3.527890922125791
 20
11.16752649433421
 30
0.0
  0
VERTEX
  5
5A0
  8
LAYER_1
 10
3.527890922125791
 20
11.63096004220096
 30
0.0
  0
VERTEX
  5
5A1
  8
LAYER_1
 10
3.929236147544353
 20
11.86267681613434
 30
0.0
  0
VERTEX
  5
5A2
  8
LAYER_1
 10
4.015989183577666
 20
11.81258992742748
 30
0.0
  0
SEQEND
  5
77C
  8
LAYER_1
  0
POLYLINE
  5
134
  8
LAYER_1
 66
     1
 10
0.0
 20
0.0
 30
0.0
 70
     1
  0
VERTEX
  5
5A3
  8
LAYER_1
 10
6.401834709057032
 20
14.91575748118116
 30
0.0
  0
VERTEX
  5
5A4
  8
LAYER_1
 10
5.85818121631034
 20
14.60123962895634
 30
0.0
  0
VERTEX
  5
5A5
  8
LAYER_1
 10
5.599144258219845
 20
14.75079468643995
 30
0.0
  0
VERTEX
  5
5A6
  8
LAYER_1
 10
5.599144258219845
 20
15.2142282343067
 30
0.0
  0
VERTEX
  5
5A7
  8
LAYER_1
 10
6.000489483638403
 20
15.44594500824008
 30
0.0
  0
VERTEX
  5
5A8
  8
LAYER_1
 10
6.401834709056964
 20
15.2142282343067
 30
0.0
  0
SEQEND
  5
77D
  8
LAYER_1
  0
POLYLINE
  5
135
  8
LAYER_1
 66
     1
 10
0.0
 20
0.0
 30
0.0
 70
     1
  0
VERTEX
  5
5A9
  8
LAYER_1
 10
4.496780331306662
 20
10.06506224005548
 30
0.0
  0
VERTEX
  5
5AA
  8
LAYER_1
 10
4.442856455102154
 20
10.03392927561306
 30
0.0
  0
VERTEX
  5
5AB
  8
LAYER_1
 10
4.041511229683596
 20
10.26564604954644
 30
0.0
  0
VERTEX
  5
5AC
  8
LAYER_1
 10
4.041511229683554
 20
10.32812621694626
 30
0.0
  0
VERTEX
  5
5AD
  8
LAYER_1
 10
4.050357874096049
 20
10.32275503998182
 30
0.0
  0
SEQEND
  5
77E
  8
LAYER_1
  0
POLYLINE
  5
136
  8
LAYER_1
 66
     1
 10
0.0
 20
0.0
 30
0.0
 70
     1
  0
VERTEX
  5
5AE
  8
LAYER_1
 10
5.362479073384629
 20
9.56707723755338
 30
0.0
  0
VERTEX
  5
5AF
  8
LAYER_1
 10
5.362479073384634
 20
9.3709204414476
 30
0.0
  0
VERTEX
  5
5B0
  8
LAYER_1
 10
4.961133847966074
 20
9.139203667514225
 30
0.0
  0
VERTEX
  5
5B1
  8
LAYER_1
 10
4.559788622547514
 20
9.370920441447595
 30
0.0
  0
VERTEX
  5
5B2
  8
LAYER_1
 10
4.559788622547514
 20
9.834353989314355
 30
0.0
  0
VERTEX
  5
5B3
  8
LAYER_1
 10
4.729604832311113
 20
9.932397423734184
 30
0.0
  0
SEQEND
  5
77F
  8
LAYER_1
  0
POLYLINE
  5
137
  8
LAYER_1
 66
     1
 10
0.0
 20
0.0
 30
0.0
 70
     1
  0
VERTEX
  5
5B4
  8
LAYER_1
 10
6.047993880162511
 20
9.168693577683449
 30
0.0
  0
VERTEX
  5
5B5
  8
LAYER_1
 10
5.993607371635608
 20
9.137293512345158
 30
0.0
  0
VERTEX
  5
5B6
  8
LAYER_1
 10
5.592262146217036
 20
9.36901028627853
 30
0.0
  0
VERTEX
  5
5B7
  8
LAYER_1
 10
5.592262146217036
 20
9.431523894995113
 30
0.0
  0
SEQEND
  5
780
  8
LAYER_1
  0
POLYLINE
  5
138
  8
LAYER_1
 66
     1
 10
0.0
 20
0.0
 30
0.0
 70
     1
  0
VERTEX
  5
5B8
  8
LAYER_1
 10
8.987805679119424
 20
13.85782743033808
 30
0.0
  0
VERTEX
  5
5B9
  8
LAYER_1
 10
8.18791773641334
 20
14.32003510158716
 30
0.0
  0
VERTEX
  5
5BA
  8
LAYER_1
 10
8.586460453700845
 20
14.55013384669662
 30
0.0
  0
VERTEX
  5
5BB
  8
LAYER_1
 10
8.987805679119399
 20
14.31841707276324
 30
0.0
  0
SEQEND
  5
781
  8
LAYER_1
  0
POLYLINE
  5
139
  8
LAYER_1
 66
     1
 10
0.0
 20
0.0
 30
0.0
 70
     1
  0
VERTEX
  5
5BC
  8
LAYER_1
 10
6.919038321442219
 20
8.826693367134432
 30
0.0
  0
VERTEX
  5
5BD
  8
LAYER_1
 10
6.919038321442219
 20
8.468227167901333
 30
0.0
  0
VERTEX
  5
5BE
  8
LAYER_1
 10
6.517693096023646
 20
8.236510393967958
 30
0.0
  0
VERTEX
  5
5BF
  8
LAYER_1
 10
6.116347870605097
 20
8.468227167901334
 30
0.0
  0
VERTEX
  5
5C0
  8
LAYER_1
 10
6.116347870605097
 20
8.931660715768086
 30
0.0
  0
VERTEX
  5
5C1
  8
LAYER_1
 10
6.286708797964823
 20
9.03001864303862
 30
0.0
  0
VERTEX
  5
5C2
  8
LAYER_1
 10
6.325894840901443
 20
9.007419207159849
 30
0.0
  0
VERTEX
  5
5C3
  8
LAYER_1
 10
6.629673656580825
 20
8.832574099588545
 30
0.0
  0
VERTEX
  5
5C4
  8
LAYER_1
 10
6.74940086460418
 20
8.764221611171699
 30
0.0
  0
VERTEX
  5
5C5
  8
LAYER_1
 10
6.779407508254145
 20
8.752218953708594
 30
0.0
  0
VERTEX
  5
5C6
  8
LAYER_1
 10
6.809316370485874
 20
8.764182498616483
 30
0.0
  0
VERTEX
  5
5C7
  8
LAYER_1
 10
6.843089495024975
 20
8.783188175589043
 30
0.0
  0
SEQEND
  5
782
  8
LAYER_1
  0
POLYLINE
  5
13A
  8
LAYER_1
 66
     1
 10
0.0
 20
0.0
 30
0.0
 70
     1
  0
VERTEX
  5
5C8
  8
LAYER_1
 10
8.478096539069925
 20
9.72612448631845
 30
0.0
  0
VERTEX
  5
5C9
  8
LAYER_1
 10
8.163474752480179
 20
9.544252696175564
 30
0.0
  0
VERTEX
  5
5CA
  8
LAYER_1
 10
7.767021694093306
 20
9.315503631240029
 30
0.0
  0
VERTEX
  5
5CB
  8
LAYER_1
 10
8.076751313651338
 20
9.136681152012226
 30
0.0
  0
VERTEX
  5
5CC
  8
LAYER_1
 10
8.47809653906989
 20
9.3683979259456
 30
0.0
  0
SEQEND
  5
783
  8
LAYER_1
  0
POLYLINE
  5
13B
  8
LAYER_1
 66
     1
 10
0.0
 20
0.0
 30
0.0
 70
     1
  0
VERTEX
  5
5CD
  8
LAYER_1
 10
9.315094852118918
 20
10.21447084346914
 30
0.0
  0
VERTEX
  5
5CE
  8
LAYER_1
 10
9.389641518308762
 20
10.25767387291678
 30
0.0
  0
VERTEX
  5
5CF
  8
LAYER_1
 10
9.510859556291942
 20
10.328553528747
 30
0.0
  0
VERTEX
  5
5D0
  8
LAYER_1
 10
9.547720859516232
 20
10.35549063494761
 30
0.0
  0
VERTEX
  5
5D1
  8
LAYER_1
 10
9.543674384862937
 20
10.39595538161511
 30
0.0
  0
VERTEX
  5
5D2
  8
LAYER_1
 10
9.54367438486292
 20
10.91465297154926
 30
0.0
  0
VERTEX
  5
5D3
  8
LAYER_1
 10
9.625699559134882
 20
10.96201022799542
 30
0.0
  0
VERTEX
  5
5D4
  8
LAYER_1
 10
10.02704478455344
 20
10.73029345406205
 30
0.0
  0
VERTEX
  5
5D5
  8
LAYER_1
 10
10.02704478455344
 20
10.26685990619529
 30
0.0
  0
VERTEX
  5
5D6
  8
LAYER_1
 10
9.625699559134874
 20
10.03514313226192
 30
0.0
  0
SEQEND
  5
784
  8
LAYER_1
  0
POLYLINE
  5
13C
  8
LAYER_1
 66
     1
 10
0.0
 20
0.0
 30
0.0
  0
VERTEX
  5
5D7
  8
LAYER_1
 10
9.538818958267488
 20
12.71114249419734
 30
0.0
  0
VERTEX
  5
5D8
  8
LAYER_1
 10
9.538818958267488
 20
11.8789899113563
 30
0.0
  0
SEQEND
  5
785
  8
LAYER_1
  0
POLYLINE
  5
13D
  8
LAYER_1
 66
     1
 10
0.0
 20
0.0
 30
0.0
 70
     1
  0
VERTEX
  5
5D9
  8
LAYER_1
 10
9.538818958267488
 20
10.3969264669342
 30
0.0
  0
VERTEX
  5
5DA
  8
LAYER_1
 10
9.542865432920786
 20
10.3564617202667
 30
0.0
  0
VERTEX
  5
5DB
  8
LAYER_1
 10
9.506004129696494
 20
10.32952461406609
 30
0.0
  0
VERTEX
  5
5DC
  8
LAYER_1
 10
9.384786091713314
 20
10.25864495823587
 30
0.0
  0
VERTEX
  5
5DD
  8
LAYER_1
 10
9.078610256156216
 20
10.08120276912383
 30
0.0
  0
VERTEX
  5
5DE
  8
LAYER_1
 10
8.155980280144437
 20
9.547862827234946
 30
0.0
  0
VERTEX
  5
5DF
  8
LAYER_1
 10
7.234348052616242
 20
9.016091143799466
 30
0.0
  0
VERTEX
  5
5E0
  8
LAYER_1
 10
6.929446911146855
 20
8.840625368375386
 30
0.0
  0
VERTEX
  5
5E1
  8
LAYER_1
 10
6.843089495024975
 20
8.791157903149228
 30
0.0
  0
VERTEX
  5
5E2
  8
LAYER_1
 10
6.809316370485874
 20
8.77215222617667
 30
0.0
  0
VERTEX
  5
5E3
  8
LAYER_1
 10
6.779407508254145
 20
8.760188681268783
 30
0.0
  0
VERTEX
  5
5E4
  8
LAYER_1
 10
6.74940086460418
 20
8.772191338731886
 30
0.0
  0
VERTEX
  5
5E5
  8
LAYER_1
 10
6.629673656580825
 20
8.840543827148732
 30
0.0
  0
VERTEX
  5
5E6
  8
LAYER_1
 10
6.325894840901443
 20
9.015388934720033
 30
0.0
  0
VERTEX
  5
5E7
  8
LAYER_1
 10
5.407409476731129
 20
9.545099248331557
 30
0.0
  0
VERTEX
  5
5E8
  8
LAYER_1
 10
4.05642715734036
 20
10.32493998194977
 30
0.0
  0
VERTEX
  5
5E9
  8
LAYER_1
 10
4.01847516199452
 20
10.34798226483668
 30
0.0
  0
VERTEX
  5
5EA
  8
LAYER_1
 10
4.01847516199452
 20
13.4908223108222
 30
0.0
  0
VERTEX
  5
5EB
  8
LAYER_1
 10
4.019862254824126
 20
13.53243509568484
 30
0.0
  0
VERTEX
  5
5EC
  8
LAYER_1
 10
4.055550352746168
 20
13.55439700204558
 30
0.0
  0
VERTEX
  5
5ED
  8
LAYER_1
 10
4.236938617348278
 20
13.65957171014
 30
0.0
  0
VERTEX
  5
5EE
  8
LAYER_1
 10
4.931242147247589
 20
14.06109664309377
 30
0.0
  0
VERTEX
  5
5EF
  8
LAYER_1
 10
6.736904657313768
 20
15.10571992260154
 30
0.0
  0
VERTEX
  5
5F0
  8
LAYER_1
 10
6.77152495299535
 20
15.12702471993236
 30
0.0
  0
VERTEX
  5
5F1
  8
LAYER_1
 10
6.809974257893075
 20
15.10993614002868
 30
0.0
  0
VERTEX
  5
5F2
  8
LAYER_1
 10
6.930923607921548
 20
15.04086714115174
 30
0.0
  0
VERTEX
  5
5F3
  8
LAYER_1
 10
7.236901673101965
 20
14.86476426214157
 30
0.0
  0
VERTEX
  5
5F4
  8
LAYER_1
 10
8.159303132558648
 20
14.3326854381141
 30
0.0
  0
VERTEX
  5
5F5
  8
LAYER_1
 10
9.080850956423248
 20
13.80017775688553
 30
0.0
  0
VERTEX
  5
5F6
  8
LAYER_1
 10
9.385740878280641
 20
13.62355081587315
 30
0.0
  0
VERTEX
  5
5F7
  8
LAYER_1
 10
9.472093795240932
 20
13.57329710615786
 30
0.0
  0
VERTEX
  5
5F8
  8
LAYER_1
 10
9.505214529354143
 20
13.55368980991051
 30
0.0
  0
VERTEX
  5
5F9
  8
LAYER_1
 10
9.540184507513636
 20
13.5285114256485
 30
0.0
  0
VERTEX
  5
5FA
  8
LAYER_1
 10
9.538818958267488
 20
13.48891049700187
 30
0.0
  0
SEQEND
  5
786
  8
LAYER_1
  0
POLYLINE
  5
13E
  8
LAYER_1
 66
     1
 10
0.0
 20
0.0
 30
0.0
 70
     1
  0
VERTEX
  5
5FB
  8
LAYER_1
 10
7.436218387895567
 20
14.75367458410223
 30
0.0
  0
VERTEX
  5
5FC
  8
LAYER_1
 10
7.236901673101965
 20
14.86864860341793
 30
0.0
  0
VERTEX
  5
5FD
  8
LAYER_1
 10
6.930923607921548
 20
15.0447514824281
 30
0.0
  0
VERTEX
  5
5FE
  8
LAYER_1
 10
6.809974257893075
 20
15.11382048130504
 30
0.0
  0
VERTEX
  5
5FF
  8
LAYER_1
 10
6.77152495299535
 20
15.13090906120871
 30
0.0
  0
VERTEX
  5
600
  8
LAYER_1
 10
6.736904657313768
 20
15.1096042638779
 30
0.0
  0
VERTEX
  5
601
  8
LAYER_1
 10
6.633527937058429
 20
15.04979811077017
 30
0.0
  0
VERTEX
  5
602
  8
LAYER_1
 10
6.633527937058441
 20
15.2142282343067
 30
0.0
  0
VERTEX
  5
603
  8
LAYER_1
 10
7.034873162476995
 20
15.44594500824008
 30
0.0
  0
VERTEX
  5
604
  8
LAYER_1
 10
7.436218387895558
 20
15.2142282343067
 30
0.0
  0
SEQEND
  5
787
  8
LAYER_1
  0
POLYLINE
  5
13F
  8
LAYER_1
 66
     1
 10
0.0
 20
0.0
 30
0.0
 70
     1
  0
VERTEX
  5
605
  8
LAYER_1
 10
2.443575456883933
 20
1.951487606564391
 30
0.0
  0
VERTEX
  5
606
  8
LAYER_1
 10
2.373923369158109
 20
1.990485972041558
 30
0.0
  0
VERTEX
  5
607
  8
LAYER_1
 10
1.972578143739549
 20
1.765771849401039
 30
0.0
  0
VERTEX
  5
608
  8
LAYER_1
 10
1.972578143739554
 20
1.3619836210427
 30
0.0
  0
VERTEX
  5
609
  8
LAYER_1
 10
2.77526859457667
 20
1.3619836210427
 30
0.0
  0
VERTEX
  5
60A
  8
LAYER_1
 10
2.775268594576667
 20
1.589923149826342
 30
0.0
  0
VERTEX
  5
60B
  8
LAYER_1
 10
2.751549826573252
 20
1.588706670723978
 30
0.0
  0
VERTEX
  5
60C
  8
LAYER_1
 10
2.728846363076969
 20
1.588405748903973
 30
0.0
  0
VERTEX
  5
60D
  8
LAYER_1
 10
2.707142824330332
 20
1.588996953204173
 30
0.0
  0
VERTEX
  5
60E
  8
LAYER_1
 10
2.686423830575858
 20
1.590456852462424
 30
0.0
  0
VERTEX
  5
60F
  8
LAYER_1
 10
2.666674002056063
 20
1.592762015516572
 30
0.0
  0
VERTEX
  5
610
  8
LAYER_1
 10
2.647877959013462
 20
1.595889011204463
 30
0.0
  0
VERTEX
  5
611
  8
LAYER_1
 10
2.630020321690573
 20
1.599814408363943
 30
0.0
  0
VERTEX
  5
612
  8
LAYER_1
 10
2.61308571032991
 20
1.604514775832857
 30
0.0
  0
VERTEX
  5
613
  8
LAYER_1
 10
2.597058745173991
 20
1.609966682449051
 30
0.0
  0
VERTEX
  5
614
  8
LAYER_1
 10
2.58192404646533
 20
1.616146697050373
 30
0.0
  0
VERTEX
  5
615
  8
LAYER_1
 10
2.567666234446445
 20
1.623031388474666
 30
0.0
  0
VERTEX
  5
616
  8
LAYER_1
 10
2.554269929359852
 20
1.630597325559778
 30
0.0
  0
VERTEX
  5
617
  8
LAYER_1
 10
2.541719751448066
 20
1.638821077143555
 30
0.0
  0
VERTEX
  5
618
  8
LAYER_1
 10
2.530000320953604
 20
1.647679212063841
 30
0.0
  0
VERTEX
  5
619
  8
LAYER_1
 10
2.519096258118981
 20
1.657148299158483
 30
0.0
  0
VERTEX
  5
61A
  8
LAYER_1
 10
2.508992183186714
 20
1.667204907265328
 30
0.0
  0
VERTEX
  5
61B
  8
LAYER_1
 10
2.499672716399319
 20
1.67782560522222
 30
0.0
  0
VERTEX
  5
61C
  8
LAYER_1
 10
2.491122477999312
 20
1.688986961867007
 30
0.0
  0
VERTEX
  5
61D
  8
LAYER_1
 10
2.483326088229208
 20
1.700665546037532
 30
0.0
  0
VERTEX
  5
61E
  8
LAYER_1
 10
2.476268167331525
 20
1.712837926571644
 30
0.0
  0
VERTEX
  5
61F
  8
LAYER_1
 10
2.469933335548777
 20
1.725480672307188
 30
0.0
  0
VERTEX
  5
620
  8
LAYER_1
 10
2.464306213123482
 20
1.738570352082008
 30
0.0
  0
VERTEX
  5
621
  8
LAYER_1
 10
2.459371420298156
 20
1.752083534733953
 30
0.0
  0
VERTEX
  5
622
  8
LAYER_1
 10
2.455113577315313
 20
1.765996789100867
 30
0.0
  0
VERTEX
  5
623
  8
LAYER_1
 10
2.451517304417471
 20
1.780286684020596
 30
0.0
  0
VERTEX
  5
624
  8
LAYER_1
 10
2.448567221847146
 20
1.794929788330986
 30
0.0
  0
VERTEX
  5
625
  8
LAYER_1
 10
2.446247949846853
 20
1.809902670869883
 30
0.0
  0
VERTEX
  5
626
  8
LAYER_1
 10
2.444544108659109
 20
1.825181900475133
 30
0.0
  0
VERTEX
  5
627
  8
LAYER_1
 10
2.44344031852643
 20
1.840744045984583
 30
0.0
  0
VERTEX
  5
628
  8
LAYER_1
 10
2.442921199691332
 20
1.856565676236077
 30
0.0
  0
VERTEX
  5
629
  8
LAYER_1
 10
2.442971372396331
 20
1.872623360067462
 30
0.0
  0
VERTEX
  5
62A
  8
LAYER_1
 10
2.443575456883942
 20
1.888893666316583
 30
0.0
  0
VERTEX
  5
62B
  8
LAYER_1
 10
2.444034972803928
 20
1.904218606608482
 30
0.0
  0
VERTEX
  5
62C
  8
LAYER_1
 10
2.443983915479484
 20
1.919710038698021
 30
0.0
  0
SEQEND
  5
788
  8
LAYER_1
  0
POLYLINE
  5
140
  8
LAYER_1
 66
     1
 10
0.0
 20
0.0
 30
0.0
 70
     1
  0
VERTEX
  5
62D
  8
LAYER_1
 10
1.375679545154465
 20
1.992226485424726
 30
0.0
  0
VERTEX
  5
62E
  8
LAYER_1
 10
1.74761747758232
 20
1.777488020015669
 30
0.0
  0
VERTEX
  5
62F
  8
LAYER_1
 10
1.74761747758232
 20
1.361116745580265
 30
0.0
  0
VERTEX
  5
630
  8
LAYER_1
 10
1.375679545154465
 20
1.361116745580265
 30
0.0
  0
SEQEND
  5
789
  8
LAYER_1
  0
POLYLINE
  5
141
  8
LAYER_1
 66
     1
 10
0.0
 20
0.0
 30
0.0
 70
     1
  0
VERTEX
  5
631
  8
LAYER_1
 10
4.211581461597811
 20
13.3806654164938
 30
0.0
  0
VERTEX
  5
632
  8
LAYER_1
 10
4.213209065544897
 20
13.41964204970313
 30
0.0
  0
VERTEX
  5
633
  8
LAYER_1
 10
5.503124425380426
 20
14.16516526217481
 30
0.0
  0
VERTEX
  5
634
  8
LAYER_1
 10
6.77795242094977
 20
14.90238352775861
 30
0.0
  0
VERTEX
  5
635
  8
LAYER_1
 10
7.160709345650507
 20
14.68189589658033
 30
0.0
  0
VERTEX
  5
636
  8
LAYER_1
 10
8.062997147619823
 20
14.16088323669758
 30
0.0
  0
VERTEX
  5
637
  8
LAYER_1
 10
8.963156878288451
 20
13.64057734361658
 30
0.0
  0
VERTEX
  5
638
  8
LAYER_1
 10
9.259948261043828
 20
13.46875997487158
 30
0.0
  0
VERTEX
  5
639
  8
LAYER_1
 10
9.33960284342226
 20
13.42237865405139
 30
0.0
  0
VERTEX
  5
63A
  8
LAYER_1
 10
9.340248249575803
 20
11.95162396303862
 30
0.0
  0
VERTEX
  5
63B
  8
LAYER_1
 10
9.34034363886821
 20
10.46570605850548
 30
0.0
  0
VERTEX
  5
63C
  8
LAYER_1
 10
6.77863394529061
 20
8.986315006430727
 30
0.0
  0
VERTEX
  5
63D
  8
LAYER_1
 10
5.49448919334862
 20
9.72733792945875
 30
0.0
  0
VERTEX
  5
63E
  8
LAYER_1
 10
4.216652525195118
 20
10.46512211551534
 30
0.0
  0
VERTEX
  5
63F
  8
LAYER_1
 10
4.213369358560652
 20
10.90000405983871
 30
0.0
  0
VERTEX
  5
640
  8
LAYER_1
 10
4.210257896047483
 20
11.38430309309451
 30
0.0
  0
VERTEX
  5
641
  8
LAYER_1
 10
4.207472183831983
 20
11.9396043632507
 30
0.0
  0
VERTEX
  5
642
  8
LAYER_1
 10
4.206484768254072
 20
12.22180995879145
 30
0.0
  0
VERTEX
  5
643
  8
LAYER_1
 10
4.205918486498645
 20
12.49532431760966
 30
0.0
  0
VERTEX
  5
644
  8
LAYER_1
 10
4.205886499512889
 20
12.75130505078203
 30
0.0
  0
VERTEX
  5
645
  8
LAYER_1
 10
4.206501614725313
 20
12.98090561682523
 30
0.0
  0
VERTEX
  5
646
  8
LAYER_1
 10
4.207876095065753
 20
13.17531343862868
 30
0.0
  0
VERTEX
  5
647
  8
LAYER_1
 10
4.208880729534307
 20
13.25639597429519
 30
0.0
  0
VERTEX
  5
648
  8
LAYER_1
 10
4.210114083385345
 20
13.3252868304035
 30
0.0
  0
SEQEND
  5
78A
  8
LAYER_1
  0
POLYLINE
  5
142
  8
LAYER_1
 66
     1
 10
0.0
 20
0.0
 30
0.0
 70
     1
  0
VERTEX
  5
649
  8
LAYER_1
 10
6.290687800070998
 20
13.55387546355723
 30
0.0
  0
VERTEX
  5
64A
  8
LAYER_1
 10
6.5933405840825
 20
13.02916641209415
 30
0.0
  0
VERTEX
  5
64B
  8
LAYER_1
 10
7.231662601873724
 20
11.92322902962642
 30
0.0
  0
VERTEX
  5
64C
  8
LAYER_1
 10
7.864958556271453
 20
10.82633856126697
 30
0.0
  0
VERTEX
  5
64D
  8
LAYER_1
 10
8.073254479331128
 20
10.46574693397565
 30
0.0
  0
VERTEX
  5
64E
  8
LAYER_1
 10
8.152533150102482
 20
10.32877025212876
 30
0.0
  0
VERTEX
  5
64F
  8
LAYER_1
 10
7.267180116521081
 20
10.32953612845539
 30
0.0
  0
VERTEX
  5
650
  8
LAYER_1
 10
7.187030440930452
 20
10.46789152231691
 30
0.0
  0
VERTEX
  5
651
  8
LAYER_1
 10
6.977473993138503
 20
10.83053903391399
 30
0.0
  0
VERTEX
  5
652
  8
LAYER_1
 10
6.341710480950922
 20
11.93143060773919
 30
0.0
  0
VERTEX
  5
653
  8
LAYER_1
 10
5.404568890162959
 20
13.55464133988386
 30
0.0
  0
VERTEX
  5
654
  8
LAYER_1
 10
5.404299430123079
 20
13.55538531985951
 30
0.0
  0
VERTEX
  5
655
  8
LAYER_1
 10
5.404360697219976
 20
13.55610567918219
 30
0.0
  0
VERTEX
  5
656
  8
LAYER_1
 10
5.404747513759925
 20
13.55680269904729
 30
0.0
  0
VERTEX
  5
657
  8
LAYER_1
 10
5.405454702049205
 20
13.55747666065018
 30
0.0
  0
VERTEX
  5
658
  8
LAYER_1
 10
5.407809483100852
 20
13.55875653385085
 30
0.0
  0
VERTEX
  5
659
  8
LAYER_1
 10
5.411383618825136
 20
13.55994754834726
 30
0.0
  0
VERTEX
  5
65A
  8
LAYER_1
 10
5.416135687672253
 20
13.56105195370245
 30
0.0
  0
VERTEX
  5
65B
  8
LAYER_1
 10
5.422024268092417
 20
13.56207199947946
 30
0.0
  0
VERTEX
  5
65C
  8
LAYER_1
 10
5.437045277452723
 20
13.56386801055107
 30
0.0
  0
VERTEX
  5
65D
  8
LAYER_1
 10
5.45611527450771
 20
13.56535357806646
 30
0.0
  0
VERTEX
  5
65E
  8
LAYER_1
 10
5.478902886859044
 20
13.56654669852994
 30
0.0
  0
VERTEX
  5
65F
  8
LAYER_1
 10
5.505076742108403
 20
13.56746536844586
 30
0.0
  0
VERTEX
  5
660
  8
LAYER_1
 10
5.534305467857437
 20
13.56812758431853
 30
0.0
  0
VERTEX
  5
661
  8
LAYER_1
 10
5.566257691707823
 20
13.56855134265232
 30
0.0
  0
VERTEX
  5
662
  8
LAYER_1
 10
5.600602041261227
 20
13.56875463995152
 30
0.0
  0
VERTEX
  5
663
  8
LAYER_1
 10
5.675141627883742
 20
13.56857183746355
 30
0.0
  0
VERTEX
  5
664
  8
LAYER_1
 10
5.755273248538304
 20
13.56772314888928
 30
0.0
  0
VERTEX
  5
665
  8
LAYER_1
 10
5.838345924038253
 20
13.56635254626339
 30
0.0
  0
VERTEX
  5
666
  8
LAYER_1
 10
5.921708675196911
 20
13.56460400162054
 30
0.0
  0
VERTEX
  5
667
  8
LAYER_1
 10
6.002710522827607
 20
13.56262148699539
 30
0.0
  0
VERTEX
  5
668
  8
LAYER_1
 10
6.147027590758433
 20
13.55853043593684
 30
0.0
  0
VERTEX
  5
669
  8
LAYER_1
 10
6.250089294337356
 20
13.55523116936501
 30
0.0
  0
SEQEND
  5
78B
  8
LAYER_1
  0
POLYLINE
  5
143
  8
LAYER_1
 66
     1
 10
0.0
 20
0.0
 30
0.0
 70
     1
  0
VERTEX
  5
66A
  8
LAYER_1
 10
5.543805591760551
 20
13.48330040210319
 30
0.0
  0
VERTEX
  5
66B
  8
LAYER_1
 10
5.600899481842581
 20
13.48384041561439
 30
0.0
  0
VERTEX
  5
66C
  8
LAYER_1
 10
5.674587856931644
 20
13.48365970065593
 30
0.0
  0
VERTEX
  5
66D
  8
LAYER_1
 10
5.754123208364624
 20
13.48281732727748
 30
0.0
  0
VERTEX
  5
66E
  8
LAYER_1
 10
5.836682005843192
 20
13.48145520304188
 30
0.0
  0
VERTEX
  5
66F
  8
LAYER_1
 10
6.000543930437028
 20
13.47773555442575
 30
0.0
  0
VERTEX
  5
670
  8
LAYER_1
 10
6.144449532054903
 20
13.47365616747401
 30
0.0
  0
VERTEX
  5
671
  8
LAYER_1
 10
6.240742465891098
 20
13.47053602063931
 30
0.0
  0
VERTEX
  5
672
  8
LAYER_1
 10
7.15812098469801
 20
11.88078036789354
 30
0.0
  0
VERTEX
  5
673
  8
LAYER_1
 10
7.791431325652309
 20
10.78386498152115
 30
0.0
  0
VERTEX
  5
674
  8
LAYER_1
 10
8.005307803911515
 20
10.41381088100351
 30
0.0
  0
VERTEX
  5
675
  8
LAYER_1
 10
7.316212977834211
 20
10.41440698379424
 30
0.0
  0
VERTEX
  5
676
  8
LAYER_1
 10
6.415241579772176
 20
11.9738974879414
 30
0.0
  0
SEQEND
  5
78C
  8
LAYER_1
  0
POLYLINE
  5
144
  8
LAYER_1
 66
     1
 10
0.0
 20
0.0
 30
0.0
 70
     1
  0
VERTEX
  5
677
  8
LAYER_1
 10
4.943393311835445
 20
11.90820191917522
 30
0.0
  0
VERTEX
  5
678
  8
LAYER_1
 10
5.237977202373526
 20
11.90839345616517
 30
0.0
  0
VERTEX
  5
679
  8
LAYER_1
 10
5.634097118768146
 20
11.90813789492878
 30
0.0
  0
VERTEX
  5
67A
  8
LAYER_1
 10
6.095824146094434
 20
11.10832013820174
 30
0.0
  0
VERTEX
  5
67B
  8
LAYER_1
 10
6.496607098821204
 20
10.41291761534007
 30
0.0
  0
VERTEX
  5
67C
  8
LAYER_1
 10
5.808682500716912
 20
10.41291761534007
 30
0.0
  0
VERTEX
  5
67D
  8
LAYER_1
 10
5.357807743872786
 20
11.1915527169702
 30
0.0
  0
SEQEND
  5
78D
  8
LAYER_1
  0
POLYLINE
  5
145
  8
LAYER_1
 66
     1
 10
0.0
 20
0.0
 30
0.0
 70
     1
  0
VERTEX
  5
67E
  8
LAYER_1
 10
5.683142603509031
 20
11.99301950989035
 30
0.0
  0
VERTEX
  5
67F
  8
LAYER_1
 10
5.84063788998942
 20
11.72058294032781
 30
0.0
  0
VERTEX
  5
680
  8
LAYER_1
 10
6.169378336376677
 20
11.15074701968174
 30
0.0
  0
VERTEX
  5
681
  8
LAYER_1
 10
6.495103144727842
 20
10.5857935606179
 30
0.0
  0
VERTEX
  5
682
  8
LAYER_1
 10
6.643551517099935
 20
10.32800437580213
 30
0.0
  0
VERTEX
  5
683
  8
LAYER_1
 10
5.759730236171784
 20
10.32800437580213
 30
0.0
  0
VERTEX
  5
684
  8
LAYER_1
 10
5.284312506417756
 20
11.14902379794683
 30
0.0
  0
VERTEX
  5
685
  8
LAYER_1
 10
4.955847296835381
 20
11.71670569142426
 30
0.0
  0
VERTEX
  5
686
  8
LAYER_1
 10
4.796257817274374
 20
11.99301950989035
 30
0.0
  0
VERTEX
  5
687
  8
LAYER_1
 10
4.836439399082709
 20
11.99323940016382
 30
0.0
  0
VERTEX
  5
688
  8
LAYER_1
 10
4.936772189575317
 20
11.99334261396564
 30
0.0
  0
VERTEX
  5
689
  8
LAYER_1
 10
5.237976988656791
 20
11.99330671351284
 30
0.0
  0
SEQEND
  5
78E
  8
LAYER_1
  0
POLYLINE
  5
146
  8
LAYER_1
 66
     1
 10
0.0
 20
0.0
 30
0.0
 70
     1
  0
VERTEX
  5
68A
  8
LAYER_1
 10
7.808916663892162
 20
13.54304008459375
 30
0.0
  0
VERTEX
  5
68B
  8
LAYER_1
 10
8.768559701156434
 20
11.87802495050553
 30
0.0
  0
VERTEX
  5
68C
  8
LAYER_1
 10
8.325500246202422
 20
11.87831215412801
 30
0.0
  0
VERTEX
  5
68D
  8
LAYER_1
 10
8.026281938843136
 20
11.87834805458083
 30
0.0
  0
VERTEX
  5
68E
  8
LAYER_1
 10
7.92598205709894
 20
11.878244840779
 30
0.0
  0
VERTEX
  5
68F
  8
LAYER_1
 10
7.884738420228286
 20
11.87802495050553
 30
0.0
  0
VERTEX
  5
690
  8
LAYER_1
 10
7.729035404020383
 20
12.14779698846046
 30
0.0
  0
VERTEX
  5
691
  8
LAYER_1
 10
7.402197083291212
 20
12.71491524482876
 30
0.0
  0
VERTEX
  5
692
  8
LAYER_1
 10
6.925095382964017
 20
13.54304008459375
 30
0.0
  0
SEQEND
  5
78F
  8
LAYER_1
  0
POLYLINE
  5
147
  8
LAYER_1
 66
     1
 10
0.0
 20
0.0
 30
0.0
 70
     1
  0
VERTEX
  5
693
  8
LAYER_1
 10
7.933730848316157
 20
11.96305024722147
 30
0.0
  0
VERTEX
  5
694
  8
LAYER_1
 10
7.47576576977157
 20
12.7573169763803
 30
0.0
  0
VERTEX
  5
695
  8
LAYER_1
 10
7.072013142273931
 20
13.45812684505581
 30
0.0
  0
VERTEX
  5
696
  8
LAYER_1
 10
7.759849781809323
 20
13.45812684505581
 30
0.0
  0
VERTEX
  5
697
  8
LAYER_1
 10
8.6215572162906
 20
11.96303349903641
 30
0.0
  0
VERTEX
  5
698
  8
LAYER_1
 10
8.325532861755418
 20
11.96322539036389
 30
0.0
  0
VERTEX
  5
699
  8
LAYER_1
 10
8.026190116410987
 20
11.96326130574687
 30
0.0
  0
SEQEND
  5
790
  8
LAYER_1
  0
POLYLINE
  5
148
  8
LAYER_1
 66
     1
 10
0.0
 20
0.0
 30
0.0
 70
     1
  0
VERTEX
  5
69A
  8
LAYER_1
 10
2.835788407772234
 20
7.563548442802898
 30
0.0
 42
0.4142135623730951
  0
VERTEX
  5
69B
  8
LAYER_1
 10
2.773268722733365
 20
7.501028757764027
 30
0.0
 42
0.4142135623730951
  0
VERTEX
  5
69C
  8
LAYER_1
 10
2.835788407772234
 20
7.438509072725157
 30
0.0
 42
0.4142135623730951
  0
VERTEX
  5
69D
  8
LAYER_1
 10
2.898308092811103
 20
7.501028757764027
 30
0.0
 42
0.4142135623730951
  0
SEQEND
  5
791
  8
LAYER_1
  0
POLYLINE
  5
149
  8
LAYER_1
 66
     1
 10
0.0
 20
0.0
 30
0.0
 70
     1
  0
VERTEX
  5
69E
  8
LAYER_1
 10
10.70938777623233
 20
2.051748231097885
 30
0.0
 42
0.4142135623730951
  0
VERTEX
  5
69F
  8
LAYER_1
 10
10.64686809119346
 20
1.989228546059016
 30
0.0
 42
0.4142135623730951
  0
VERTEX
  5
6A0
  8
LAYER_1
 10
10.70938777623233
 20
1.926708861020147
 30
0.0
 42
0.4142135623730951
  0
VERTEX
  5
6A1
  8
LAYER_1
 10
10.7719074612712
 20
1.989228546059016
 30
0.0
 42
0.4142135623730951
  0
SEQEND
  5
792
  8
LAYER_1
  0
POLYLINE
  5
14A
  8
LAYER_1
 66
     1
 10
0.0
 20
0.0
 30
0.0
 70
     1
  0
VERTEX
  5
6A2
  8
LAYER_1
 10
10.71746546870313
 20
7.563559254653789
 30
0.0
 42
0.4142135623730951
  0
VERTEX
  5
6A3
  8
LAYER_1
 10
10.65494578366426
 20
7.501039569614918
 30
0.0
 42
0.4142135623730951
  0
VERTEX
  5
6A4
  8
LAYER_1
 10
10.71746546870313
 20
7.438519884576047
 30
0.0
 42
0.4142135623730951
  0
VERTEX
  5
6A5
  8
LAYER_1
 10
10.779985153742
 20
7.501039569614918
 30
0.0
 42
0.4142135623730951
  0
SEQEND
  5
793
  8
LAYER_1
  0
POLYLINE
  5
14B
  8
LAYER_1
 66
     1
 10
0.0
 20
0.0
 30
0.0
 70
     1
  0
VERTEX
  5
6A6
  8
LAYER_1
 10
2.835372028295327
 20
2.05174823109788
 30
0.0
 42
0.4142135623730951
  0
VERTEX
  5
6A7
  8
LAYER_1
 10
2.772852343256456
 20
1.989228546059011
 30
0.0
 42
0.4142135623730951
  0
VERTEX
  5
6A8
  8
LAYER_1
 10
2.835372028295327
 20
1.926708861020142
 30
0.0
 42
0.4142135623730951
  0
VERTEX
  5
6A9
  8
LAYER_1
 10
2.897891713334196
 20
1.989228546059011
 30
0.0
 42
0.4142135623730951
  0
SEQEND
  5
794
  8
LAYER_1
  0
POLYLINE
  5
14C
  8
LAYER_1
 66
     1
 10
0.0
 20
0.0
 30
0.0
 70
     1
  0
VERTEX
  5
6AA
  8
LAYER_1
 10
9.465831055336508
 20
17.55776376652706
 30
0.0
 42
0.4142135623730951
  0
VERTEX
  5
6AB
  8
LAYER_1
 10
9.57803577974506
 20
17.66996849093561
 30
0.0
 42
0.4142135623730951
  0
VERTEX
  5
6AC
  8
LAYER_1
 10
9.465831055336508
 20
17.78217321534416
 30
0.0
 42
0.4142135623730951
  0
VERTEX
  5
6AD
  8
LAYER_1
 10
9.353626330927954
 20
17.66996849093561
 30
0.0
 42
0.4142135623730951
  0
SEQEND
  5
795
  8
LAYER_1
  0
POLYLINE
  5
14D
  8
LAYER_1
 66
     1
 10
0.0
 20
0.0
 30
0.0
 70
     1
  0
VERTEX
  5
6AE
  8
LAYER_1
 10
10.70563787733519
 20
17.55776376652706
 30
0.0
 42
0.4142135623730951
  0
VERTEX
  5
6AF
  8
LAYER_1
 10
10.81784260174375
 20
17.66996849093561
 30
0.0
 42
0.4142135623730951
  0
VERTEX
  5
6B0
  8
LAYER_1
 10
10.70563787733519
 20
17.78217321534416
 30
0.0
 42
0.4142135623730951
  0
VERTEX
  5
6B1
  8
LAYER_1
 10
10.59343315292664
 20
17.66996849093561
 30
0.0
 42
0.4142135623730951
  0
SEQEND
  5
796
  8
LAYER_1
  0
POLYLINE
  5
14E
  8
LAYER_1
 66
     1
 10
0.0
 20
0.0
 30
0.0
 70
     1
  0
VERTEX
  5
6B2
  8
LAYER_1
 10
3.313129541690558
 20
17.55776376652705
 30
0.0
 42
0.4142135623730951
  0
VERTEX
  5
6B3
  8
LAYER_1
 10
3.425334266099109
 20
17.6699684909356
 30
0.0
 42
0.4142135623730951
  0
VERTEX
  5
6B4
  8
LAYER_1
 10
3.313129541690558
 20
17.78217321534414
 30
0.0
 42
0.4142135623730951
  0
VERTEX
  5
6B5
  8
LAYER_1
 10
3.200924817282004
 20
17.6699684909356
 30
0.0
 42
0.4142135623730951
  0
SEQEND
  5
797
  8
LAYER_1
  0
POLYLINE
  5
14F
  8
LAYER_1
 66
     1
 10
0.0
 20
0.0
 30
0.0
 70
     1
  0
VERTEX
  5
6B6
  8
LAYER_1
 10
4.552936363689246
 20
17.55776376652705
 30
0.0
 42
0.4142135623730951
  0
VERTEX
  5
6B7
  8
LAYER_1
 10
4.665141088097797
 20
17.6699684909356
 30
0.0
 42
0.4142135623730951
  0
VERTEX
  5
6B8
  8
LAYER_1
 10
4.552936363689246
 20
17.78217321534414
 30
0.0
 42
0.4142135623730951
  0
VERTEX
  5
6B9
  8
LAYER_1
 10
4.440731639280694
 20
17.6699684909356
 30
0.0
 42
0.4142135623730951
  0
SEQEND
  5
798
  8
LAYER_1
  0
ENDSEC
  0
EOF
