  0
SECTION
  2
HEADER
  9
$ACADVER
  1
AC1009
  9
$DWGCODEPAGE
  3
ansi_1252
  9
$INSBASE
 10
0.0
 20
0.0
 30
0.0
  9
$EXTMIN
 10
2.407568106162483
 20
7.486151682943886
 30
0.0
  9
$EXTMAX
 10
10.53997228274878
 20
16.85871253639462
 30
0.0
  9
$LIMMIN
 10
0.0
 20
0.0
  9
$LIMMAX
 10
12.0
 20
9.0
  9
$ORTHOMODE
 70
     0
  9
$REGENMODE
 70
     1
  9
$FILLMODE
 70
     1
  9
$QTEXTMODE
 70
     0
  9
$MIRRTEXT
 70
     1
  9
$DRAGMODE
 70
     2
  9
$LTSCALE
 40
1.0
  9
$OSMODE
 70
    37
  9
$ATTMODE
 70
     1
  9
$TEXTSIZE
 40
0.2
  9
$TRACEWID
 40
0.05
  9
$TEXTSTYLE
  7
STANDARD
  9
$CLAYER
  8
0
  9
$CELTYPE
  6
BYLAYER
  9
$CECOLOR
 62
   256
  9
$DIMSCALE
 40
1.0
  9
$DIMASZ
 40
0.18
  9
$DIMEXO
 40
0.0625
  9
$DIMDLI
 40
0.38
  9
$DIMRND
 40
0.0
  9
$DIMDLE
 40
0.0
  9
$DIMEXE
 40
0.18
  9
$DIMTP
 40
0.0
  9
$DIMTM
 40
0.0
  9
$DIMTXT
 40
0.18
  9
$DIMCEN
 40
0.09
  9
$DIMTSZ
 40
0.0
  9
$DIMTOL
 70
     0
  9
$DIMLIM
 70
     0
  9
$DIMTIH
 70
     1
  9
$DIMTOH
 70
     1
  9
$DIMSE1
 70
     0
  9
$DIMSE2
 70
     0
  9
$DIMTAD
 70
     0
  9
$DIMZIN
 70
     0
  9
$DIMBLK
  1

  9
$DIMASO
 70
     1
  9
$DIMSHO
 70
     1
  9
$DIMPOST
  1

  9
$DIMAPOST
  1

  9
$DIMALT
 70
     0
  9
$DIMALTD
 70
     2
  9
$DIMALTF
 40
25.4
  9
$DIMLFAC
 40
1.0
  9
$DIMTOFL
 70
     0
  9
$DIMTVP
 40
0.0
  9
$DIMTIX
 70
     0
  9
$DIMSOXD
 70
     0
  9
$DIMSAH
 70
     0
  9
$DIMBLK1
  1

  9
$DIMBLK2
  1

  9
$DIMSTYLE
  2
STANDARD
  9
$DIMCLRD
 70
     0
  9
$DIMCLRE
 70
     0
  9
$DIMCLRT
 70
     0
  9
$DIMTFAC
 40
1.0
  9
$DIMGAP
 40
0.09
  9
$LUNITS
 70
     2
  9
$LUPREC
 70
     4
  9
$SKETCHINC
 40
0.1
  9
$FILLETRAD
 40
0.5
  9
$AUNITS
 70
     0
  9
$AUPREC
 70
     0
  9
$MENU
  1
.
  9
$ELEVATION
 40
0.0
  9
$PELEVATION
 40
0.0
  9
$THICKNESS
 40
0.0
  9
$LIMCHECK
 70
     0
  9
$CHAMFERA
 40
0.0
  9
$CHAMFERB
 40
0.0
  9
$SKPOLY
 70
     0
  9
$TDCREATE
 40
2454910.5
  9
$TDUPDATE
 40
2460165.066203125
  9
$TDINDWG
 40
0.0000000116
  9
$TDUSRTIMER
 40
0.0000000116
  9
$USRTIMER
 70
     1
  9
$ANGBASE
 50
0.0
  9
$ANGDIR
 70
     0
  9
$PDMODE
 70
     0
  9
$PDSIZE
 40
0.0
  9
$PLINEWID
 40
0.0
  9
$COORDS
 70
     1
  9
$SPLFRAME
 70
     0
  9
$SPLINETYPE
 70
     6
  9
$SPLINESEGS
 70
     8
  9
$ATTDIA
 70
     0
  9
$ATTREQ
 70
     1
  9
$HANDLING
 70
     1
  9
$HANDSEED
  5
112
  9
$SURFTAB1
 70
     6
  9
$SURFTAB2
 70
     6
  9
$SURFTYPE
 70
     6
  9
$SURFU
 70
     6
  9
$SURFV
 70
     6
  9
$UCSNAME
  2

  9
$UCSORG
 10
0.0
 20
0.0
 30
0.0
  9
$UCSXDIR
 10
1.0
 20
0.0
 30
0.0
  9
$UCSYDIR
 10
0.0
 20
1.0
 30
0.0
  9
$PUCSNAME
  2

  9
$PUCSORG
 10
0.0
 20
0.0
 30
0.0
  9
$PUCSXDIR
 10
1.0
 20
0.0
 30
0.0
  9
$PUCSYDIR
 10
0.0
 20
1.0
 30
0.0
  9
$USERI1
 70
     0
  9
$USERI2
 70
     0
  9
$USERI3
 70
     0
  9
$USERI4
 70
     0
  9
$USERI5
 70
     0
  9
$USERR1
 40
0.0
  9
$USERR2
 40
0.0
  9
$USERR3
 40
0.0
  9
$USERR4
 40
0.0
  9
$USERR5
 40
0.0
  9
$WORLDVIEW
 70
     1
  9
$SHADEDGE
 70
     3
  9
$SHADEDIF
 70
    70
  9
$TILEMODE
 70
     1
  9
$MAXACTVP
 70
    64
  9
$PLIMCHECK
 70
     0
  9
$PEXTMIN
 10
1.000000000000000E+20
 20
1.000000000000000E+20
 30
1.000000000000000E+20
  9
$PEXTMAX
 10
-1.000000000000000E+20
 20
-1.000000000000000E+20
 30
-1.000000000000000E+20
  9
$PLIMMIN
 10
0.0
 20
0.0
  9
$PLIMMAX
 10
12.0
 20
9.0
  9
$UNITMODE
 70
     0
  9
$VISRETAIN
 70
     1
  9
$PLINEGEN
 70
     0
  9
$PSLTSCALE
 70
     1
  0
ENDSEC
  0
SECTION
  2
TABLES
  0
TABLE
  2
VPORT
 70
     1
  0
VPORT
  2
*ACTIVE
 70
     0
 10
0.0
 20
0.0
 11
1.0
 21
1.0
 12
10.42990654205607
 22
4.5
 13
0.0
 23
0.0
 14
0.5
 24
0.5
 15
0.5
 25
0.5
 16
0.0
 26
0.0
 36
1.0
 17
0.0
 27
0.0
 37
0.0
 40
9.0
 41
1.972972972850329
 42
50.0
 43
0.0
 44
0.0
 50
0.0
 51
0.0
 71
     0
 72
   100
 73
     1
 74
     3
 75
     0
 76
     0
 77
     0
 78
     0
  0
ENDTAB
  0
TABLE
  2
LTYPE
 70
     2
  0
LTYPE
  2
CONTINUOUS
 70
     0
  3
Solid line
 72
    65
 73
     0
 40
0.0
  0
LTYPE
  2
CONTINUOUS2
 70
     0
  3
Solid Line
 72
    65
 73
     0
 40
0.0
  0
ENDTAB
  0
TABLE
  2
LAYER
 70
     2
  0
LAYER
  2
0
 70
     0
 62
     7
  6
CONTINUOUS
  0
LAYER
  2
LAYER_1
 70
     0
 62
     7
  6
CONTINUOUS
  0
ENDTAB
  0
TABLE
  2
STYLE
 70
     1
  0
STYLE
  2
STANDARD
 70
     0
 40
0.0
 41
1.0
 50
0.0
 71
     0
 42
0.2
  3
txt
  4

  0
ENDTAB
  0
TABLE
  2
VIEW
 70
     0
  0
ENDTAB
  0
TABLE
  2
UCS
 70
     0
  0
ENDTAB
  0
TABLE
  2
APPID
 70
     1
  0
APPID
  2
ACAD
 70
     0
  0
ENDTAB
  0
TABLE
  2
DIMSTYLE
 70
     1
  0
DIMSTYLE
  2
STANDARD
 70
     0
  3

  4

  5

  6

  7

 40
1.0
 41
0.18
 42
0.0625
 43
0.38
 44
0.18
 45
0.0
 46
0.0
 47
0.0
 48
0.0
140
0.18
141
0.09
142
0.0
143
25.4
144
1.0
145
0.0
146
1.0
147
0.09
 71
     0
 72
     0
 73
     1
 74
     1
 75
     0
 76
     0
 77
     0
 78
     0
170
     0
171
     2
172
     0
173
     0
174
     0
175
     0
176
     0
177
     0
178
     0
  0
ENDTAB
  0
ENDSEC
  0
SECTION
  2
BLOCKS
  0
BLOCK
  8
0
  2
$MODEL_SPACE
 70
     0
 10
0.0
 20
0.0
 30
0.0
  3
$MODEL_SPACE
  1

  0
ENDBLK
  5
21
  8
0
  0
BLOCK
 67
     1
  8
0
  2
$PAPER_SPACE
 70
     0
 10
0.0
 20
0.0
 30
0.0
  3
$PAPER_SPACE
  1

  0
ENDBLK
  5
1D
 67
     1
  8
0
  0
ENDSEC
  0
SECTION
  2
ENTITIES
  0
POLYLINE
  5
70
  8
LAYER_1
 66
     1
 10
0.0
 20
0.0
 30
0.0
 70
     1
  0
VERTEX
  5
7F
  8
LAYER_1
 10
2.41352488433294
 20
9.895578343868449
 30
0.0
  0
VERTEX
  5
80
  8
LAYER_1
 10
2.407568106162483
 20
9.836010561965855
 30
0.0
  0
VERTEX
  5
81
  8
LAYER_1
 10
2.461831292069765
 20
9.796356695343896
 30
0.0
  0
VERTEX
  5
82
  8
LAYER_1
 10
2.640275252403273
 20
9.692015405022277
 30
0.0
  0
VERTEX
  5
83
  8
LAYER_1
 10
3.090993887717371
 20
9.430804388227946
 30
0.0
  0
VERTEX
  5
84
  8
LAYER_1
 10
4.449189001094805
 20
8.645679558473613
 30
0.0
  0
VERTEX
  5
85
  8
LAYER_1
 10
5.805915338093829
 20
7.862863347584171
 30
0.0
  0
VERTEX
  5
86
  8
LAYER_1
 10
6.254757507949399
 20
7.604561791226628
 30
0.0
  0
VERTEX
  5
87
  8
LAYER_1
 10
6.381883467033938
 20
7.531741190023362
 30
0.0
  0
VERTEX
  5
88
  8
LAYER_1
 10
6.431600573463516
 20
7.50376310751823
 30
0.0
  0
VERTEX
  5
89
  8
LAYER_1
 10
6.475629134843454
 20
7.486151682943886
 30
0.0
  0
VERTEX
  5
8A
  8
LAYER_1
 10
6.519801639351076
 20
7.503820684751522
 30
0.0
  0
VERTEX
  5
8B
  8
LAYER_1
 10
6.696050962593928
 20
7.604441755135821
 30
0.0
  0
VERTEX
  5
8C
  8
LAYER_1
 10
7.143240966962539
 20
7.861829632048095
 30
0.0
  0
VERTEX
  5
8D
  8
LAYER_1
 10
8.495334835316207
 20
8.64161131935327
 30
0.0
  0
VERTEX
  5
8E
  8
LAYER_1
 10
10.48410349898732
 20
9.789607700515077
 30
0.0
  0
VERTEX
  5
8F
  8
LAYER_1
 10
10.53997228274878
 20
9.8235280335107
 30
0.0
  0
VERTEX
  5
90
  8
LAYER_1
 10
10.53997228274878
 20
14.45007399837965
 30
0.0
  0
VERTEX
  5
91
  8
LAYER_1
 10
10.53793035613469
 20
14.51133179676462
 30
0.0
  0
VERTEX
  5
92
  8
LAYER_1
 10
10.48539423497702
 20
14.54366171739927
 30
0.0
  0
VERTEX
  5
93
  8
LAYER_1
 10
10.21837423669826
 20
14.69848843916072
 30
0.0
  0
VERTEX
  5
94
  8
LAYER_1
 10
9.19629638747617
 20
15.28956960497584
 30
0.0
  0
VERTEX
  5
95
  8
LAYER_1
 10
6.538197191326256
 20
16.82734993992741
 30
0.0
  0
VERTEX
  5
96
  8
LAYER_1
 10
6.487232972039062
 20
16.85871253639462
 30
0.0
  0
VERTEX
  5
97
  8
LAYER_1
 10
6.430632103454037
 20
16.83355659487616
 30
0.0
  0
VERTEX
  5
98
  8
LAYER_1
 10
6.252583676190759
 20
16.73188075602468
 30
0.0
  0
VERTEX
  5
99
  8
LAYER_1
 10
5.802156176831669
 20
16.4726413253298
 30
0.0
  0
VERTEX
  5
9A
  8
LAYER_1
 10
4.444297460576077
 20
15.68937297559596
 30
0.0
  0
VERTEX
  5
9B
  8
LAYER_1
 10
3.087695373434995
 20
14.9054733091154
 30
0.0
  0
VERTEX
  5
9C
  8
LAYER_1
 10
2.638869719867177
 20
14.64546241156057
 30
0.0
  0
VERTEX
  5
9D
  8
LAYER_1
 10
2.511750383957099
 20
14.57148438706646
 30
0.0
  0
VERTEX
  5
9E
  8
LAYER_1
 10
2.462993655481298
 20
14.54262066635277
 30
0.0
  0
VERTEX
  5
9F
  8
LAYER_1
 10
2.411514671830182
 20
14.50555579814284
 30
0.0
  0
VERTEX
  5
A0
  8
LAYER_1
 10
2.41352488433294
 20
14.44725963481466
 30
0.0
  0
SEQEND
  5
10A
  8
LAYER_1
  0
POLYLINE
  5
71
  8
LAYER_1
 66
     1
 10
0.0
 20
0.0
 30
0.0
 70
     1
  0
VERTEX
  5
A1
  8
LAYER_1
 10
4.776360348339468
 20
12.19533667294643
 30
0.0
  0
VERTEX
  5
A2
  8
LAYER_1
 10
5.450526534078946
 20
13.36456942964155
 30
0.0
  0
VERTEX
  5
A3
  8
LAYER_1
 10
6.044887068570827
 20
14.3962252004157
 30
0.0
  0
VERTEX
  5
A4
  8
LAYER_1
 10
5.032329069255408
 20
14.3962252004157
 30
0.0
  0
VERTEX
  5
A5
  8
LAYER_1
 10
3.763817469694563
 20
12.19531201809704
 30
0.0
  0
VERTEX
  5
A6
  8
LAYER_1
 10
4.199592203037135
 20
12.19559449955772
 30
0.0
  0
VERTEX
  5
A7
  8
LAYER_1
 10
4.64025190901075
 20
12.19564737026312
 30
0.0
  0
SEQEND
  5
10B
  8
LAYER_1
  0
POLYLINE
  5
72
  8
LAYER_1
 66
     1
 10
0.0
 20
0.0
 30
0.0
 70
     1
  0
VERTEX
  5
A8
  8
LAYER_1
 10
4.960098162818076
 20
14.5212252004157
 30
0.0
  0
VERTEX
  5
A9
  8
LAYER_1
 10
3.547416461933932
 20
12.07017171460394
 30
0.0
  0
VERTEX
  5
AA
  8
LAYER_1
 10
4.199640216093131
 20
12.07059450441865
 30
0.0
  0
VERTEX
  5
AB
  8
LAYER_1
 10
4.64011673805177
 20
12.07064735314549
 30
0.0
  0
VERTEX
  5
AC
  8
LAYER_1
 10
4.787767272718076
 20
12.07049541305583
 30
0.0
  0
VERTEX
  5
AD
  8
LAYER_1
 10
4.848481651734652
 20
12.07017171460394
 30
0.0
  0
VERTEX
  5
AE
  8
LAYER_1
 10
5.077690631770002
 20
12.46730065383491
 30
0.0
  0
VERTEX
  5
AF
  8
LAYER_1
 10
5.558826321722028
 20
13.30215023008229
 30
0.0
  0
VERTEX
  5
B0
  8
LAYER_1
 10
6.261163352618798
 20
14.5212252004157
 30
0.0
  0
SEQEND
  5
10C
  8
LAYER_1
  0
POLYLINE
  5
73
  8
LAYER_1
 66
     1
 10
0.0
 20
0.0
 30
0.0
 70
     1
  0
VERTEX
  5
B1
  8
LAYER_1
 10
8.29454736717279
 20
14.43328296252729
 30
0.0
  0
VERTEX
  5
B2
  8
LAYER_1
 10
8.210499975987508
 20
14.43407791145714
 30
0.0
  0
VERTEX
  5
B3
  8
LAYER_1
 10
8.102023995842883
 20
14.43381188262664
 30
0.0
  0
VERTEX
  5
B4
  8
LAYER_1
 10
7.98494073552656
 20
14.43257183251339
 30
0.0
  0
VERTEX
  5
B5
  8
LAYER_1
 10
7.863406688056728
 20
14.43056666193721
 30
0.0
  0
VERTEX
  5
B6
  8
LAYER_1
 10
7.622187053925605
 20
14.42509100137418
 30
0.0
  0
VERTEX
  5
B7
  8
LAYER_1
 10
7.410344939549579
 20
14.41908577331148
 30
0.0
  0
VERTEX
  5
B8
  8
LAYER_1
 10
7.268592996095028
 20
14.41449263381451
 30
0.0
  0
VERTEX
  5
B9
  8
LAYER_1
 10
5.918128504634507
 20
12.07422793923245
 30
0.0
  0
VERTEX
  5
BA
  8
LAYER_1
 10
4.98583816863902
 20
10.45946887406583
 30
0.0
  0
VERTEX
  5
BB
  8
LAYER_1
 10
4.670992569438246
 20
9.914715631621947
 30
0.0
  0
VERTEX
  5
BC
  8
LAYER_1
 10
5.685402733605634
 20
9.915593149065
 30
0.0
  0
VERTEX
  5
BD
  8
LAYER_1
 10
7.011714453316196
 20
12.21130479637889
 30
0.0
  0
SEQEND
  5
10D
  8
LAYER_1
  0
POLYLINE
  5
74
  8
LAYER_1
 66
     1
 10
0.0
 20
0.0
 30
0.0
 70
     1
  0
VERTEX
  5
BE
  8
LAYER_1
 10
7.195068928394154
 20
14.53717586226543
 30
0.0
  0
VERTEX
  5
BF
  8
LAYER_1
 10
6.749536544901277
 20
13.76475648703265
 30
0.0
  0
VERTEX
  5
C0
  8
LAYER_1
 10
5.809868565466156
 20
12.13671622428063
 30
0.0
  0
VERTEX
  5
C1
  8
LAYER_1
 10
4.87759940778846
 20
10.52199384069197
 30
0.0
  0
VERTEX
  5
C2
  8
LAYER_1
 10
4.570968892639792
 20
9.991170218172215
 30
0.0
  0
VERTEX
  5
C3
  8
LAYER_1
 10
4.454263489567853
 20
9.789528102949278
 30
0.0
  0
VERTEX
  5
C4
  8
LAYER_1
 10
5.757583558380358
 20
9.790655542455173
 30
0.0
  0
VERTEX
  5
C5
  8
LAYER_1
 10
5.875571159646615
 20
9.994327246971444
 30
0.0
  0
VERTEX
  5
C6
  8
LAYER_1
 10
6.184057281675805
 20
10.52817731789453
 30
0.0
  0
VERTEX
  5
C7
  8
LAYER_1
 10
7.119958908511553
 20
12.14878969208936
 30
0.0
  0
VERTEX
  5
C8
  8
LAYER_1
 10
8.499516436712561
 20
14.53830330177132
 30
0.0
  0
VERTEX
  5
C9
  8
LAYER_1
 10
8.499913106362293
 20
14.53939850786006
 30
0.0
  0
VERTEX
  5
CA
  8
LAYER_1
 10
8.499822915631686
 20
14.54045894220252
 30
0.0
  0
VERTEX
  5
CB
  8
LAYER_1
 10
8.499253486556118
 20
14.54148501874384
 30
0.0
  0
VERTEX
  5
CC
  8
LAYER_1
 10
8.498212441170956
 20
14.54247715142915
 30
0.0
  0
VERTEX
  5
CD
  8
LAYER_1
 10
8.494745989613367
 20
14.54436124101229
 30
0.0
  0
VERTEX
  5
CE
  8
LAYER_1
 10
8.48948453724191
 20
14.54611452251305
 30
0.0
  0
VERTEX
  5
CF
  8
LAYER_1
 10
8.482489060339578
 20
14.54774030749251
 30
0.0
  0
VERTEX
  5
D0
  8
LAYER_1
 10
8.473820535189367
 20
14.54924190751177
 30
0.0
  0
VERTEX
  5
D1
  8
LAYER_1
 10
8.451708245277274
 20
14.55188579891403
 30
0.0
  0
VERTEX
  5
D2
  8
LAYER_1
 10
8.423635477769583
 20
14.55407268920857
 30
0.0
  0
VERTEX
  5
D3
  8
LAYER_1
 10
8.390090042930243
 20
14.55582907088411
 30
0.0
  0
VERTEX
  5
D4
  8
LAYER_1
 10
8.3515597510232
 20
14.55718143642939
 30
0.0
  0
VERTEX
  5
D5
  8
LAYER_1
 10
8.308532412312402
 20
14.55815627833314
 30
0.0
  0
VERTEX
  5
D6
  8
LAYER_1
 10
8.261495837061803
 20
14.5587800890841
 30
0.0
  0
VERTEX
  5
D7
  8
LAYER_1
 10
8.210937835535347
 20
14.55907936117098
 30
0.0
  0
VERTEX
  5
D8
  8
LAYER_1
 10
8.101208794710665
 20
14.55881025930747
 30
0.0
  0
VERTEX
  5
D9
  8
LAYER_1
 10
7.983247771949946
 20
14.55756091265246
 30
0.0
  0
VERTEX
  5
DA
  8
LAYER_1
 10
7.860957249364781
 20
14.55554326111581
 30
0.0
  0
VERTEX
  5
DB
  8
LAYER_1
 10
7.738239709066759
 20
14.55296924460736
 30
0.0
  0
VERTEX
  5
DC
  8
LAYER_1
 10
7.61899763316747
 20
14.55005080303697
 30
0.0
  0
VERTEX
  5
DD
  8
LAYER_1
 10
7.406549803011448
 20
14.54402840434976
 30
0.0
  0
VERTEX
  5
DE
  8
LAYER_1
 10
7.254833615789437
 20
14.53917158433298
 30
0.0
  0
SEQEND
  5
10E
  8
LAYER_1
  0
POLYLINE
  5
75
  8
LAYER_1
 66
     1
 10
0.0
 20
0.0
 30
0.0
 70
     1
  0
VERTEX
  5
DF
  8
LAYER_1
 10
9.178408769694215
 20
12.11459495300867
 30
0.0
  0
VERTEX
  5
E0
  8
LAYER_1
 10
8.744754530171187
 20
12.11487691285231
 30
0.0
  0
VERTEX
  5
E1
  8
LAYER_1
 10
8.161630039587997
 20
12.11450070350355
 30
0.0
  0
VERTEX
  5
E2
  8
LAYER_1
 10
7.481925923600278
 20
10.93709633011117
 30
0.0
  0
VERTEX
  5
E3
  8
LAYER_1
 10
6.891937020062284
 20
9.913400663443385
 30
0.0
  0
VERTEX
  5
E4
  8
LAYER_1
 10
7.90462450237909
 20
9.913400663443385
 30
0.0
  0
VERTEX
  5
E5
  8
LAYER_1
 10
8.568353090667571
 20
11.05962224482921
 30
0.0
  0
SEQEND
  5
10F
  8
LAYER_1
  0
POLYLINE
  5
76
  8
LAYER_1
 66
     1
 10
0.0
 20
0.0
 30
0.0
 70
     1
  0
VERTEX
  5
E6
  8
LAYER_1
 10
8.089430631981228
 20
12.23945414925514
 30
0.0
  0
VERTEX
  5
E7
  8
LAYER_1
 10
7.857583267339664
 20
11.8384027775182
 30
0.0
  0
VERTEX
  5
E8
  8
LAYER_1
 10
7.373647475677297
 20
10.99955255264913
 30
0.0
  0
VERTEX
  5
E9
  8
LAYER_1
 10
6.894150977069384
 20
10.16788975463011
 30
0.0
  0
VERTEX
  5
EA
  8
LAYER_1
 10
6.675621491591185
 20
9.788400663443385
 30
0.0
  0
VERTEX
  5
EB
  8
LAYER_1
 10
7.976686681391906
 20
9.788400663443385
 30
0.0
  0
VERTEX
  5
EC
  8
LAYER_1
 10
8.676544754675096
 20
10.99701581376087
 30
0.0
  0
VERTEX
  5
ED
  8
LAYER_1
 10
9.16007537276503
 20
11.83269511501962
 30
0.0
  0
VERTEX
  5
EE
  8
LAYER_1
 10
9.395005579805519
 20
12.23945414925514
 30
0.0
  0
VERTEX
  5
EF
  8
LAYER_1
 10
9.335854642291256
 20
12.23977784770703
 30
0.0
  0
VERTEX
  5
F0
  8
LAYER_1
 10
9.188155662958682
 20
12.23992978779669
 30
0.0
  0
VERTEX
  5
F1
  8
LAYER_1
 10
8.744754844781633
 20
12.23987693906985
 30
0.0
  0
SEQEND
  5
110
  8
LAYER_1
  0
POLYLINE
  5
77
  8
LAYER_1
 66
     1
 10
0.0
 20
0.0
 30
0.0
 70
     1
  0
VERTEX
  5
F2
  8
LAYER_1
 10
10.25570227277433
 20
14.28219494290885
 30
0.0
  0
VERTEX
  5
F3
  8
LAYER_1
 10
10.25330629195329
 20
14.3395720866579
 30
0.0
  0
VERTEX
  5
F4
  8
LAYER_1
 10
8.354433738546517
 20
15.43704996014459
 30
0.0
  0
VERTEX
  5
F5
  8
LAYER_1
 10
6.477771155499322
 20
16.52230219759815
 30
0.0
  0
VERTEX
  5
F6
  8
LAYER_1
 10
5.9143182022503
 20
16.1977243809083
 30
0.0
  0
VERTEX
  5
F7
  8
LAYER_1
 10
4.586068616438933
 20
15.43074642976974
 30
0.0
  0
VERTEX
  5
F8
  8
LAYER_1
 10
3.260951744843088
 20
14.66480890354843
 30
0.0
  0
VERTEX
  5
F9
  8
LAYER_1
 10
2.824047876302687
 20
14.41187813315273
 30
0.0
  0
VERTEX
  5
FA
  8
LAYER_1
 10
2.706789097206695
 20
14.34360061678341
 30
0.0
  0
VERTEX
  5
FB
  8
LAYER_1
 10
2.70583900073609
 20
12.17851614495071
 30
0.0
  0
VERTEX
  5
FC
  8
LAYER_1
 10
2.705698579034874
 20
9.991110045768021
 30
0.0
  0
VERTEX
  5
FD
  8
LAYER_1
 10
6.476767889776938
 20
7.813312066140514
 30
0.0
  0
VERTEX
  5
FE
  8
LAYER_1
 10
8.36714558430637
 20
8.904165104872122
 30
0.0
  0
VERTEX
  5
FF
  8
LAYER_1
 10
10.2482372066302
 20
9.990250428655713
 30
0.0
  0
VERTEX
  5
100
  8
LAYER_1
 10
10.25307032607708
 20
10.63043614452557
 30
0.0
  0
VERTEX
  5
101
  8
LAYER_1
 10
10.25765068146409
 20
11.34336830311939
 30
0.0
  0
VERTEX
  5
102
  8
LAYER_1
 10
10.2617515028299
 20
12.16082220250232
 30
0.0
  0
VERTEX
  5
103
  8
LAYER_1
 10
10.26320506823278
 20
12.57625446765379
 30
0.0
  0
VERTEX
  5
104
  8
LAYER_1
 10
10.26403868640368
 20
12.97889244305457
 30
0.0
  0
VERTEX
  5
105
  8
LAYER_1
 10
10.26408577415161
 20
13.35571932918757
 30
0.0
  0
VERTEX
  5
106
  8
LAYER_1
 10
10.2631802686972
 20
13.69371221359021
 30
0.0
  0
VERTEX
  5
107
  8
LAYER_1
 10
10.26115690881257
 20
13.9798981824411
 30
0.0
  0
VERTEX
  5
108
  8
LAYER_1
 10
10.25967799563893
 20
14.0992590384568
 30
0.0
  0
VERTEX
  5
109
  8
LAYER_1
 10
10.25786238676311
 20
14.20067263497482
 30
0.0
  0
SEQEND
  5
111
  8
LAYER_1
  0
ENDSEC
  0
EOF
